<svg width="16" height="21" viewBox="0 0 16 21" fill="none" xmlns="http://www.w3.org/2000/svg">
<path d="M3.05855 2.48069C3.06411 2.50779 3.06821 2.53517 3.07085 2.5627C3.14138 4.37851 3.70564 4.91652 5.54113 4.91652H10.7441C12.2032 4.91652 12.9028 4.2235 12.9159 2.76528C12.9159 2.68326 12.9159 2.60125 12.9159 2.41016C13.5515 2.46593 14.1888 2.43722 14.7752 2.59551C15.4706 2.78332 15.8676 3.33364 15.9619 4.07177C15.9847 4.26227 15.9951 4.45404 15.9931 4.64588C15.9931 9.34532 16.0013 14.0456 15.9832 18.745C15.9857 19.1787 15.8962 19.6081 15.7208 20.0048C15.4141 20.6568 14.8367 20.9963 14.1018 20.9971C10.0306 21.001 5.95913 21.001 1.88738 20.9971C1.4248 20.9931 0.979941 20.8187 0.637843 20.5074C0.295746 20.196 0.0804167 19.7694 0.0330252 19.3093C0.0119006 19.1186 0.00149574 18.927 0.00185966 18.7352C0.00185966 14.033 0.00185966 9.33301 0.00185966 4.63521C-0.00765574 4.36274 0.0193762 4.09021 0.082234 3.82491C0.288911 3.07119 0.803143 2.59879 1.5749 2.49299C2.05059 2.42656 2.54923 2.48069 3.05855 2.48069ZM4.26498 8.40543C3.98613 8.09377 3.76551 7.81328 3.50881 7.57052C3.2275 7.30315 2.87401 7.32447 2.63453 7.57872C2.52447 7.69417 2.46472 7.84858 2.46841 8.00804C2.4721 8.1675 2.53893 8.31898 2.65421 8.42921C3.04788 8.84585 3.4555 9.24936 3.86967 9.64713C4.11572 9.88497 4.42901 9.93746 4.6808 9.69388C5.54578 8.85897 6.39572 8.00957 7.23063 7.14568C7.46683 6.89964 7.43731 6.5806 7.18962 6.33456C6.94194 6.08851 6.65407 6.08851 6.37768 6.30175C6.27282 6.38938 6.17365 6.48362 6.08079 6.58388C5.5034 7.16209 4.92684 7.74193 4.26498 8.40543ZM4.23546 17.0613C4.13463 16.8917 4.02513 16.7275 3.9074 16.5692C3.78244 16.4232 3.64525 16.2882 3.49732 16.1657C3.21437 15.927 2.8896 15.9344 2.64929 16.1657C2.59205 16.2201 2.54619 16.2853 2.51438 16.3576C2.48257 16.4299 2.46544 16.5078 2.46399 16.5868C2.46254 16.6658 2.47679 16.7443 2.50593 16.8177C2.53507 16.8911 2.5785 16.958 2.63371 17.0145C3.03476 17.4434 3.45386 17.8576 3.87787 18.2611C4.14524 18.5137 4.44459 18.5072 4.7259 18.2677C4.85057 18.1619 4.96129 18.0405 5.07693 17.924C5.77241 17.2286 6.47118 16.538 7.15928 15.8351C7.43239 15.5555 7.43813 15.2003 7.20767 14.9543C6.96162 14.6886 6.60896 14.6919 6.29895 14.9691C6.18659 15.0683 6.08407 15.179 5.97909 15.2856L4.23546 17.0613ZM4.24776 12.7374C4.11818 12.5554 4.02468 12.4036 3.90904 12.2708C3.78259 12.1262 3.64552 11.9914 3.49896 11.8673C3.2316 11.636 2.87811 11.6417 2.64847 11.8673C2.53532 11.9786 2.47078 12.1301 2.46894 12.2888C2.46709 12.4476 2.52809 12.6006 2.63863 12.7145C3.04132 13.1418 3.45878 13.5559 3.88361 13.9603C4.1354 14.1998 4.45772 14.2227 4.69884 13.9865C5.55453 13.1631 6.39408 12.3241 7.21751 11.4695C7.45535 11.2235 7.43321 10.9151 7.20439 10.6493C6.99279 10.4033 6.62372 10.3976 6.35554 10.6182C6.25056 10.7051 6.1587 10.8076 6.06274 10.9044L4.24776 12.7374ZM11.1165 7.38352C10.517 7.38352 9.91743 7.37778 9.3179 7.38352C8.87913 7.38927 8.61504 7.63859 8.6257 8.01504C8.63636 8.3718 8.89471 8.60554 9.31462 8.608C10.4869 8.61402 11.6589 8.61402 12.8306 8.608C13.2694 8.608 13.5335 8.35294 13.522 7.97731C13.5121 7.61973 13.2538 7.38927 12.8331 7.38352C12.2614 7.3745 11.6889 7.38352 11.1165 7.38352ZM11.1066 15.9951C10.5202 15.9951 9.93466 15.991 9.34825 15.9951C8.89799 16 8.63226 16.2272 8.6257 16.5962C8.61914 16.9653 8.88405 17.2179 9.32529 17.2204C10.497 17.2258 11.6687 17.2258 12.8404 17.2204C13.2579 17.2204 13.5162 16.9743 13.5228 16.6208C13.5294 16.2468 13.2645 16.0024 12.8232 15.9967C12.2507 15.986 11.6783 15.9951 11.1066 15.9951ZM11.0624 12.9154C11.6504 12.9154 12.2384 12.9236 12.8257 12.9154C13.2776 12.9064 13.5326 12.6644 13.522 12.2872C13.5113 11.928 13.2645 11.7016 12.8281 11.6975C11.6668 11.6882 10.5052 11.6882 9.34333 11.6975C8.88077 11.6975 8.62734 11.9304 8.62652 12.306C8.6257 12.6817 8.87831 12.9089 9.34087 12.9171C9.91415 12.9195 10.4883 12.9121 11.0624 12.9121V12.9154Z" fill="#60AFFF"/>
<path d="M7.9982 3.69286H5.20971C4.47157 3.69286 4.30754 3.52145 4.30754 2.76937C4.30754 2.63323 4.30262 2.49544 4.31575 2.3593C4.33994 2.07045 4.46535 1.79941 4.66987 1.594C4.87438 1.38858 5.14486 1.26198 5.43361 1.23652C5.58315 1.21959 5.73404 1.21821 5.88387 1.23242C6.39072 1.28901 6.76306 1.22586 6.95744 0.627969C7.10506 0.171148 7.57009 -0.0232271 8.06136 0.00219749C8.58707 0.0325429 8.98238 0.305652 9.14149 0.805121C9.25467 1.1627 9.4392 1.28737 9.78858 1.22668C9.85502 1.21437 9.92555 1.22668 9.99362 1.22668C11.1599 1.1258 11.7889 1.67038 11.6938 2.97277C11.6585 3.46486 11.4568 3.68548 10.9483 3.68794C9.96492 3.69286 8.98156 3.69286 7.9982 3.69286Z" fill="#60AFFF"/>
</svg>
