<svg width="15" height="18" viewBox="0 0 15 18" fill="none" xmlns="http://www.w3.org/2000/svg">
<path d="M4.5 11.5L6.04167 14L11 11" stroke="white" stroke-width="2" stroke-linecap="round"/>
<path d="M3 6C4.65685 6 6 4.65685 6 3C6 1.34315 4.65685 0 3 0C1.34315 0 0 1.34315 0 3C0 4.65685 1.34315 6 3 6Z" fill="white"/>
<path d="M13.6149 15.3227C13.7403 15.7483 13.6289 16.1318 13.346 16.4413C13.0482 16.7669 12.5593 17 12 17H3C1.89543 17 1 16.1046 1 15V9.79698C1 8.83255 1.63408 8.12195 2.37856 8.04985C2.71272 8.01748 3.05206 8 3.4 8C8.29409 8 12.3802 11.1314 13.6149 15.3227Z" stroke="white" stroke-width="2"/>
</svg>
