<svg width="11" height="13" viewBox="0 0 11 13" fill="none" xmlns="http://www.w3.org/2000/svg">
<path d="M11 3.2V4.7H0V3.2C0 2.5 0.5 2 1.2 2H9.8C10.5 2 11 2.5 11 3.2Z" fill="white"/>
<path d="M0 6.59961H11V11.6996C11 12.3996 10.5 12.8996 9.8 12.8996H1.2C0.5 12.9996 0 12.3996 0 11.7996V6.59961Z" fill="white"/>
<path d="M7.89961 3.9C7.49961 3.9 7.09961 3.6 7.09961 3.1V0.8C7.19961 0.3 7.49961 0 7.89961 0C8.29961 0 8.69961 0.3 8.69961 0.8V3.2C8.69961 3.6 8.39961 3.9 7.89961 3.9Z" fill="white"/>
<path d="M3.0998 3.9C2.6998 3.9 2.2998 3.6 2.2998 3.1V0.8C2.2998 0.3 2.5998 0 3.0998 0C3.5998 0 3.8998 0.3 3.8998 0.8V3.2C3.7998 3.6 3.4998 3.9 3.0998 3.9Z" fill="white"/>
</svg>
