<svg xmlns="http://www.w3.org/2000/svg" xmlns:xlink="http://www.w3.org/1999/xlink" width="56.794" height="57" viewBox="0 0 56.794 57">
  <defs>
    <linearGradient id="linear-gradient" x1="0.391" y1="1.184" x2="0.5" y2="-0.163" gradientUnits="objectBoundingBox">
      <stop offset="0" stop-color="#037ffb"/>
      <stop offset="1" stop-color="#43d2ff"/>
    </linearGradient>
  </defs>
  <g id="Group_749" data-name="Group 749" transform="translate(-0.949)">
    <path id="Path_3206" data-name="Path 3206" d="M42.374,0A15.37,15.37,0,0,0,27,15.369a15.121,15.121,0,0,0,1.981,7.48l-1.878,5.635a1.717,1.717,0,0,0,.41,1.742,1.653,1.653,0,0,0,1.742.41l5.636-1.878a15.122,15.122,0,0,0,7.48,1.981A15.369,15.369,0,1,0,42.374,0ZM35.543,17.077a1.735,1.735,0,0,1-1.708-1.708,1.713,1.713,0,0,1,1.708-1.708,1.691,1.691,0,0,1,1.708,1.708A1.713,1.713,0,0,1,35.543,17.077Zm6.831,0a1.735,1.735,0,0,1-1.708-1.708,1.713,1.713,0,0,1,1.708-1.708,1.691,1.691,0,0,1,1.708,1.708A1.713,1.713,0,0,1,42.374,17.077Zm6.831,0A1.735,1.735,0,0,1,47.5,15.369,1.713,1.713,0,0,1,49.2,13.661a1.691,1.691,0,0,1,1.708,1.708A1.713,1.713,0,0,1,49.2,17.077Z" fill="url(#linear-gradient)"/>
    <path id="Path_3207" data-name="Path 3207" d="M38.663,37.181l8.7,5.8a5.122,5.122,0,0,1,.78,7.885l-3.624,3.624a8.458,8.458,0,0,1-6.469,2.5C33.4,56.711,24.054,54.7,13.651,44.3S1.237,24.548.963,19.9a8.474,8.474,0,0,1,2.5-6.47L7.083,9.809a5.123,5.123,0,0,1,7.885.78l5.8,8.693a5.138,5.138,0,0,1-.64,6.464l-2.286,2.288A14.171,14.171,0,0,0,22.1,35.843a14.17,14.17,0,0,0,7.808,4.266L32.2,37.823A5.142,5.142,0,0,1,38.663,37.181Z" fill-rule="evenodd" fill="url(#linear-gradient)"/>
  </g>
</svg>
