<svg width="17" height="17" viewBox="0 0 17 17" fill="none" xmlns="http://www.w3.org/2000/svg">
<path d="M14.9746 7.35555V4.51562C14.9746 2.04388 12.9639 0 10.4922 0H6.50781C4.03607 0 2.02539 2.04388 2.02539 4.51562V7.35555C0.851826 7.91738 0 9.10675 0 10.4922C0 12.4143 1.59737 14.0117 3.51953 14.0117H4.01758V7.00586H3.51953C3.349 7.00586 3.18557 7.03242 3.02148 7.0562V5.01367H4.01758V4.51562C4.01758 3.14258 5.1343 2.02539 6.50781 2.02539H10.4922C11.8657 2.02539 12.9824 3.14258 12.9824 4.51562V5.01367H13.9785V7.0562C13.8144 7.03242 13.651 7.00586 13.4805 7.00586H12.9824V14.0117H13.4805C13.651 14.0117 13.8144 13.9852 13.9785 13.9614V15.0078C13.9785 15.2826 13.7548 15.5059 13.4805 15.5059H10.3395C10.166 15.2135 9.8608 15.0078 9.49609 15.0078H7.50391C6.95376 15.0078 6.50781 15.4538 6.50781 16.0039C6.50781 16.554 6.95376 17 7.50391 17H9.49609C9.86076 17 10.166 16.7943 10.3395 16.502H13.4805C14.3044 16.502 14.9746 15.8317 14.9746 15.0078V13.662C16.1482 13.1002 17 11.8776 17 10.4922C17 9.10675 16.1482 7.91738 14.9746 7.35555Z" fill="#373737"/>
</svg>
