<svg width="18" height="21" viewBox="0 0 18 21" fill="none" xmlns="http://www.w3.org/2000/svg">
<path d="M12.1887 5.15643C11.0018 5.97622 9.84361 6.77962 8.692 7.58793C8.53475 7.69811 8.39611 7.8326 8.2813 7.98635C8.07185 8.27082 7.98724 8.63071 8.19916 8.90288C8.38662 9.10643 8.64422 9.23176 8.92035 9.25375C9.7475 9.30212 10.481 8.96683 11.1283 8.49462C12.8598 7.2264 14.565 5.92211 16.2842 4.6416C16.4408 4.51128 16.6197 4.41045 16.8124 4.34401C17.2929 4.21203 17.7217 4.51863 17.7882 5.0146C17.8041 5.16379 17.8101 5.31387 17.8063 5.46385C17.8063 8.72908 17.7997 11.9943 17.8145 15.2596C17.8145 15.7703 17.6617 16.1277 17.2395 16.4384C15.5885 17.655 13.9539 18.8978 12.3226 20.1365C10.9476 21.1809 9.47316 21.2268 7.95028 20.5521C6.9646 20.116 6.45122 19.3626 6.46108 18.2313C6.489 15.103 6.489 11.9746 6.46108 8.84632C6.45286 7.70516 6.89806 6.84602 7.82542 6.20904C9.33571 5.17064 10.8446 4.13223 12.3522 3.09383C12.652 2.88724 12.9592 2.77657 13.3099 2.95364C13.6779 3.13974 13.7707 3.46437 13.7568 3.8464C13.7477 4.10545 13.7461 4.36615 13.7568 4.6252C13.7757 5.05559 13.6746 5.41794 13.2278 5.58518C12.7809 5.75242 12.4754 5.53517 12.1887 5.15643ZM16.2021 8.70039C14.8394 9.75547 13.5654 10.7409 12.2947 11.7336C12.2273 11.7787 12.1791 11.847 12.1591 11.9255C12.1476 12.405 12.1534 12.8854 12.1534 13.4527C13.5128 12.4001 14.7868 11.4155 16.0559 10.4195C16.136 10.3517 16.1862 10.2551 16.1955 10.1506C16.2103 9.70546 16.2021 9.25867 16.2021 8.70039Z" fill="#60AFFF"/>
<path d="M5.69659 2.28396C4.49488 3.03898 3.3096 3.77106 2.14157 4.53019C1.94193 4.67045 1.7898 4.86803 1.7054 5.09666C1.42941 5.85333 1.83272 6.3198 2.60894 6.09353C3.19819 5.92532 3.76147 5.67706 4.28296 5.35572C6.13111 4.18833 7.95052 2.97832 9.7806 1.77896C9.8726 1.71912 9.96131 1.65435 10.0549 1.59943C10.4796 1.35349 10.9338 1.42727 11.1885 1.78388C11.3183 1.97098 11.3713 2.20062 11.3366 2.42555C11.3019 2.65048 11.1822 2.85359 11.002 2.99308C10.7646 3.17589 10.5092 3.33329 10.2562 3.49971C9.22862 4.18096 8.20844 4.86466 7.1784 5.53771C6.23297 6.15502 5.74998 7.04203 5.71466 8.14302C5.66538 9.8072 5.67031 11.4738 5.65963 13.1438C5.65224 14.2636 5.65963 15.3834 5.65963 16.5049C5.65963 17.1812 5.48796 17.4149 4.83083 17.5706C3.69482 17.859 2.4958 17.7728 1.41298 17.3247C0.474121 16.9394 -0.0105055 16.2729 0.000172709 15.2039C0.0330288 12.0223 0.0190649 8.83984 0.00838672 5.65658C0.00427972 4.49084 0.475764 3.62924 1.4787 3.01357C2.97447 2.10114 4.43574 1.14772 5.91426 0.208239C6.35207 -0.068851 6.70199 -0.0663916 7.00837 0.197582C7.41332 0.547633 7.41907 2.22739 7.00837 2.57498C6.59767 2.92257 6.15165 2.82584 5.69659 2.28396Z" fill="#60AFFF"/>
</svg>
