<svg width="21" height="20" viewBox="0 0 21 20" fill="none" xmlns="http://www.w3.org/2000/svg">
<path fill-rule="evenodd" clip-rule="evenodd" d="M0 4C0 1.79086 1.79086 0 4 0H17C19.2091 0 21 1.79086 21 4V16C21 18.2091 19.2091 20 17 20H4C1.79086 20 0 18.2091 0 16V4ZM4 5C4 4.44772 4.44772 4 5 4C5.55228 4 6 4.44772 6 5C6 5.55228 5.55228 6 5 6C4.44772 6 4 5.55228 4 5ZM9 4C8.44772 4 8 4.44772 8 5C8 5.55228 8.44771 6 9 6H16C16.5523 6 17 5.55228 17 5C17 4.44772 16.5523 4 16 4H9ZM4 10C4 9.44771 4.44772 9 5 9C5.55228 9 6 9.44771 6 10C6 10.5523 5.55228 11 5 11C4.44772 11 4 10.5523 4 10ZM9 9C8.44772 9 8 9.44771 8 10C8 10.5523 8.44771 11 9 11H16C16.5523 11 17 10.5523 17 10C17 9.44771 16.5523 9 16 9H9ZM4 15C4 14.4477 4.44772 14 5 14C5.55228 14 6 14.4477 6 15C6 15.5523 5.55228 16 5 16C4.44772 16 4 15.5523 4 15ZM9 14C8.44772 14 8 14.4477 8 15C8 15.5523 8.44771 16 9 16H16C16.5523 16 17 15.5523 17 15C17 14.4477 16.5523 14 16 14H9Z" fill="#60AFFF"/>
</svg>
