<svg width="17" height="16" viewBox="0 0 17 16" fill="none" xmlns="http://www.w3.org/2000/svg">
<path d="M14.0204 0H3.01552C1.35264 0 0 1.41386 0 3.15149V14.9382C0 15.3554 0.24176 15.7367 0.616203 15.9095C0.748367 15.9704 0.888832 16 1.028 16C1.27702 16 1.52242 15.9048 1.71255 15.7235C3.09217 14.416 4.87749 13.6961 6.74023 13.6961H6.74088L14.0224 13.6965C15.6642 13.6965 17 12.294 17 10.5702V3.11427C17 1.39715 15.6632 0 14.0204 0V0ZM5.85166 7.03451C6.12663 7.03451 6.34971 7.2678 6.34971 7.55611C6.34971 7.84416 6.12663 8.07785 5.85166 8.07785H3.97205V9.35122C3.97205 9.63927 3.74897 9.87296 3.47401 9.87296C3.19878 9.87296 2.97596 9.63913 2.97596 9.35122V5.11875C2.97596 4.38655 3.54443 3.79076 4.24339 3.79076H5.85166C6.12663 3.79076 6.34971 4.02459 6.34971 4.3125C6.34971 4.60081 6.12663 4.83424 5.85166 4.83424H4.24339C4.09358 4.83424 3.97205 4.96182 3.97205 5.11875V7.03451H5.85166ZM10.193 9.35122C10.193 9.63927 9.96989 9.87296 9.69492 9.87296C9.42009 9.87296 9.19688 9.63927 9.19688 9.35122V8.04946H7.81532V9.35122C7.81532 9.63927 7.59223 9.87296 7.31727 9.87296C7.04205 9.87296 6.81922 9.63927 6.81922 9.35122V5.55802C6.81922 4.58383 7.57602 3.79076 8.50597 3.79076C9.4363 3.79076 10.193 4.58383 10.193 5.55802V9.35122ZM14.6134 9.87296H12.5318C11.6019 9.87296 10.8451 9.0803 10.8451 8.10571V5.55802C10.8451 4.58383 11.6019 3.79076 12.5318 3.79076C13.4622 3.79076 14.2188 4.58383 14.2188 5.55802V8.82948H14.6134C14.8882 8.82948 15.1114 9.06291 15.1114 9.35122C15.1114 9.63927 14.8882 9.87296 14.6134 9.87296Z" fill="#373737"/>
</svg>
