<svg width="34" height="34" viewBox="0 0 34 34" fill="none" xmlns="http://www.w3.org/2000/svg">
<path d="M17 34C26.3888 34 34 26.3888 34 17C34 7.61116 26.3888 0 17 0C7.61116 0 0 7.61116 0 17C0 26.3888 7.61116 34 17 34Z" fill="#068BFF"/>
<path d="M21.0458 18.0348L21.5258 14.9008H18.5208V12.8708C18.4998 12.6369 18.5318 12.4012 18.6142 12.1813C18.6967 11.9614 18.8276 11.7629 18.9972 11.6004C19.1668 11.4379 19.3707 11.3156 19.5939 11.2427C19.8172 11.1697 20.054 11.1479 20.2868 11.1788H21.6528V8.51278C20.8507 8.38308 20.0402 8.31222 19.2278 8.30078C16.7528 8.30078 15.1348 9.80078 15.1348 12.5168V14.9008H12.3838V18.0348H15.1348V25.6058H18.5208V18.0348H21.0458Z" fill="white"/>
</svg>
