<svg width="11" height="18" viewBox="0 0 11 18" fill="none" xmlns="http://www.w3.org/2000/svg">
<path d="M10.9165 18.0004H0V15.09C0 13.5927 1.21377 12.3789 2.71107 12.3789H8.20547C9.70274 12.3789 10.9165 13.5927 10.9165 15.09V18.0004H10.9165Z" fill="#82AEE3"/>
<path d="M10.191 4.17188H0.713616L0.0830528 8.84333C-0.113857 10.3023 1.0206 11.6001 2.49277 11.6001H8.41192C9.88409 11.6001 11.0185 10.3022 10.8216 8.84333L10.191 4.17188Z" fill="#9E5528"/>
<path d="M3.63892 9.92773V12.8367H7.27734C7.27734 12.4352 7.27734 10.337 7.27734 9.92773H3.63892Z" fill="#FFCEBF"/>
<path d="M3.63892 11.0166C4.18788 11.286 4.80529 11.4374 5.45811 11.4374C6.11093 11.4374 6.72838 11.286 7.2773 11.0166C7.2773 10.5276 7.2773 10.0918 7.2773 9.92773H3.63892V11.0166Z" fill="#FFB09E"/>
<path d="M9.59291 4.73742C9.57853 4.73742 9.56433 4.73801 9.55009 4.73851C9.26142 2.73713 7.53961 1.19922 5.45832 1.19922C3.37704 1.19922 1.65522 2.73713 1.36659 4.73851C1.35235 4.73805 1.33811 4.73742 1.32377 4.73742C0.620751 4.73742 1.38469 5.52681 1.38469 6.22983C1.38469 6.93285 0.620751 7.28329 1.32377 7.28329C1.33815 7.28329 1.35235 7.28269 1.36659 7.2822C1.65522 9.28358 3.37704 10.8215 5.45832 10.8215C7.53961 10.8215 9.26142 9.28358 9.55005 7.2822C9.56429 7.28266 9.57853 7.28329 9.59287 7.28329L9.59291 4.73742Z" fill="#FFCEBF"/>
<path d="M8.20576 12.3789H6.77124C8.26851 12.3789 9.48232 13.5927 9.48232 15.09V18.0004H10.9168V15.09C10.9168 13.5927 9.70303 12.3789 8.20576 12.3789Z" fill="#528FD8"/>
<path d="M3.63902 11.5508L5.45822 12.8375L4.12021 14.1071C4.03868 14.1845 3.91159 14.1868 3.82736 14.1124L2.11338 12.5986C1.99631 12.4952 2.02363 12.3057 2.16513 12.2395L3.63902 11.5508Z" fill="#D3E1F5"/>
<path d="M7.27745 11.5508L5.45825 12.8375L6.79626 14.1071C6.87779 14.1845 7.00488 14.1868 7.08912 14.1124L8.80309 12.5986C8.92016 12.4952 8.89285 12.3057 8.75134 12.2395L7.27745 11.5508Z" fill="#D3E1F5"/>
<path d="M5.45849 12.8359L3.23243 14.9482C3.12187 15.0531 3.12847 15.2312 3.24646 15.3277L3.96642 15.9162C4.10104 16.0263 4.30392 15.9709 4.36401 15.8078L5.45849 12.8359Z" fill="#0055A3"/>
<path d="M8.75131 12.2395L7.27745 11.5508L6.86982 11.8391L7.72664 12.2395C7.86815 12.3056 7.8955 12.4951 7.77839 12.5985L6.44629 13.775L6.79623 14.1071C6.87776 14.1844 7.00485 14.1867 7.08909 14.1123L8.80306 12.5985C8.92013 12.4951 8.89281 12.3056 8.75131 12.2395Z" fill="#C0D6F2"/>
<path d="M5.45825 12.8359L7.68431 14.9482C7.79488 15.0531 7.78827 15.2312 7.67028 15.3277L6.95032 15.9162C6.81571 16.0263 6.61282 15.9709 6.55274 15.8078L5.45825 12.8359Z" fill="#0055A3"/>
<path d="M10.8216 8.84337L10.191 4.17188H8.75647L9.38704 8.84337C9.51975 9.82651 9.04753 10.736 8.27508 11.2249C8.17439 11.2886 8.14718 11.4231 8.21834 11.5187C8.25655 11.5701 8.31688 11.6004 8.3809 11.6003C8.45884 11.6002 8.51534 11.5993 8.59409 11.5935C9.97629 11.4917 11.0103 10.2415 10.8216 8.84337Z" fill="#C86D36"/>
<path d="M0.0224433 8.82579L0.692552 4.1543H2.08752L1.45696 8.82579C1.32424 9.80894 1.79646 10.7184 2.56891 11.2073C2.6696 11.271 2.69681 11.4055 2.62566 11.5011C2.58744 11.5525 2.52711 11.5828 2.46309 11.5827C2.38515 11.5826 2.32866 11.5818 2.24991 11.576C0.867704 11.4741 -0.166275 10.2239 0.0224433 8.82579Z" fill="#C86D36"/>
<path d="M5.45825 0.544133V3.62959C5.45825 4.32832 6.02469 4.89476 6.72342 4.89476H10.203V3.97816C10.203 1.78216 8.42284 0.00195313 6.22684 0.00195313H6.0005C5.70101 0.00191797 5.45825 0.244672 5.45825 0.544133Z" fill="#AC5E2E"/>
<path d="M6.22683 0.00112348C5.99603 0.00112348 5.86722 -0.0166304 5.70508 0.0890142C7.50272 0.470706 8.85181 2.06596 8.85181 3.97733V4.89393H10.203V3.97733C10.203 1.78133 8.42283 0.00112348 6.22683 0.00112348Z" fill="#9E5528"/>
<path d="M0.713379 3.97816V4.89476H4.19301C4.89174 4.89476 5.45817 4.32832 5.45817 3.62959V0.544168C5.45817 0.244707 5.21542 0.00195312 4.91596 0.00195312H4.68962C2.49359 0.00195312 0.713379 1.78216 0.713379 3.97816Z" fill="#AC5E2E"/>
</svg>
