<svg width="15" height="19" viewBox="0 0 15 19" fill="none" xmlns="http://www.w3.org/2000/svg">
<path fill-rule="evenodd" clip-rule="evenodd" d="M15 3.07143C15 3.66316 14.5203 4.14286 13.9286 4.14286L1.07143 4.14286C0.479695 4.14286 -7.26991e-08 3.66316 -4.68336e-08 3.07143C-2.09681e-08 2.47969 0.479695 2 1.07143 2L13.9286 2C14.5203 2 15 2.47969 15 3.07143Z" fill="#515151"/>
<path fill-rule="evenodd" clip-rule="evenodd" d="M15 9.49916C15 10.0909 14.5203 10.5706 13.9286 10.5706L1.07143 10.5706C0.479695 10.5706 -7.26991e-08 10.0909 -4.68336e-08 9.49916C-2.09681e-08 8.90743 0.479695 8.42773 1.07143 8.42773L13.9286 8.42773C14.5203 8.42773 15 8.90743 15 9.49916Z" fill="#515151"/>
<path fill-rule="evenodd" clip-rule="evenodd" d="M15 15.9269C15 16.5186 14.5203 16.9983 13.9286 16.9983L1.07143 16.9983C0.479695 16.9983 -7.26991e-08 16.5186 -4.68336e-08 15.9269C-2.09681e-08 15.3352 0.479695 14.8555 1.07143 14.8555L13.9286 14.8555C14.5203 14.8555 15 15.3352 15 15.9269Z" fill="#515151"/>
<circle cx="10.7146" cy="3.07059" r="2.14286" transform="rotate(90 10.7146 3.07059)" fill="#515151"/>
<circle cx="4.28488" cy="9.49833" r="2.14286" transform="rotate(90 4.28488 9.49833)" fill="#515151"/>
<circle cx="10.7146" cy="15.928" r="2.14286" transform="rotate(90 10.7146 15.928)" fill="#515151"/>
</svg>
