<svg width="15" height="20" viewBox="0 0 15 20" fill="none" xmlns="http://www.w3.org/2000/svg">
<path d="M13.8598 5.11616C14.4652 5.11616 14.956 4.62539 14.956 4.01999C14.956 3.4146 14.4652 2.92383 13.8598 2.92383C13.2544 2.92383 12.7637 3.4146 12.7637 4.01999C12.7637 4.62539 13.2544 5.11616 13.8598 5.11616Z" fill="#037FFB"/>
<path d="M10.937 2.9228C11.5424 2.9228 12.0332 2.43203 12.0332 1.82663C12.0332 1.22124 11.5424 0.730469 10.937 0.730469C10.3316 0.730469 9.84082 1.22124 9.84082 1.82663C9.84082 2.43203 10.3316 2.9228 10.937 2.9228Z" fill="#037FFB"/>
<path d="M8.01413 2.19233C8.61953 2.19233 9.1103 1.70156 9.1103 1.09616C9.1103 0.49077 8.61953 0 8.01413 0C7.40874 0 6.91797 0.49077 6.91797 1.09616C6.91797 1.70156 7.40874 2.19233 8.01413 2.19233Z" fill="#037FFB"/>
<path d="M5.08835 3.65522C5.69375 3.65522 6.18452 3.16445 6.18452 2.55906C6.18452 1.95366 5.69375 1.46289 5.08835 1.46289C4.48296 1.46289 3.99219 1.95366 3.99219 2.55906C3.99219 3.16445 4.48296 3.65522 5.08835 3.65522Z" fill="#037FFB"/>
<path d="M12.7626 4.02076V8.77081C12.7626 8.9725 12.5989 9.1362 12.3972 9.1362C12.1955 9.1362 12.0318 8.9725 12.0318 8.77081V1.82843H9.8395V8.04003C9.8395 8.24173 9.6758 8.40542 9.47411 8.40542C9.27241 8.40542 9.10872 8.24173 9.10872 8.04003V1.09766H6.91639V8.04003C6.91639 8.24173 6.7527 8.40542 6.551 8.40542C6.34931 8.40542 6.18561 8.24173 6.18561 8.04003V2.55921H3.99328V11.6939L2.51346 9.66893C2.075 8.99297 1.21926 8.76643 0.59225 9.15374C-0.0325637 9.54982 -0.187488 10.4136 0.245131 11.0874C0.245131 11.0874 2.63185 14.6996 3.64909 16.2459C4.66633 17.7922 6.31423 19.0017 9.39591 19.0017C14.4982 19.0017 14.9549 15.0613 14.9549 13.8862C14.9549 12.7112 14.9549 4.02076 14.9549 4.02076H12.7626Z" fill="#037FFB"/>
</svg>
