<svg width="276" height="308" viewBox="0 0 276 308" fill="none" xmlns="http://www.w3.org/2000/svg">
<path d="M244.824 230.303C239.302 236.067 234.07 239.785 229.942 242.725C181.403 277.264 123.969 267.195 111.762 264.736C93.741 261.104 58.8913 254.091 33.7011 224.711C-4.41358 180.267 1.52549 110.247 31.0852 64.025C36.4914 55.5703 65.0532 8.64711 123.107 1.12441C158.238 -3.42956 199.191 5.75524 228.857 30.3986C291.106 82.1159 286.679 186.598 244.824 230.303Z" fill="#FFF5EF"/>
<g clip-path="url(#clip0)">
<path d="M255.091 272.708H110.852C109.252 272.708 107.943 271.398 107.943 269.796V57.7872C107.943 56.1855 109.252 54.875 110.852 54.875H255.091C256.691 54.875 258 56.1855 258 57.7872V269.796C258 271.398 256.691 272.708 255.091 272.708Z" fill="#0D0468"/>
<path d="M252.545 272.708H108.234C106.633 272.708 105.324 271.398 105.324 269.796V57.7872C105.324 56.1855 106.633 54.875 108.234 54.875H252.472C254.072 54.875 255.382 56.1855 255.382 57.7872V269.796C255.454 271.398 254.145 272.708 252.545 272.708Z" fill="#037FFB"/>
<path d="M247.89 64.2676H118.053V263.244H247.89V64.2676Z" fill="#C1C6E0"/>
<path d="M245.344 64.2676H115.507V263.244H245.344V64.2676Z" fill="white"/>
<path d="M211.885 68.782H148.821V53.3473C148.821 51.3087 150.422 49.707 152.458 49.707H208.248C210.284 49.707 211.885 51.3087 211.885 53.3473V68.782Z" fill="#0D0468"/>
<path d="M180.389 35C172.315 35 165.696 41.5525 165.696 49.7066C165.696 57.788 172.243 64.4133 180.389 64.4133C188.463 64.4133 195.082 57.8608 195.082 49.7066C195.082 41.5525 188.463 35 180.389 35ZM180.389 57.06C176.316 57.06 173.043 53.7837 173.043 49.7066C173.043 45.6296 176.316 42.3533 180.389 42.3533C184.463 42.3533 187.736 45.6296 187.736 49.7066C187.736 53.7109 184.463 57.06 180.389 57.06Z" fill="#0D0468"/>
<path d="M225.196 120.327H212.321C211.521 120.327 210.866 119.671 210.866 118.87V105.911C210.866 105.11 211.521 104.455 212.321 104.455H225.196C225.996 104.455 226.65 105.11 226.65 105.911V118.798C226.65 119.671 225.996 120.327 225.196 120.327Z" stroke="#D5D8EF" stroke-miterlimit="10"/>
<path d="M206.429 110.207C209.048 112.828 211.666 115.449 214.212 117.997C214.939 118.725 216.103 118.725 216.758 117.997C222.14 112.609 227.45 107.295 232.833 101.907C233.56 101.179 234.36 100.378 235.088 99.6502C236.761 97.9756 234.142 95.4275 232.542 97.102C227.159 102.49 221.849 107.804 216.467 113.192C215.74 113.92 214.939 114.721 214.212 115.449C215.085 115.449 215.958 115.449 216.758 115.449C214.139 112.828 211.521 110.207 208.975 107.659C207.302 105.984 204.756 108.532 206.429 110.207Z" fill="#E95A4F"/>
<path d="M225.196 150.978H212.321C211.521 150.978 210.866 150.323 210.866 149.522V136.636C210.866 135.835 211.521 135.18 212.321 135.18H225.196C225.996 135.18 226.65 135.835 226.65 136.636V149.522C226.65 150.323 225.996 150.978 225.196 150.978Z" stroke="#D5D8EF" stroke-miterlimit="10"/>
<path d="M206.429 140.857C209.048 143.478 211.666 146.099 214.212 148.647C214.939 149.375 216.103 149.375 216.758 148.647C222.14 143.26 227.45 137.945 232.833 132.557C233.56 131.829 234.36 131.029 235.088 130.301C236.761 128.626 234.142 126.078 232.542 127.752C227.159 133.14 221.849 138.455 216.467 143.842C215.74 144.57 214.939 145.371 214.212 146.099C215.085 146.099 215.958 146.099 216.758 146.099C214.139 143.478 211.521 140.857 208.975 138.309C207.302 136.635 204.756 139.183 206.429 140.857Z" fill="#E95A4F"/>
<path d="M225.196 180.172H212.321C211.521 180.172 210.866 179.517 210.866 178.716V165.829C210.866 165.028 211.521 164.373 212.321 164.373H225.196C225.996 164.373 226.65 165.028 226.65 165.829V178.716C226.65 179.517 225.996 180.172 225.196 180.172Z" stroke="#D5D8EF" stroke-miterlimit="10"/>
<path d="M206.429 170.125C209.048 172.746 211.666 175.367 214.212 177.915C214.939 178.643 216.103 178.643 216.758 177.915C222.14 172.527 227.45 167.213 232.833 161.825C233.56 161.097 234.36 160.296 235.088 159.568C236.761 157.894 234.142 155.345 232.542 157.02C227.159 162.408 221.849 167.722 216.467 173.11C215.74 173.838 214.939 174.639 214.212 175.367C215.085 175.367 215.958 175.367 216.758 175.367C214.139 172.746 211.521 170.125 208.975 167.577C207.302 165.829 204.756 168.45 206.429 170.125Z" fill="#E95A4F"/>
<path d="M225.196 209.877H212.321C211.521 209.877 210.866 209.222 210.866 208.421V195.534C210.866 194.733 211.521 194.078 212.321 194.078H225.196C225.996 194.078 226.65 194.733 226.65 195.534V208.421C226.65 209.222 225.996 209.877 225.196 209.877Z" stroke="#D5D8EF" stroke-miterlimit="10"/>
<path d="M206.429 199.83C209.048 202.451 211.666 205.072 214.212 207.62C214.939 208.348 216.103 208.348 216.758 207.62C222.14 202.233 227.45 196.918 232.833 191.53C233.56 190.802 234.36 190.001 235.088 189.273C236.761 187.599 234.142 185.051 232.542 186.725C227.159 192.113 221.849 197.427 216.467 202.815C215.74 203.543 214.939 204.344 214.212 205.072C215.085 205.072 215.958 205.072 216.758 205.072C214.139 202.451 211.521 199.83 208.975 197.282C207.302 195.607 204.756 198.155 206.429 199.83Z" fill="#E95A4F"/>
<path d="M198.792 106.422H133.619C133.183 106.422 132.892 106.131 132.892 105.694V104.529C132.892 104.092 133.183 103.801 133.619 103.801H198.792C199.228 103.801 199.519 104.092 199.519 104.529V105.694C199.519 106.058 199.155 106.422 198.792 106.422Z" fill="#C1C6E0"/>
<path d="M198.792 113.121H133.619C133.183 113.121 132.892 112.83 132.892 112.393V111.228C132.892 110.791 133.183 110.5 133.619 110.5H198.792C199.228 110.5 199.519 110.791 199.519 111.228V112.393C199.519 112.757 199.155 113.121 198.792 113.121Z" fill="#C1C6E0"/>
<path d="M183.08 119.818H133.619C133.183 119.818 132.892 119.527 132.892 119.09V117.925C132.892 117.488 133.183 117.197 133.619 117.197H183.08C183.517 117.197 183.808 117.488 183.808 117.925V119.09C183.808 119.527 183.444 119.818 183.08 119.818Z" fill="#C1C6E0"/>
<path d="M198.792 137.072H133.619C133.183 137.072 132.892 136.781 132.892 136.344V135.179C132.892 134.742 133.183 134.451 133.619 134.451H198.792C199.228 134.451 199.519 134.742 199.519 135.179V136.344C199.519 136.708 199.155 137.072 198.792 137.072Z" fill="#C1C6E0"/>
<path d="M198.792 143.771H133.619C133.183 143.771 132.892 143.48 132.892 143.043V141.878C132.892 141.442 133.183 141.15 133.619 141.15H198.792C199.228 141.15 199.519 141.442 199.519 141.878V143.043C199.519 143.407 199.155 143.771 198.792 143.771Z" fill="#C1C6E0"/>
<path d="M183.08 150.469H133.619C133.183 150.469 132.892 150.177 132.892 149.741V148.576C132.892 148.139 133.183 147.848 133.619 147.848H183.08C183.517 147.848 183.808 148.139 183.808 148.576V149.741C183.808 150.177 183.444 150.469 183.08 150.469Z" fill="#C1C6E0"/>
<path d="M198.792 166.267H133.619C133.183 166.267 132.892 165.976 132.892 165.539V164.375C132.892 163.938 133.183 163.646 133.619 163.646H198.792C199.228 163.646 199.519 163.938 199.519 164.375V165.539C199.519 165.976 199.155 166.267 198.792 166.267Z" fill="#C1C6E0"/>
<path d="M198.792 172.966H133.619C133.183 172.966 132.892 172.675 132.892 172.238V171.146C132.892 170.709 133.183 170.418 133.619 170.418H198.792C199.228 170.418 199.519 170.709 199.519 171.146V172.311C199.519 172.675 199.155 172.966 198.792 172.966Z" fill="#C1C6E0"/>
<path d="M183.08 179.736H133.619C133.183 179.736 132.892 179.445 132.892 179.008V177.843C132.892 177.406 133.183 177.115 133.619 177.115H183.08C183.517 177.115 183.808 177.406 183.808 177.843V179.008C183.808 179.372 183.444 179.736 183.08 179.736Z" fill="#C1C6E0"/>
<path d="M198.792 195.973H133.619C133.183 195.973 132.892 195.681 132.892 195.244V194.08C132.892 193.643 133.183 193.352 133.619 193.352H198.792C199.228 193.352 199.519 193.643 199.519 194.08V195.244C199.519 195.681 199.155 195.973 198.792 195.973Z" fill="#C1C6E0"/>
<path d="M198.792 202.742H133.619C133.183 202.742 132.892 202.451 132.892 202.014V200.849C132.892 200.412 133.183 200.121 133.619 200.121H198.792C199.228 200.121 199.519 200.412 199.519 200.849V202.014C199.519 202.378 199.155 202.742 198.792 202.742Z" fill="#C1C6E0"/>
<path d="M183.08 209.441H133.619C133.183 209.441 132.892 209.15 132.892 208.713V207.548C132.892 207.112 133.183 206.82 133.619 206.82H183.08C183.517 206.82 183.808 207.112 183.808 207.548V208.713C183.808 209.077 183.444 209.441 183.08 209.441Z" fill="#C1C6E0"/>
<path d="M113.18 113.775C116.453 114.066 122.344 116.323 121.181 120.691C121.108 120.91 121.035 121.056 120.89 121.201C120.672 121.347 120.381 121.42 120.09 121.42C118.635 121.492 117.035 121.347 115.871 120.4C115.143 119.818 114.707 118.944 113.98 118.362C113.543 118.071 113.034 117.852 112.525 117.706C111.652 117.415 110.779 117.124 109.906 116.76C109.47 116.614 108.961 116.396 108.815 115.886C108.67 115.377 109.034 114.867 109.47 114.576C110.561 113.848 111.87 113.629 113.18 113.775Z" fill="#0D0468"/>
<path d="M36.5868 272.71C36.6595 272.783 36.6595 272.783 36.5868 272.71C38.0416 273.002 39.4236 272.929 40.8056 272.929C43.3514 272.929 45.8972 273.002 48.443 272.856C49.9705 272.783 50.6251 271.982 50.9161 270.599C51.207 269.07 51.3525 267.541 51.2798 266.012C51.2798 265.867 51.2798 265.721 51.207 265.576C51.1343 265.43 50.9161 265.357 50.7706 265.284C50.1887 265.066 49.5341 264.92 48.8794 264.848C48.443 264.775 47.6429 264.629 47.2065 264.92C46.8428 265.212 46.5518 265.867 46.2609 266.231C45.8972 266.74 45.6063 267.25 45.1698 267.614C44.297 268.415 43.2059 268.925 42.1149 269.289C41.0238 269.653 39.7873 269.798 38.6962 270.089C37.8233 270.308 36.9505 270.526 36.2959 271.036C36.0049 271.254 35.714 271.546 35.7867 271.91C35.714 272.419 36.1504 272.638 36.5868 272.71Z" fill="#0D0468"/>
<path d="M98.6319 272.71C98.6319 272.783 98.6319 272.783 98.6319 272.71C97.1772 273.002 95.7952 272.929 94.4132 272.929C91.8673 272.929 89.3215 273.002 86.7757 272.856C85.2482 272.783 84.5936 271.982 84.3026 270.599C84.0117 269.07 83.8662 267.541 83.9389 266.012C83.9389 265.867 83.9389 265.721 84.0117 265.576C84.0844 265.43 84.3026 265.357 84.4481 265.284C85.03 265.066 85.6846 264.92 86.3393 264.848C86.7757 264.775 87.5758 264.629 88.0122 264.92C88.3759 265.212 88.6669 265.867 88.9578 266.231C89.3215 266.74 89.6125 267.25 90.0489 267.614C90.9218 268.415 92.0128 268.925 93.1039 269.289C94.1949 269.653 95.4315 269.798 96.5225 270.089C97.3954 270.308 98.2682 270.526 98.9229 271.036C99.2138 271.254 99.5048 271.546 99.432 271.91C99.5775 272.419 99.1411 272.638 98.6319 272.71Z" fill="#0D0468"/>
<path d="M67.9369 104.093C67.9369 104.457 67.8642 104.821 67.7914 105.185C67.4277 106.859 66.1912 108.097 65.2456 109.48C64.4455 110.645 64.3 112.174 64.5182 113.557C64.9547 116.542 66.7731 119.309 68.737 121.493C69.1734 121.93 69.6826 122.585 70.1918 122.876C70.8464 123.24 71.6465 123.459 72.3739 123.677C74.3378 124.333 76.4472 124.769 78.4839 124.988C79.5022 125.061 80.5205 125.133 81.5388 125.133C82.4844 125.133 83.3573 124.624 84.2301 124.187C85.1757 123.677 86.1213 123.168 86.9214 122.367C87.7943 121.566 88.4489 120.62 89.1035 119.673C89.6127 118.945 90.1218 118.144 90.3401 117.27C90.5583 116.251 90.2673 115.086 90.7037 114.067C90.922 113.412 91.4311 112.902 91.7948 112.393C93.0313 110.5 91.2857 108.243 92.304 106.277C92.8859 105.039 94.1952 104.311 94.7043 103.001C95.2135 101.836 95.2135 100.38 94.7043 99.142C93.9042 97.1762 92.013 95.7201 90.0491 94.9193C87.7943 93.9 84.9575 93.6088 83.0663 95.2105C82.6299 95.5745 82.3389 95.9386 81.9752 96.3026C78.9203 99.142 74.9924 96.885 71.4283 98.1955C69.9736 98.778 68.6643 99.87 68.2279 101.399C67.9369 102.418 67.9369 103.219 67.9369 104.093Z" fill="#0D0468"/>
<path d="M171.224 117.489L143.875 113.412L146.203 128.92L171.224 117.489Z" fill="#EEEAED"/>
<path d="M160.677 121.056C160.895 122.002 161.332 122.876 161.841 123.531C163.732 126.006 168.315 124.332 170.569 123.313C173.261 122.075 175.152 119.745 175.37 116.833C175.443 116.032 175.37 115.158 174.934 114.503C174.061 112.974 171.879 112.61 170.278 112.246C168.315 111.809 166.278 111.737 164.387 112.319C161.041 113.338 159.804 117.707 160.677 121.056Z" fill="#E95A4F"/>
<path d="M143.22 113.412L21.6759 128.701L20.2212 145.665L145.693 129.065L143.22 113.412Z" fill="#FFBB00"/>
<path opacity="0.2" d="M19.0571 134.307L144.02 118.727L143.22 113.412L21.6757 128.701L19.0571 134.307Z" fill="white"/>
<path opacity="0.2" d="M19.7119 140.421L144.893 124.404L145.693 129.064L20.2211 145.663L19.7119 140.421Z" fill="#231F20"/>
<path d="M21.6758 128.699L23.8579 145.153L6.91007 147.41C5.38258 147.629 3.92783 146.536 3.70961 145.008L2.18213 133.723C1.96391 132.121 3.12771 130.738 4.6552 130.519L21.6758 128.699Z" fill="#68838C"/>
<path d="M8.94672 128.189L11.5653 147.992L2.83676 148.648L0 130.301L8.94672 128.189Z" fill="#C95B59"/>
<path d="M12.8018 127.899L15.493 148.066L19.7118 147.702L16.8751 127.535" stroke="#506D75" stroke-miterlimit="10"/>
<path d="M145.402 124.478C143.948 124.915 142.347 123.968 141.911 122.366C141.475 120.765 142.275 119.09 143.729 118.653C145.184 118.217 146.784 119.163 147.221 120.765C147.73 122.439 146.93 124.041 145.402 124.478Z" fill="#EEEAED"/>
<path d="M145.984 128.991C144.602 129.355 143.22 128.7 142.857 127.389C142.493 126.152 143.293 124.768 144.675 124.404C146.057 124.04 147.439 124.696 147.803 126.006C148.094 127.244 147.294 128.554 145.984 128.991Z" fill="#EEEAED"/>
<path d="M144.384 118.725C143.002 119.089 141.62 118.216 141.183 116.76C140.747 115.304 141.547 113.775 142.856 113.411C144.238 113.047 145.62 113.92 146.057 115.376C146.493 116.832 145.693 118.361 144.384 118.725Z" fill="#EEEAED"/>
<path d="M53.3166 239.729C56.0079 228.663 58.4809 217.596 59.9357 206.312C60.3721 202.671 60.8085 199.104 61.3177 195.464C61.8269 191.532 62.4815 187.819 63.2816 182.286C63.5726 180.32 67.7186 180.32 69.6825 179.883C74.6287 178.718 79.6476 179.374 84.6664 179.446C86.4849 179.446 88.958 178.718 90.1945 180.32C91.5038 182.067 91.431 185.052 91.5765 187.091C92.5948 205.219 90.4127 223.275 89.9035 241.331C89.6853 248.903 89.8308 256.474 90.1945 264.046C90.2672 265.575 89.9035 267.031 88.1578 267.249C87.3577 267.322 85.7575 267.249 85.0301 266.885C83.4299 265.939 82.4116 262.881 81.8297 261.279C81.0296 258.95 80.5931 256.474 80.1567 254.072C79.3566 249.558 78.9929 244.971 78.702 240.457C77.6836 225.605 76.9563 215.995 78.0473 199.832C76.5198 208.568 76.5926 214.247 73.9013 222.62C71.3555 230.628 67.7186 238.127 63.8635 245.553C61.7541 249.703 59.7175 253.853 57.4626 257.858C56.2988 259.896 55.135 261.862 53.753 263.755C52.5892 265.429 51.6436 267.104 49.4615 267.395C48.5159 267.541 47.5703 267.395 46.6247 267.249C46.3338 267.249 46.0428 267.177 45.9701 266.958C45.8973 266.813 45.8973 266.667 45.9701 266.449C46.6247 262.007 48.8068 257.712 49.9706 253.416C51.2072 248.83 52.2255 244.243 53.3166 239.729Z" fill="#037FFB"/>
<path d="M61.4632 182.794C61.7541 182.576 62.0451 182.43 62.4088 182.285C63.0634 181.994 63.718 181.848 64.3727 181.702C65.9002 181.338 65.7547 182.285 66.1184 183.377C66.4821 184.687 67.2822 185.925 67.7913 187.236C68.3732 188.619 69.3188 189.857 67.7186 190.73C66.9185 191.167 65.9729 191.458 65.0273 191.604C64.8091 191.604 64.6636 191.604 64.5181 191.531C64.3727 191.458 64.2272 191.313 64.1545 191.167C63.4271 190.293 62.7724 189.347 62.1178 188.4C61.1722 187.09 60.4448 185.925 60.7358 184.251C60.8085 183.959 60.8813 183.595 61.0268 183.377C61.0268 183.158 61.245 182.94 61.4632 182.794Z" fill="#FAB594"/>
<path d="M62.2636 192.187C64.3002 192.333 66.2641 192.26 68.0826 191.022C69.6101 189.93 70.7739 188.401 71.5012 186.654C71.6467 186.217 70.9921 185.999 70.7739 186.435C70.1192 188.037 69.0282 189.493 67.6462 190.44C66.9915 190.876 66.3369 191.168 65.5368 191.313C64.4457 191.532 63.3546 191.459 62.3363 191.386C61.8272 191.386 61.8272 192.114 62.2636 192.187Z" fill="#037FFB"/>
<path d="M91.2128 194.881C90.2672 195.026 89.3943 195.026 88.7397 194.225C88.2305 193.716 87.9396 193.06 87.6486 192.405C86.7758 190.439 86.2666 188.183 85.9756 186.071C85.9029 185.634 85.1755 185.78 85.2483 186.29C85.612 188.619 86.1211 191.022 87.2122 193.206C87.5759 193.861 87.9396 194.517 88.5215 195.026C89.3943 195.827 90.4126 195.754 91.5037 195.609C91.8674 195.536 91.6492 194.808 91.2128 194.881Z" fill="#037FFB"/>
<path opacity="0.2" d="M84.7391 179.447C84.6664 179.447 84.5937 179.447 84.5937 179.447C79.6475 179.374 74.5559 178.791 69.6097 179.883C67.6458 180.32 63.4998 180.32 63.2088 182.286C62.9906 183.888 62.7724 185.344 62.5542 186.654C63.427 187.382 64.6636 187.965 65.5364 188.329C68.8096 189.712 72.301 190.513 75.7924 191.168C79.793 191.823 85.2483 191.168 87.3577 195.537C88.3033 197.575 88.376 199.905 88.4488 202.162C88.667 212.791 88.8124 223.639 87.9396 234.342C87.5032 239.802 86.7031 245.19 85.5393 250.504C84.5937 254.727 82.9934 259.241 82.848 263.682C83.4299 264.993 84.1572 266.303 85.1028 266.886C85.8302 267.322 87.4304 267.395 88.2305 267.25C89.9035 267.031 90.3399 265.575 90.2672 264.046C89.9035 256.474 89.758 248.903 89.9762 241.331C90.4854 223.275 92.6675 205.147 91.6492 187.091C91.5765 186.217 91.5765 185.125 91.431 184.106C89.6853 181.922 87.285 180.393 84.7391 179.447Z" fill="#231F20"/>
<path d="M93.2497 135.836C92.8133 136.127 92.3041 136.418 91.9404 136.782C90.4129 138.384 90.8494 141.515 93.0315 142.461C95.5773 143.553 98.705 142.825 101.251 142.097C107.361 140.422 113.107 137.729 118.635 134.671C119.435 134.234 120.672 133.724 121.545 133.069C121.981 132.705 122.345 132.341 122.563 131.904L93.2497 135.836Z" fill="#FAB594"/>
<path d="M93.9044 146.83C93.468 144.574 92.8133 142.317 91.9405 140.132C90.9221 137.657 89.3219 134.745 86.9216 133.362C84.7395 132.051 80.4479 133.289 77.9749 133.871C75.72 134.381 72.2286 135.109 70.4102 136.638C68.6645 138.021 68.8827 141.588 69.1009 143.627C69.3191 145.957 69.901 148.287 70.1192 150.616C70.4829 154.912 69.6828 159.207 68.6645 163.43C67.4279 168.454 65.9732 173.404 64.082 178.209C63.791 178.938 63.5001 179.666 63.5728 180.394C63.7183 181.704 64.8821 182.651 66.0459 183.306C73.4651 187.674 82.5573 187.019 90.8494 186.582C91.504 186.582 92.3042 186.509 92.8133 186.072C93.5407 185.563 93.7589 184.689 93.9771 183.815C94.9954 179.229 95.0682 174.496 94.9954 169.837C94.9227 162.338 95.4319 154.329 93.9044 146.83Z" fill="#DFEAE5"/>
<path d="M81.1751 135.618C79.5021 135.108 77.9019 134.526 76.2289 133.943C76.0834 133.87 75.8652 133.798 75.7925 133.652C75.4288 133.288 75.5015 132.56 75.5015 132.05C75.5015 131.468 75.5015 130.885 75.5015 130.23C75.5743 129.138 75.7925 128.046 75.7198 126.954C75.7198 126.08 75.7198 125.134 76.0834 124.333C76.5926 123.386 77.5382 122.804 78.5565 122.586C79.5748 122.367 80.6659 122.367 81.6842 122.44C81.9752 122.44 82.3389 122.513 82.5571 122.658C83.3572 123.314 83.139 124.624 83.2845 125.571C83.4299 126.881 83.7209 128.192 84.0118 129.502C84.1573 130.085 84.3028 130.74 84.4483 131.322C84.5937 131.832 84.8119 132.414 84.5937 132.924C84.1573 133.943 83.2845 134.89 82.4116 135.545C82.2661 135.618 82.1934 135.691 82.0479 135.763C81.9024 135.763 81.757 135.763 81.6115 135.691C81.5388 135.691 81.3205 135.691 81.1751 135.618Z" fill="#FAB594"/>
<path d="M71.0645 118.435C71.5737 122.221 73.6831 125.861 76.9563 127.973C79.4293 129.575 83.1389 130.375 85.8302 128.774C89.4671 126.59 90.1945 121.202 90.049 117.416C89.9763 112.902 88.1578 107.806 83.7936 105.767C80.7386 104.311 75.8652 104.238 73.6831 107.151C71.4282 110.208 70.5554 114.431 71.0645 118.435Z" fill="#FAB594"/>
<path d="M113.616 115.233C115.362 116.834 116.598 118.873 114.78 119.965C114.198 120.329 113.47 119.747 113.107 119.164C112.743 118.582 112.379 117.926 111.725 117.708C111.216 117.562 110.706 117.854 110.27 118.145C108.597 119.091 106.851 120.111 105.178 121.057C104.887 121.203 104.596 121.348 104.306 121.421C103.36 121.639 102.342 120.984 101.905 120.111C101.469 119.237 101.687 118.145 102.051 117.271C103.505 114.068 105.76 113.777 108.888 113.704C110.779 113.631 112.234 113.922 113.616 115.233Z" fill="#FAB594"/>
<path d="M85.0299 105.549C84.0843 105.695 83.2115 105.986 82.4114 106.496C80.8111 107.588 79.8655 109.335 78.4835 110.573C77.1743 111.738 75.5013 112.466 73.8283 113.267C73.5374 113.412 73.2464 113.558 73.0282 113.849C72.7373 114.213 72.7373 114.65 72.7373 115.087C72.8827 117.49 74.483 119.674 73.2464 122.076C73.101 122.295 72.9555 122.586 72.7373 122.731C71.3553 123.751 70.1187 121.13 69.6095 120.183C68.8822 118.727 68.4458 117.198 68.3003 115.597C68.0093 112.393 68.5912 108.17 71.137 106.059C73.6101 103.948 76.7378 102.564 80.011 102.564C81.1021 102.564 82.2659 102.71 83.2842 103.001C83.9388 103.22 84.3753 103.438 84.8117 103.875C85.1026 104.093 85.3936 104.312 85.6118 104.603C85.6845 104.676 85.9755 105.477 85.9755 105.477C85.6118 105.477 85.3209 105.477 85.0299 105.549Z" fill="#0D0468"/>
<g opacity="0.2">
<path opacity="0.2" d="M77.7566 200.341C77.3202 201.651 77.0293 203.107 76.6656 204.418C74.9926 210.606 72.7377 216.94 69.61 222.619C66.1914 228.88 61.3179 233.758 56.7355 239.146C55.1353 241.039 53.535 243.005 52.0803 245.043C51.4256 247.81 50.771 250.504 50.0436 253.27C48.8798 257.566 46.6977 261.934 46.0431 266.302C46.0431 266.448 45.9703 266.666 46.0431 266.812C46.1885 267.03 46.4795 267.103 46.6977 267.103C47.6433 267.249 48.5889 267.322 49.5345 267.249C51.7166 266.958 52.6622 265.283 53.826 263.608C55.1353 261.716 56.3718 259.75 57.5356 257.711C59.8632 253.707 61.8271 249.484 63.9365 245.407C67.7189 237.981 71.4285 230.409 73.9743 222.474C76.6656 214.028 76.5928 208.349 78.1203 199.686C78.0476 199.758 77.7566 200.268 77.7566 200.341Z" fill="#231F20"/>
<path opacity="0.2" d="M78.1201 199.758C78.1201 199.903 78.1201 199.976 78.1201 200.049C78.1201 199.903 78.1928 199.758 78.1201 199.758Z" fill="#231F20"/>
</g>
<path d="M77.4657 147.775C77.4657 148.94 77.4657 150.105 77.5384 151.197C77.5384 151.925 77.5384 152.653 77.3929 153.381C77.2475 154.109 76.811 154.765 76.1564 155.129C74.8471 155.857 72.7378 154.765 72.0104 153.6C70.8466 151.852 70.4829 149.887 70.4102 147.775C72.7378 147.775 75.1381 147.775 77.4657 147.775Z" fill="#72C384"/>
<path d="M72.8539 124.855C73.7584 124.332 73.7914 122.694 72.9277 121.197C72.0641 119.7 70.6306 118.91 69.7261 119.432C68.8216 119.955 68.7885 121.593 69.6522 123.09C70.5159 124.587 71.9493 125.377 72.8539 124.855Z" fill="#FAB594"/>
<path d="M84.7392 132.195L82.2661 135.763L85.9757 138.893V132.851L84.7392 132.195Z" fill="white"/>
<path d="M72.1558 135.107L75.5744 132.777L82.2663 135.762L80.5206 140.131L72.1558 135.107Z" fill="white"/>
<path d="M65.0271 183.669C63.1359 183.742 61.8267 182.14 61.8267 180.175C61.8267 179.447 61.8267 178.791 61.8267 178.063C62.1176 172.603 64.3725 167.506 66.2636 162.483C67.9366 158.042 68.9549 153.382 68.8095 148.65C68.7367 144.864 68.0094 141.078 66.5546 137.511C66.5546 137.438 66.4819 137.365 66.4819 137.292C66.4819 137.22 66.5546 137.147 66.5546 137.147C67.4275 136.055 68.5913 135.399 69.7551 134.744C70.9916 134.016 72.2281 133.288 73.6101 132.851C73.8284 132.778 74.7739 132.342 74.9922 132.414C76.0832 132.706 77.3198 136.2 77.7562 137.147C82.3386 147.412 80.5202 159.571 75.7923 169.472C73.5374 174.277 70.8461 179.01 67.0638 182.723C66.7728 183.014 66.4091 183.305 66.0454 183.451C65.7545 183.596 65.3908 183.669 65.0271 183.669Z" fill="#0D0468"/>
<path d="M54.335 155.493C53.0257 157.677 51.4982 160.08 51.0618 162.628C50.4799 165.831 51.3527 168.816 52.3711 171.874C54.2622 177.553 57.0263 182.868 60.3722 187.891C60.5177 188.11 60.6631 188.328 60.9541 188.328C61.0996 188.328 61.1723 188.255 61.245 188.182C62.8453 187.09 64.4455 186.071 66.0457 184.979C66.2639 184.833 66.5549 184.615 66.7004 184.324C66.9186 183.887 66.7004 183.45 66.5549 183.013C65.1001 179.373 63.6454 175.66 62.1906 172.02C61.536 170.418 60.8814 168.743 60.7359 166.996C60.5177 164.448 61.3178 161.827 62.6998 159.57C64.0818 157.386 65.9002 155.493 67.7914 153.746C68.4461 153.09 69.1734 152.508 69.5371 151.634C70.7737 148.94 70.5554 145.81 70.2645 142.97C70.119 141.442 70.3372 136.418 67.9369 136.418C67.5005 136.418 67.0641 136.709 66.7731 137C64.0091 139.112 62.1906 142.17 60.4449 145.155C58.5538 148.358 56.5171 151.416 54.6987 154.692C54.6987 154.91 54.5532 155.202 54.335 155.493Z" fill="#0D0468"/>
<path d="M95.9406 174.641C96.0861 167.142 96.1588 159.643 95.7224 152.144C95.6497 150.251 95.5042 148.358 95.286 146.465C95.1405 145.227 94.995 145.3 95.9406 144.645C96.5953 144.208 97.7591 143.99 98.4864 143.698C103.069 142.024 107.651 140.349 112.234 138.602C116.307 137 120.308 135.035 123.217 131.686C118.998 132.632 114.707 132.996 110.415 133.36C104.596 133.87 98.8501 134.452 93.0311 134.307C90.6308 134.234 88.085 133.87 85.9756 132.778C86.7757 134.962 87.794 137.364 87.8668 139.621C87.9395 142.315 88.1577 145.082 88.2305 147.775C88.4487 153.09 88.5214 158.478 88.5214 163.793C88.5214 172.092 87.9395 180.101 87.1394 188.255C88.9578 188.401 90.7763 188.255 92.522 187.746C92.8129 187.673 93.1766 187.6 93.3948 187.381C93.613 187.163 93.7585 186.872 93.904 186.581C94.8496 184.324 95.5042 181.994 95.7952 179.519C95.9406 177.99 95.9406 176.315 95.9406 174.641Z" fill="#0D0468"/>
<path d="M75.9379 169.398C80.5931 159.569 82.4843 147.338 77.9018 137.073C77.4654 136.126 76.2289 132.559 75.1378 132.34C74.9196 132.267 74.0468 132.704 73.7558 132.777C73.6831 132.777 73.6103 132.85 73.5376 132.85C73.6103 133.287 73.9013 133.651 74.1195 134.233C74.5559 135.252 74.8469 136.344 75.0651 137.437C76.1561 142.242 76.2289 147.192 75.4288 151.998C76.1561 151.925 76.8108 151.998 77.4654 152.216C77.3927 152.944 76.8108 153.526 76.4471 154.255C75.7925 155.565 76.0107 157.167 76.2289 158.696C76.6653 162.554 76.4471 166.486 75.5015 170.272C75.647 170.053 75.7925 169.762 75.9379 169.398Z" fill="#274169"/>
<path d="M92.4492 152.946C91.9401 149.524 91.4309 146.029 90.9217 142.607C90.4853 139.331 89.3215 136.492 87.9395 133.652C87.2121 133.434 86.5575 133.216 85.9756 132.852C86.7757 135.036 87.794 137.438 87.8668 139.695C87.9395 142.389 88.1577 145.156 88.2305 147.849C88.4487 153.164 88.5214 158.552 88.5214 163.867C88.5214 165.323 88.5214 166.852 88.4487 168.308C89.467 165.104 90.9945 162.046 91.4309 158.77C91.6491 156.804 91.5036 154.766 91.3582 152.8C91.6491 152.946 92.0855 153.019 92.4492 152.946Z" fill="#274169"/>
<path d="M82.9934 137.874C84.0845 140.713 84.3754 143.844 84.5936 146.902C84.8118 149.96 84.8118 153.09 84.7391 156.148C84.5936 162.337 84.1572 168.452 82.8479 174.568C82.1205 177.917 81.3204 181.266 80.7385 184.688C80.6658 185.125 81.3204 185.343 81.4659 184.906C82.557 178.791 84.3027 172.82 84.9573 166.705C85.2483 163.647 85.3937 160.516 85.4665 157.459C85.6119 154.255 85.6119 151.052 85.3937 147.848C85.1755 144.499 84.8846 140.932 83.7208 137.728C83.5026 137.219 82.7752 137.437 82.9934 137.874Z" fill="white"/>
</g>
<ellipse cx="141.5" cy="298" rx="132.5" ry="10" fill="#E9F1FD"/>
<defs>
<clipPath id="clip0">
<rect width="258" height="238" fill="white" transform="translate(0 35)"/>
</clipPath>
</defs>
</svg>
