<svg width="269" height="308" viewBox="0 0 269 308" fill="none" xmlns="http://www.w3.org/2000/svg">
<path d="M237.824 230.303C232.302 236.067 227.07 239.785 222.942 242.725C174.403 277.264 116.969 267.195 104.762 264.736C86.741 261.104 51.8913 254.091 26.7011 224.711C-11.4136 180.267 -5.47451 110.247 24.0852 64.025C29.4914 55.5703 58.0532 8.64711 116.107 1.12441C151.238 -3.42956 192.191 5.75524 221.857 30.3986C284.106 82.1159 279.679 186.598 237.824 230.303Z" fill="#FFF5EF"/>
<ellipse cx="134.5" cy="298" rx="132.5" ry="10" fill="#E9F1FD"/>
<path d="M168.888 270.86H98.1113C98.1113 270.86 116.621 266.279 116.621 260.884C116.621 255.489 116.621 192.15 116.621 192.15H150.395C150.395 192.15 150.395 252.791 150.395 260.884C150.379 268.977 168.888 270.86 168.888 270.86Z" fill="#DADADA"/>
<path d="M249 243.261C249 247.731 245.372 251.354 240.896 251.354H26.1039C21.6284 251.354 18 247.731 18 243.261V91.0929C18 86.6234 21.6284 83 26.1039 83H240.896C245.372 83 249 86.6234 249 91.0929V243.261Z" fill="#037FFB"/>
<path d="M244.684 215.615C244.684 219.159 241.184 222.032 236.884 222.032H30.1156C25.7999 222.032 22.3154 219.159 22.3154 215.615V95.0204C22.3154 91.4767 25.8159 88.6035 30.1156 88.6035H236.868C241.184 88.6035 244.668 91.4767 244.668 95.0204V215.615H244.684Z" fill="#D8E4FF"/>
<path d="M18 226.068V243.26C18 247.729 21.6284 251.353 26.1039 251.353H240.896C245.372 251.353 249 247.729 249 243.26V226.068H18Z" fill="#0D0367"/>
<path d="M168.904 270.859H98.1113V275.983H168.904V270.859Z" fill="#C6C6C6"/>
<path d="M230.81 93.9512H36.1899V107.503H230.81V93.9512Z" fill="white"/>
<path d="M224.545 97.4136C223.394 96.0249 221.284 95.8174 219.845 96.9347C218.407 98.0521 218.183 100.095 219.35 101.484C220.389 102.713 222.179 103.016 223.57 102.282C223.57 102.298 223.586 102.298 223.586 102.314L225.983 105.171C226.191 105.411 226.543 105.443 226.798 105.251C227.054 105.06 227.086 104.708 226.878 104.469L224.481 101.596C224.465 101.58 224.465 101.58 224.449 101.564C225.504 100.399 225.584 98.6427 224.545 97.4136ZM223.522 101.324C222.451 102.17 220.852 102.011 219.989 100.957C219.126 99.9197 219.286 98.3873 220.357 97.5413C221.428 96.6953 223.026 96.8549 223.889 97.8925C224.768 98.946 224.609 100.478 223.522 101.324Z" fill="#DADADA"/>
<path d="M212.109 115.307H54.9072V216.508H212.109V115.307Z" fill="white"/>
<path d="M208.801 118.611H58.2158V203.706H208.801V118.611Z" fill="#037FFB"/>
<path d="M192.097 210.06C192.097 211.896 190.611 213.381 188.773 213.381H79.4106C77.5724 213.381 76.0859 211.896 76.0859 210.06C76.0859 208.225 77.5724 206.74 79.4106 206.74H188.789C190.611 206.74 192.097 208.225 192.097 210.06Z" fill="#91B3FA"/>
<path d="M120.841 207.951H80.6894C79.123 207.951 77.8442 208.893 77.8442 210.058C77.8442 211.223 79.107 212.165 80.6894 212.165H120.841V207.951Z" fill="#E6332A"/>
<path d="M58.2158 213.635V206.484L62.7233 210.06L58.2158 213.635Z" fill="#91B3FA"/>
<path d="M68.0618 206.484H66.1597V213.62H68.0618V206.484Z" fill="#91B3FA"/>
<path d="M71.2424 206.484H69.3403V213.62H71.2424V206.484Z" fill="#91B3FA"/>
<path d="M197.66 209.038V206.819H201.64V205.67H196.445V209.038H197.66Z" fill="#91B3FA"/>
<path d="M207.202 209.038H208.401V205.67H203.206V206.819H207.202V209.038Z" fill="#91B3FA"/>
<path d="M207.202 211V213.299H203.206V214.448H208.401V211H207.202Z" fill="#91B3FA"/>
<path d="M197.66 211H196.445V214.448H201.64V213.299H197.66V211Z" fill="#91B3FA"/>
<path d="M183.946 203.706C181.356 198.152 177.136 191.288 170.951 187.297C163.662 182.588 143.33 180.625 143.33 180.625H122.663C122.663 180.625 103.754 180.625 92.965 190.585C88.4894 194.72 85.3566 199.604 83.2627 203.722H183.946V203.706Z" fill="#BDD0FB"/>
<path d="M143.378 180.625C143.378 180.625 141.972 184.312 133.085 184.312C124.469 184.312 122.312 180.625 122.312 180.625L125.061 167.456L140.166 166.594L143.378 180.625Z" fill="#F9C6BF"/>
<path d="M143.842 142.874C143.842 140.975 141.604 131.445 131.774 131.445C120.33 131.445 119.738 140.959 119.738 142.874C119.706 150.68 117.245 165.748 126.515 170.25C127.842 170.888 130.288 171.064 131.79 171.08C133.293 171.064 136.298 170.984 138.695 169.531C147.215 164.391 143.89 150.68 143.842 142.874Z" fill="#F9C6BF"/>
<path d="M147.614 137.974C147.263 132.1 147.55 126.704 138.072 124.262C128.897 121.884 117.485 127.487 117.485 133.185C111.571 132.802 117.948 150.712 117.948 150.712C117.948 150.712 119.866 155.947 119.93 153.106C119.962 151.334 121.289 149.483 121.289 149.483C121.289 149.483 119.243 141.693 121.609 137.862C125.573 131.445 130 136.729 139.351 138.82C144.865 140.049 143.043 148.445 143.043 148.445C143.043 148.445 144.37 149.754 144.402 151.526C144.45 154.351 145.968 149.02 145.968 149.02C145.968 149.02 147.934 143.353 147.614 137.974Z" fill="#093B59"/>
<path d="M142.1 152.069C139.718 152.388 143.49 155.181 145.281 154.91C146.559 154.718 147.95 153.154 147.934 150.951C147.918 148.541 146.224 147.551 144.945 147.727C142.723 148.078 143.73 151.861 142.1 152.069Z" fill="#F9C6BF"/>
<path d="M126.308 148.446C126.308 149.021 125.956 149.484 125.54 149.484C125.125 149.484 124.789 149.021 124.789 148.446C124.789 147.871 125.125 147.393 125.54 147.393C125.972 147.393 126.308 147.855 126.308 148.446Z" fill="#093B59"/>
<path d="M137.832 148.446C137.832 149.021 138.168 149.484 138.583 149.484C138.999 149.484 139.351 149.021 139.351 148.446C139.351 147.871 139.015 147.393 138.583 147.393C138.168 147.393 137.832 147.855 137.832 148.446Z" fill="#093B59"/>
<path d="M128.545 160.864C130.368 163.003 135.674 162.891 136.569 160.369" stroke="#E9A37C" stroke-width="6.1186" stroke-miterlimit="10" stroke-linecap="round"/>
<path d="M129.249 170.201C132.653 172.037 136.921 170.361 136.921 170.361" stroke="#E9ABA3" stroke-width="4.6186" stroke-miterlimit="10" stroke-linecap="round"/>
<path d="M132.589 148.238C132.365 150.17 132.541 154.863 132.541 154.863" stroke="#E9ABA3" stroke-width="4.6186" stroke-miterlimit="10" stroke-linecap="round"/>
<path d="M130.847 155.708C130.847 155.708 132.749 154.352 134.251 155.565" stroke="#E9A37C" stroke-width="4.0501" stroke-miterlimit="10" stroke-linecap="round"/>
<path d="M136.921 143.337C138.232 142.619 140.134 142.571 141.237 143.848" stroke="#093B59" stroke-width="4.0501" stroke-miterlimit="10" stroke-linecap="round"/>
<path d="M127.427 143.337C126.116 142.619 124.214 142.571 123.111 143.848" stroke="#093B59" stroke-width="4.0501" stroke-miterlimit="10" stroke-linecap="round"/>
<path d="M121.049 151.973C123.43 152.308 119.69 155.07 117.9 154.782C116.621 154.575 115.214 152.995 115.214 150.808C115.198 148.397 116.893 147.424 118.171 147.615C120.393 147.966 119.418 151.749 121.049 151.973Z" fill="#F9C6BF"/>
<path d="M133.053 170.201C144.897 170.201 144.929 155.596 144.449 154.861C143.97 154.127 142.228 157.192 140.166 157.016C138.104 156.841 136.713 154.207 132.445 154.207C126.803 154.207 126.739 157.543 124.022 157.272C121.209 157.016 120.33 154.319 119.706 154.83C119.083 155.372 118.284 170.201 133.053 170.201Z" fill="white"/>
<path d="M138.599 158.74C138.424 158.947 138.136 158.915 137.928 158.692C134.843 155.387 130.176 155.387 127.091 158.692C126.883 158.915 126.58 158.947 126.42 158.74C126.244 158.532 126.292 158.149 126.516 157.909C129.936 154.254 135.099 154.254 138.52 157.909C138.727 158.165 138.775 158.548 138.599 158.74Z" fill="#D0D0D0"/>
<path d="M139.351 162.666C134.811 163.799 130.128 163.799 125.588 162.666C125.7 162.027 125.812 161.373 125.924 160.734C130.256 161.82 134.715 161.82 139.031 160.734C139.127 161.373 139.239 162.027 139.351 162.666Z" fill="#E3EFF7"/>
<path d="M138.072 165.939C134.364 166.865 130.543 166.865 126.851 165.939C126.963 165.301 127.075 164.662 127.187 164.008C130.671 164.886 134.268 164.886 137.752 164.008C137.848 164.662 137.96 165.301 138.072 165.939Z" fill="#E3EFF7"/>
<path d="M153.672 182.748L137.832 192.405L134.3 184.28L142.196 175.453L153.672 182.748Z" fill="#BDD0FB"/>
<path d="M113.808 181.503L130.032 192.405L134.3 184.28L123.111 175.453L113.808 181.503Z" fill="#BDD0FB"/>
<path d="M172.213 160.863C176.017 172.021 164.668 179.3 164.668 179.3C164.668 179.3 183.849 177.688 187.302 163.8L172.213 160.863Z" fill="white"/>
<path d="M231.417 140.321C231.417 156.411 214.634 169.468 193.935 169.468C173.236 169.468 156.453 156.427 156.453 140.321C156.453 124.231 173.236 111.174 193.935 111.174C214.634 111.19 231.417 124.231 231.417 140.321Z" fill="white"/>
<path d="M183.849 140.321C183.849 142.715 181.899 144.678 179.486 144.678C177.072 144.678 175.122 142.731 175.122 140.321C175.122 137.91 177.072 135.963 179.486 135.963C181.899 135.979 183.849 137.926 183.849 140.321Z" fill="#093B59"/>
<path d="M198.235 140.321C198.235 142.715 196.285 144.678 193.871 144.678C191.458 144.678 189.508 142.731 189.508 140.321C189.508 137.91 191.458 135.963 193.871 135.963C196.285 135.979 198.235 137.926 198.235 140.321Z" fill="#093B59"/>
<path d="M212.732 140.321C212.732 142.715 210.782 144.678 208.369 144.678C205.955 144.678 204.005 142.731 204.005 140.321C204.005 137.91 205.955 135.963 208.369 135.963C210.782 135.979 212.732 137.926 212.732 140.321Z" fill="#093B59"/>
</svg>
