<svg width="271" height="308" viewBox="0 0 271 308" fill="none" xmlns="http://www.w3.org/2000/svg">
<path d="M239.824 230.303C234.302 236.067 229.07 239.785 224.942 242.725C176.403 277.264 118.969 267.195 106.762 264.736C88.741 261.104 53.8913 254.091 28.7011 224.711C-9.41358 180.267 -3.47451 110.247 26.0852 64.025C31.4914 55.5703 60.0532 8.64711 118.107 1.12441C153.238 -3.42956 194.191 5.75524 223.857 30.3986C286.106 82.1159 281.679 186.598 239.824 230.303Z" fill="#FFF5EF"/>
<path d="M185.885 54.5345L102.653 46.1621L19.2862 54.0481L17.752 237.553L101.08 233.749L184.342 239.518L267.593 232.576L269.118 51.0063L185.885 54.5345Z" fill="#BDD0FB"/>
<path d="M102.912 229.581L23.7261 233.185L25.1836 59.1108L104.398 51.6348L102.912 229.581Z" fill="#91B3FA"/>
<path d="M182.011 235.054L102.912 229.581L104.398 51.6348L183.478 59.5685L182.011 235.054Z" fill="#91B3FA"/>
<path d="M261.111 228.466L182.011 235.056L183.478 59.5697L262.559 56.2227L261.111 228.466Z" fill="#91B3FA"/>
<path opacity="0.47" d="M104.453 51.6311L102.66 51.6152L101.063 229.618L102.856 229.634L104.453 51.6311Z" fill="white"/>
<path d="M160.925 163.291C160.609 165.77 160.35 168.268 160.148 170.757C160.101 171.348 160.216 172.159 160.791 172.216C161.136 172.254 161.433 171.958 161.664 171.691C162.661 170.557 163.725 169.098 163.246 167.648C163.064 167.114 162.68 166.657 162.536 166.113C162.316 165.293 162.661 164.416 162.575 163.558C162.488 162.709 161.462 161.87 160.887 162.49L160.925 163.291Z" fill="#BDD0FB"/>
<path d="M96.8418 81.6171C92.9199 79.5573 90.4651 79.2808 86.2459 79.7385C82.2665 80.1676 79.5816 82.1606 76.8487 84.9927C76.2254 85.6411 75.6213 86.3372 74.8159 86.7091C71.4405 88.2635 67.1638 87.9488 63.7118 89.4745C59.6077 91.2958 58.4475 96.96 54.7077 99.4584C52.5406 100.908 49.8078 101.089 47.4201 102.128C43.8914 103.664 42.2708 106.849 40.2667 109.957C39.0393 111.864 34.5037 115.135 34.7531 117.366C34.801 117.777 34.9736 118.158 35.1846 118.501C36.4311 120.504 38.301 120.714 40.2667 121.286C42.8653 122.039 44.4379 123.202 46.7393 124.823C49.1365 126.511 52.4064 127.989 52.6078 130.964C52.7036 132.347 52.0516 133.653 51.7352 135.008C50.3064 141.091 55.6187 146.555 60.7968 149.836C65.9748 153.125 72.0734 156.377 73.7227 162.394C73.8761 162.947 74.0008 163.538 74.4035 163.929C75.9186 165.407 77.0501 162.06 77.5008 161.002C77.798 160.315 77.5295 159.495 77.0693 158.914C76.609 158.332 75.9761 157.931 75.4104 157.455C73.5022 155.872 72.2556 153.459 72.0638 150.942C72.0351 150.618 72.0351 150.274 72.2173 150.007C73.1186 148.653 75.3528 148.1 76.446 146.469C78.0186 144.133 78.3734 141.911 78.6419 139.127C79.62 128.924 88.9692 132.538 94.8281 128.008C95.9212 127.169 96.7363 125.834 96.9281 124.48C97.0336 123.727 96.9473 122.973 96.6021 122.287C96.0267 121.124 94.8473 120.37 93.6199 120.036C92.3925 119.703 91.098 119.722 89.8322 119.75C88.6528 119.779 87.4733 119.798 86.2939 119.827C85.9487 119.836 85.5843 119.846 85.2679 119.989C84.8172 120.189 84.5103 120.628 84.261 121.066C83.4747 122.487 83.0816 124.137 83.1487 125.767C81.5953 126.311 80.0802 124.833 79.2364 123.393C78.2583 121.724 77.5487 119.884 77.1652 117.977C77.0117 117.243 76.9254 116.422 77.2898 115.774C77.4912 115.412 77.8172 115.145 78.1432 114.906C79.4665 113.924 80.9912 113.19 82.6117 113.009C85.3733 112.703 88.0679 114.067 90.3309 115.726C92.5076 117.319 96.0555 119.235 98.5007 116.937C99.7664 115.755 99.7856 113.6 98.9034 112.093C97.4747 109.643 93.8404 108.365 91.4624 107.135C90.35 106.553 89.6404 105.371 89.324 104.131C89.0076 102.891 89.0363 101.594 89.0747 100.317C92.3541 98.9816 96.2089 99.2486 99.2966 101.003C99.7377 101.251 100.198 101.604 100.255 102.119C100.313 102.643 99.9007 103.082 99.5842 103.502C96.7459 107.192 99.2966 110.177 102.634 112.255C102.71 102.891 102.739 93.4795 102.739 84.1059C100.706 83.4479 98.7404 82.6183 96.8418 81.6171Z" fill="#BDD0FB"/>
<path d="M126.51 89.5504C126.05 88.9401 125.148 89.0927 124.391 89.0927C121.993 89.1117 120.085 87.0329 117.784 86.3464C116.576 85.9935 115.3 86.0317 114.044 86.0126C110.209 85.9554 106.392 85.307 102.739 84.1055C102.729 93.4791 102.71 102.891 102.633 112.255C104.714 113.552 107.102 114.505 108.684 115.058C110.362 115.65 111.963 116.622 113.757 116.25C115.425 115.917 116.921 114.048 118.647 113.571C119.893 113.228 121.226 113.409 122.502 113.142C123.767 112.884 125.091 111.902 125.043 110.577C125.004 109.49 124.074 108.679 123.154 108.155C123.154 108.259 121.562 106.963 121.409 106.677C120.018 103.902 122.041 101.46 122.818 99.067C123.94 95.6056 122.281 93.5649 125.724 91.6482C126.443 91.2382 127.018 90.2274 126.51 89.5504Z" fill="#BDD0FB"/>
<path d="M79.9265 177.315C80.5306 178.574 81.0196 179.756 81.1539 180.767C81.7196 185.163 78.047 190.57 76.4744 194.584C76.0429 195.7 75.5922 196.892 75.7936 198.075C75.8799 198.57 76.0717 199.047 76.2635 199.514C77.6826 202.957 80.473 206.075 82.9566 208.726C83.8004 206.447 83.7429 200.983 83.5127 198.561C83.436 197.76 83.3018 196.921 83.5894 196.177C84.51 193.783 87.4922 190.484 89.5538 189.054C91.5771 187.652 94.2332 186.527 94.751 184.076C94.9524 183.132 94.7798 182.131 95.0771 181.215C95.2592 180.672 95.5853 180.186 95.8538 179.68C97.1579 177.182 97.9058 172.357 95.288 170.583C92.3634 168.6 88.2209 171.508 85.7182 168.266C85.3442 167.78 85.0566 167.208 84.6251 166.769C83.8292 165.949 82.6018 165.691 81.4895 165.882C74.0772 167.16 77.721 172.71 79.9265 177.315Z" fill="#BDD0FB"/>
<path d="M126.366 140.995C128.706 142.531 132.733 139.164 134.22 135.217C134.402 134.721 134.575 134.206 134.92 133.815C135.61 133.004 136.799 132.9 137.835 133.052C138.87 133.205 139.906 133.548 140.942 133.405C142.428 133.205 143.665 132.032 144.355 130.659C145.046 129.285 145.305 127.731 145.544 126.205C146.647 125.929 147.836 126.034 148.872 126.511C149.677 126.873 150.464 127.683 150.243 128.551C150.137 128.952 149.84 129.266 149.562 129.562C148.69 130.497 147.874 131.479 147.127 132.518C146.666 133.157 146.216 133.996 146.561 134.711C147.501 136.657 149.227 135.646 148.737 138.43C148.114 141.92 143.511 143.341 146.139 147.508C147.098 149.034 148.853 149.949 150.617 150.026C151.883 150.083 153.446 149.406 153.455 148.109C153.465 147.718 153.321 147.327 153.436 146.955C153.59 146.478 154.117 146.24 154.596 146.164C156.179 145.916 157.703 146.736 159.17 147.403C159.611 147.604 160.139 147.794 160.561 147.546C161.922 146.745 161.289 146.078 163.14 145.897C164.722 145.744 166.573 147.003 167.474 148.242C167.685 148.538 167.887 148.929 167.752 149.272C167.637 149.568 167.302 149.73 167.139 149.997C166.87 150.445 167.139 151.075 167.57 151.37C168.002 151.666 168.539 151.733 169.047 151.837C171.425 152.343 171.483 154.67 173.161 155.833C174.522 156.777 178.003 156.968 177.696 154.25C177.581 153.258 176.613 152.438 176.776 151.456C176.92 150.588 177.869 150.121 178.713 150.016C179.566 149.902 180.467 149.988 181.225 149.577C181.733 149.31 182.117 148.843 182.577 148.5C185.415 146.373 192.137 148.176 194.314 150.56C196.347 152.781 196.577 156.624 199.195 158.064C198.888 155.108 197.44 152.286 195.235 150.369C194.832 150.016 194.381 149.673 194.17 149.167C193.988 148.748 193.998 148.271 194.026 147.813C194.141 145.468 194.592 143.293 195.215 141.1C195.139 141.358 196.874 136.609 195.628 137.505C197.862 135.894 202.733 133.252 205.533 133.424C206.991 133.51 208.429 134.378 209.043 135.741C209.656 137.105 209.282 138.917 208.084 139.765C206.933 140.576 205.332 140.423 204.152 141.205C203.021 141.958 202.541 143.589 203.069 144.867C203.807 143.827 204.91 143.074 206.137 142.788C207.777 142.407 209.637 142.807 211.047 141.873C212.092 141.186 212.639 139.87 212.648 138.592C212.658 137.315 212.207 136.084 211.593 134.978C211.152 134.177 210.615 133.414 210.376 132.518C209.992 131.097 210.443 129.543 211.248 128.313C214.23 123.755 219.744 121.781 224.845 123.459C225.181 123.574 225.545 123.717 225.728 124.041C225.986 124.499 225.737 125.09 225.843 125.614C226.015 126.434 227.233 126.749 227.751 126.101C228.115 125.652 228.086 125.013 228.23 124.451C228.585 122.992 230.033 122.096 231.443 121.676C233.169 121.171 237.79 118.815 238.26 121.924C238.299 122.2 238.289 122.487 238.404 122.734C238.73 123.44 239.804 123.335 240.322 122.763C241.386 121.59 241.569 119.673 242.595 118.358C243.506 117.204 244.848 116.508 245.605 115.211C247.495 112.007 246.056 107.821 242.777 106.276C239.632 104.788 235.978 105.446 232.574 106.076C230.234 106.505 222.189 108.173 221.614 104.264C221.566 103.94 221.575 103.606 221.422 103.32C221.24 102.967 220.847 102.786 220.607 102.462C220.3 102.061 220.291 101.498 220.128 101.022C219.533 99.2671 217.299 98.9428 215.496 98.9238C215.678 97.8367 215.774 96.5112 214.93 95.8342C214.451 95.4528 213.799 95.4146 213.195 95.386C211.622 95.3193 207.825 95.9009 206.521 94.9474C204.795 93.6887 205.984 91.5527 205.226 89.8267C204.421 87.9863 201.448 87.7288 201.113 85.7454C201.045 85.3163 201.122 84.8777 201.065 84.439C200.94 83.3806 200.106 82.5891 199.329 81.893C197.91 80.6343 196.308 79.2993 194.439 79.3469C194.084 79.633 194.4 80.2338 194.803 80.4531C195.196 80.6724 195.704 80.7773 195.906 81.1969C196.289 81.9883 195.187 82.6368 194.343 82.7989C194.304 83.9527 195.436 84.7251 196.308 85.4498C197.785 86.6799 198.83 88.444 199.224 90.3607C196.251 90.9138 193.202 91.0377 190.191 90.7421C186.566 90.3893 184.236 96.3014 179.94 94.6613C179.307 94.4229 178.741 93.9843 178.07 93.8508C176.402 93.5266 175.05 95.1572 173.544 95.9772C171.252 97.2264 168.452 96.578 165.998 95.7198C163.063 94.6899 159.506 93.2119 156.553 94.9855C155.45 95.653 154.568 96.6829 153.398 97.2169C150.943 98.3326 148.162 96.9594 145.487 96.7019C138.89 96.0535 134.929 102.69 132.781 108.212C132.455 109.051 132.168 109.928 132.206 110.834C132.244 111.74 132.695 112.674 133.491 113.037C134.68 113.59 136.051 112.712 136.828 111.635C137.605 110.557 138.075 109.241 139.024 108.326C139.973 107.411 141.709 107.115 142.457 108.212C142.821 108.746 142.84 109.451 142.84 110.109C142.84 111.358 142.85 112.608 142.85 113.857C142.85 114.543 142.85 115.258 142.581 115.888C142.131 116.937 141.047 117.518 140.04 118.014C137.854 119.101 135.677 120.188 133.491 121.275C132.753 121.638 132.005 122.019 131.381 122.553C128.533 125.033 130.442 128.456 128.246 130.84C127.354 131.803 125.887 132.089 125.158 133.186C124.621 133.996 124.621 135.045 124.65 136.027C124.698 138.821 125.388 140.347 126.366 140.995Z" fill="#BDD0FB"/>
<path d="M202.445 161.792C201.563 163.432 201.688 165.587 199.684 166.493C198.351 167.094 196.654 166.817 195.57 167.818C194.333 168.953 194.659 170.975 194.899 172.653C194.937 172.958 194.976 173.273 194.861 173.559C194.544 174.303 193.403 174.284 193.01 174.98C192.674 175.58 193.087 176.343 193.595 176.811C195.119 178.231 197.603 178.413 199.31 177.24C199.761 176.925 200.259 176.505 200.787 176.639C201.41 176.792 201.611 177.573 201.784 178.203C202.139 179.547 202.848 180.844 203.97 181.645C207.489 184.144 212.437 181.102 216.349 184.63C216.829 185.059 217.289 185.583 217.423 186.222C217.577 186.918 217.347 187.71 217.73 188.301C218.2 189.045 219.37 188.94 220.012 188.339C220.655 187.739 220.904 186.833 221.173 185.993C221.441 185.154 221.786 184.258 222.525 183.781C223.762 182.99 225.162 183.285 225.852 181.674C226.706 179.605 224.164 177.898 224.97 176.019C225.334 175.18 225.91 174.265 225.545 173.425C225.363 172.996 224.97 172.71 224.653 172.386C223.148 170.841 222.889 169.382 220.885 168.438C219.6 167.838 216.954 168.619 216.426 166.417C216.292 165.845 216.484 165.129 216.052 164.738C215.812 164.519 215.458 164.5 215.132 164.5C212.888 164.51 210.212 164.538 208.937 162.641C207.528 160.543 207.355 159.026 204.488 160.075C203.414 160.438 202.829 161.067 202.445 161.792Z" fill="#BDD0FB"/>
<path d="M135.524 150.255C135.054 150.922 134.795 151.723 134.296 152.372C132.906 154.193 132.302 152.582 130.739 153.201C130.192 153.411 129.713 153.793 129.157 153.926C128.016 154.193 126.884 153.411 125.705 153.411C121.188 153.392 123.557 160.858 125.743 162.289C126.146 162.556 126.654 162.556 127.133 162.556C128.62 162.537 130.116 162.527 131.602 162.508C132.024 162.508 132.484 162.508 132.829 162.756C133.903 163.519 132.877 165.397 133.529 166.57C133.97 167.371 135.006 167.524 135.888 167.686C137.758 168.039 138.161 170.127 139.302 171.414C140.769 173.074 142.169 173.741 143.003 176.144C143.492 177.575 143.665 179.119 144.317 180.483C145.65 183.277 149.111 184.793 151.988 183.83C154.865 182.867 156.811 179.558 156.294 176.487C155.996 174.695 154.989 173.121 154.289 171.453C152.88 168.067 153.829 163.948 157.741 163.3C158.729 163.138 159.976 163.08 160.35 162.127C160.877 160.754 158.835 159.142 159.678 157.941C159.985 157.511 160.57 157.359 160.839 156.901C161.203 156.291 160.791 155.499 160.283 155.004C159.784 154.508 159.151 154.079 158.94 153.392C157.77 149.54 153.935 151.943 151.374 152.458C149.092 152.906 147.788 152.62 145.889 151.485C142.955 149.711 138.496 146.002 135.524 150.255Z" fill="#BDD0FB"/>
<path d="M145.247 90.0086C145.583 89.3602 146.407 89.2076 147.127 89.16C149.581 88.9883 152.065 89.1504 154.481 89.6463C152.477 91.2673 150.253 92.9647 147.712 92.8789C146.561 92.8407 145.362 92.4307 144.279 92.8503C144.029 92.0684 144.164 91.1625 144.643 90.5045L145.247 90.0086Z" fill="#BDD0FB"/>
<path d="M116.835 119.75C119.347 121.79 128.188 119.063 124.065 116.431C123.394 116.002 122.598 115.878 121.821 115.754C120.776 115.592 119.711 115.43 118.676 115.649C117.64 115.869 116.633 116.555 116.327 117.595C116.029 118.586 116.269 119.292 116.835 119.75Z" fill="#BDD0FB"/>
<path d="M226.092 101.784C227.645 103.186 229.812 103.529 231.855 103.815C232.871 103.958 234.214 103.92 234.559 102.928C234.933 101.879 233.734 100.907 232.651 100.792C231.567 100.668 230.426 100.964 229.429 100.525C228.547 100.134 227.847 99.2093 226.878 99.2188C225.756 99.2284 225.075 100.916 225.862 101.736L226.092 101.784Z" fill="#BDD0FB"/>
<path d="M174.886 78.926C187.278 78.926 197.324 68.9358 197.324 56.6124C197.324 44.289 187.278 34.2988 174.886 34.2988C162.493 34.2988 152.447 44.289 152.447 56.6124C152.447 68.9358 162.493 78.926 174.886 78.926Z" fill="#E55200"/>
<path d="M197.287 55.0664H174.896H152.458C152.458 55.0664 150.675 67.6249 170.697 101.543C171.569 103.022 173.17 103.994 174.896 103.994C176.622 103.994 178.224 102.993 179.096 101.515C199.109 67.5963 197.287 55.0664 197.287 55.0664Z" fill="#E55200"/>
<path d="M175.481 104.807V104.93H174.887C172.93 104.93 171.109 103.862 170.13 102.203C158.432 82.3785 154.136 69.839 152.602 62.8303C152.161 61.2187 151.911 59.6358 151.835 58.0147C151.7 56.3555 151.806 55.6594 151.816 55.5831L151.873 55.2303C152.774 43.2439 162.804 33.918 174.887 33.918C187.132 33.918 197.248 43.3774 197.939 55.4592C197.958 55.6213 197.986 56.0218 197.977 56.6893V56.7751C197.977 58.9683 197.67 61.1329 197.056 63.2308C195.465 70.2395 191.447 82.655 179.95 102.146C178.952 103.796 177.102 104.807 175.481 104.807ZM153.072 56.3651C153.062 56.3651 153.081 57.2042 153.139 57.9289V57.9384C153.216 59.4737 153.455 60.9613 153.868 62.4965L153.877 62.5251C155.392 69.4481 159.631 81.8254 171.262 101.517C172.01 102.785 173.698 103.576 175.193 103.576L175.491 104.225V103.576C176.143 103.576 178.166 102.785 178.924 101.507C190.354 82.1401 194.697 69.8295 196.002 62.9161V62.878C196.654 60.9041 196.769 58.8443 196.769 56.7751L196.654 56.6797V56.6702C196.654 56.0218 196.644 55.6785 196.634 55.5831V55.545C196.002 44.1403 186.451 35.2148 174.887 35.2148C163.351 35.2148 153.8 44.2452 153.139 55.7452L153.11 56.3746H153.072V56.3651Z" fill="#E1473D"/>
<path opacity="0.8" d="M184.124 65.6563C189.184 60.6253 189.184 52.4685 184.124 47.4375C179.065 42.4065 170.863 42.4065 165.804 47.4375C160.745 52.4685 160.745 60.6253 165.804 65.6563C170.863 70.6872 179.065 70.6872 184.124 65.6563Z" fill="white"/>
<path d="M174.963 70.145C167.417 70.145 161.29 64.0422 161.29 56.5471C161.29 49.0521 167.427 42.9492 174.963 42.9492C182.51 42.9492 188.637 49.0521 188.637 56.5471C188.637 64.0422 182.5 70.145 174.963 70.145ZM174.963 44.3796C168.222 44.3796 162.737 49.834 162.737 56.5376C162.737 63.2412 168.222 68.6956 174.963 68.6956C181.705 68.6956 187.189 63.2412 187.189 56.5376C187.189 49.834 181.705 44.3796 174.963 44.3796Z" fill="#E1473D"/>
<path d="M162.67 43.1306C162.613 43.1306 162.545 43.102 162.507 43.0543C162.43 42.9685 162.44 42.8254 162.526 42.7491C166.17 39.6405 170.811 37.9336 175.615 37.9336C175.74 37.9336 175.836 38.029 175.836 38.1529C175.836 38.2769 175.74 38.3722 175.615 38.3722C170.917 38.3722 166.371 40.0505 162.804 43.0829C162.776 43.1115 162.728 43.1306 162.67 43.1306Z" fill="white"/>
<path d="M155.738 58.1385C155.613 58.1385 155.517 58.0431 155.517 57.9191C155.517 54.1907 156.553 50.548 158.528 47.3917C158.595 47.2868 158.73 47.2582 158.825 47.325C158.931 47.3917 158.96 47.5252 158.893 47.6206C156.965 50.7101 155.949 54.267 155.949 57.9191C155.958 58.0431 155.862 58.1385 155.738 58.1385Z" fill="white"/>
<path d="M96.0368 137.322C95.9314 137.513 89.5547 142.186 89.5547 142.186C89.5547 142.186 90.9643 152.217 96.6889 156.174C102.979 160.532 111.868 152.589 111.868 152.589C111.868 152.589 118.945 154.258 122.704 139.62C123.567 136.264 118.59 135.978 112.578 136.598C104.82 137.389 96.0368 137.322 96.0368 137.322Z" fill="#09005D"/>
<path d="M84.1079 171.528C86.601 169.821 89.3626 168.534 92.2873 167.742C93.39 167.447 99.3256 169.163 102.989 169.077C108.023 168.963 113.153 166.684 117.305 167.714C121.428 168.734 124.804 170.069 126.75 171.452C132.58 175.581 136.003 183.267 138.094 190.895C134.143 194.929 129.167 196.721 129.167 196.721L128.246 233.758L106.22 244.963L81.0777 232.414L81.9791 196.216C81.9791 196.216 73.9915 192.516 73.4065 191.172C72.8408 189.827 77.0599 176.344 84.1079 171.528Z" fill="#E55200"/>
<path d="M73.7996 191.008C73.7996 191.008 63.0983 220.502 87.4927 232.622C92.5556 231.954 90.6091 223.591 90.6091 223.591C90.6091 223.591 80.0133 221.255 83.1968 196.653C80.2626 194.25 73.7996 191.008 73.7996 191.008Z" fill="#FFCFB4"/>
<path d="M137.586 191.008C137.586 191.008 144.95 221.799 123.892 232.622C118.829 231.954 120.776 223.591 120.776 223.591C120.776 223.591 129.32 219.405 128.188 196.653C131.123 194.25 137.586 191.008 137.586 191.008Z" fill="#FFCFB4"/>
<path d="M128.716 234.69H81.193C80.982 234.69 80.7998 234.519 80.7998 234.3V202.641C80.7998 202.431 80.9724 202.25 81.193 202.25H128.716C128.927 202.25 129.109 202.422 129.109 202.641V234.3C129.1 234.519 128.927 234.69 128.716 234.69Z" fill="#09005D"/>
<path d="M150.281 244.305C144.758 243.046 131.976 243.723 131.976 243.723L131.458 245.125L130.595 252.076C130.595 252.076 142.764 254.26 148.757 254.25C149.37 254.25 149.927 254.155 150.435 254.002C150.617 253.84 150.799 253.669 150.962 253.487C153.523 250.722 152.784 246.669 150.281 244.305Z" fill="#004386"/>
<path d="M150.828 244.448C150.656 244.4 150.474 244.353 150.282 244.314C152.784 246.67 153.523 250.732 150.972 253.497C150.8 253.679 150.627 253.85 150.445 254.012C154.952 252.611 155.479 245.745 150.828 244.448Z" fill="#4042E2"/>
<path d="M128.313 243.332L130.48 243.427C131.64 243.475 132.733 244.038 133.52 244.991C134.306 245.945 134.699 247.194 134.632 248.481C134.575 249.502 134.153 250.455 133.462 251.132C132.772 251.809 131.861 252.153 130.931 252.086L127.623 251.847L128.313 243.332Z" fill="#FFCFB4"/>
<path d="M55.5709 243.637C61.1325 242.541 73.8763 243.609 73.8763 243.609L74.3558 245.02L75.0462 252C75.0462 252 62.8298 253.812 56.8367 253.621C56.223 253.602 55.6668 253.497 55.1586 253.316C54.9764 253.145 54.8038 252.973 54.6408 252.782C52.1764 249.96 53.0107 245.926 55.5709 243.637Z" fill="#004386"/>
<path d="M55.0246 243.763C55.1972 243.715 55.3794 243.677 55.5711 243.639C53.0109 245.918 52.1767 249.951 54.6506 252.793C54.8136 252.984 54.9862 253.155 55.1684 253.327C50.7095 251.801 50.3452 244.916 55.0246 243.763Z" fill="#4042E2"/>
<path d="M77.559 243.332L75.3919 243.361C74.2316 243.37 73.1193 243.904 72.3138 244.829C71.5083 245.754 71.0768 247.003 71.1151 248.281C71.1439 249.301 71.5371 250.274 72.2179 250.97C72.8987 251.666 73.8001 252.038 74.7206 252L78.0384 251.866L77.559 243.332Z" fill="#FFCFB4"/>
<path d="M151.835 222.505C149.332 216.764 143.195 215.839 137.979 218.519C137.892 218.633 104.839 235.483 75.6982 242.864C76.5325 245.524 76.964 248.356 77.0599 251.131C77.0791 251.751 77.0695 252.361 77.0311 252.962C99.383 251.818 123.634 244.408 144.48 237.896C150.933 235.826 154.606 228.865 151.835 222.505Z" fill="#0069D3"/>
<path d="M128.467 251.569C128.38 248.365 129.004 245.381 130.346 242.615C130.384 242.491 130.432 242.367 130.471 242.244C128.802 241.729 126.654 241.033 123.835 240.088C103.142 233.042 87.349 225.937 72.2847 217.746C66.4354 214.561 59.7711 216.697 57.9012 223.582C56.2327 229.733 59.9053 234.977 65.4765 236.827C82.1518 242.348 73.4737 240.813 78.9203 242.558C93.5531 247.059 111.753 251.15 128.505 252.275C128.495 252.037 128.476 251.798 128.467 251.569Z" fill="#037FFB"/>
<path d="M92.2871 167.741C92.2871 167.741 94.5118 177.334 105.319 177.134C116.327 176.934 117.305 167.713 117.305 167.713L110.113 166.187L109.509 158.225L98.6926 159.026L98.4912 166.597L92.2871 167.741Z" fill="#FFCFB4"/>
<path d="M100.217 135.643C100.217 135.643 87.8284 159.52 102.528 165.308C112.894 169.389 119.395 149.45 117.458 144.053C114.457 135.7 112.482 136.692 112.482 136.692L100.217 135.643Z" fill="#FFCFB4"/>
<path d="M120.44 133.47C126.558 135.139 121.332 148.346 112.117 145.228C102.902 142.11 99.2776 142.148 97.8393 144.665C96.4009 147.183 96.0941 156.118 92.9777 151.702C89.564 146.858 87.6558 137.132 91.8462 134.004C95.5859 131.201 96.468 126.862 100.956 127.014C106.92 127.215 111.523 124.583 114.217 126.48C117.305 128.655 115.943 132.24 120.44 133.47Z" fill="#09005D"/>
<path d="M97.2736 146.714C97.2736 146.714 94.627 143.882 94.2051 147.296C93.7832 150.7 95.1448 155.096 96.727 152.683C98.3284 150.29 97.2736 146.714 97.2736 146.714Z" fill="#FFB489"/>
<path d="M107.802 211.043C108.061 212.759 107.131 214.323 105.405 214.581C103.679 214.838 102.068 213.646 101.809 211.93C101.55 210.213 102.346 208.497 104.072 208.249C105.798 207.982 107.543 209.317 107.802 211.043Z" fill="white"/>
<path d="M71.6517 34.832L75.679 49.2596C76.2256 51.2144 75.89 53.3122 74.7585 55.0096C71.9202 59.2625 64.9777 66.9388 50.2586 70.8579C35.3094 74.8343 26.8423 70.7435 23.1985 68.0449C21.8752 67.0723 20.9259 65.6896 20.4656 64.1162L16.0547 48.8305L71.6517 34.832Z" fill="#0064C9"/>
<path d="M39.778 16.2576L81.6532 27.9198C83.8107 28.5205 84.4244 31.2668 82.7176 32.7162C74.4135 39.7726 55.5519 56.2218 48.4081 65.767C47.641 66.7873 46.2794 67.1592 45.0999 66.6729L2.72618 49.2321C0.808387 48.4406 0.386471 45.9327 1.94948 44.5691C10.1672 37.3887 31.0904 19.4234 37.889 16.3911C38.4835 16.1336 39.1548 16.0859 39.778 16.2576Z" fill="#0080FF"/>
<path d="M40.6891 37.7695C40.6891 37.7695 18.3659 51.768 16.6686 54.972C14.9714 58.1664 18.3947 72.7179 18.3947 72.7179C14.8851 85.0285 14.3577 98.3881 20.2933 105.387C20.2933 105.387 27.6097 89.2052 24.3398 82.3776C21.07 75.5596 19.8138 72.7561 19.8138 72.7561C19.8138 72.7561 16.9563 57.251 17.8577 55.0387C17.8481 55.0292 42.5781 38.6564 40.6891 37.7695Z" fill="#0080FF"/>
<path d="M76.015 31.7812L54.5836 52.8074L49.233 58.0616L47.8905 59.3775L47.2193 60.0355C47.0083 60.2357 46.7782 60.4169 46.5289 60.5695C45.5316 61.1798 44.2563 61.3228 43.144 60.9319L28.8755 56.1735C28.7605 56.1354 28.6454 56.1926 28.607 56.307C28.5687 56.4215 28.6262 56.5359 28.7413 56.574L42.9714 61.4372C44.2275 61.8854 45.6851 61.7329 46.8261 61.0463C47.1138 60.8746 47.3823 60.6744 47.622 60.4455L48.3028 59.7971L49.6549 58.4907L55.0535 53.2747L76.6383 32.4201C76.8109 32.2484 76.8205 31.9719 76.6479 31.8003C76.4753 31.6191 76.1972 31.6095 76.015 31.7812Z" fill="#BDD0FB"/>
<path d="M20.0154 80.1942L20.0537 80.2419L20.1017 80.2991L20.1976 80.4135L20.3893 80.671C20.514 80.8426 20.6291 81.0333 20.7537 81.2145L21.0702 81.7962C21.166 81.9965 21.2523 82.1967 21.3482 82.397C21.4441 82.5972 21.5208 82.807 21.5976 83.0168C21.6743 83.2266 21.751 83.4364 21.8277 83.6461L22.0099 84.2946C22.0674 84.5139 22.1441 84.7237 22.1729 84.9525L22.3071 85.62C22.3455 85.8394 22.403 86.0587 22.4222 86.2875C22.4797 86.7357 22.5373 87.1839 22.5852 87.6321L22.6523 88.9957C22.6523 89.1101 22.6619 89.2245 22.6619 89.339L22.6715 89.6822L22.6523 90.3688C22.6619 91.2842 22.5373 92.1901 22.4606 93.096C22.4414 93.3249 22.4126 93.5538 22.3743 93.7731L22.2688 94.4501C22.1921 94.8983 22.1345 95.356 22.0482 95.8042C21.8469 96.7005 21.6647 97.5969 21.4441 98.4837L20.6962 101.135V101.144C20.677 101.23 20.725 101.306 20.8017 101.335C20.8784 101.354 20.9647 101.316 20.9934 101.23L21.8181 98.5886C22.0578 97.7018 22.2688 96.7959 22.4989 95.8995C22.5948 95.4514 22.6715 94.9936 22.7578 94.5359L22.8825 93.8494C22.9304 93.6205 22.9688 93.3916 22.988 93.1628C23.0838 92.2378 23.2373 91.3224 23.2565 90.3879L23.2948 89.6918L23.314 89.339C23.314 89.2245 23.314 89.1101 23.3044 88.9861L23.2756 87.5844C23.2373 87.1171 23.1893 86.6499 23.1414 86.1922C23.1222 85.9538 23.0743 85.7249 23.0359 85.4961L22.9112 84.8C22.8825 84.5711 22.8154 84.3422 22.7578 84.1134L22.5852 83.4268C22.5181 83.198 22.4414 82.9786 22.3647 82.7498C22.288 82.5209 22.2208 82.3016 22.1154 82.0823C22.0195 81.863 21.9332 81.6436 21.8373 81.4243L21.5113 80.7854C21.3866 80.5756 21.2715 80.3658 21.1277 80.1656L20.9167 79.8605L20.8017 79.7079L20.7441 79.6316L20.6674 79.5458C20.5044 79.3646 20.2263 79.3551 20.0441 79.5172C19.8619 79.6793 19.8524 79.9558 20.0154 80.137C20.0154 80.137 20.0154 80.137 20.025 80.1465L20.0154 80.1942Z" fill="#BDD0FB"/>
<path d="M19.3344 85.9145V86.7822L19.3248 87.7549L19.2961 89.7097L19.2289 93.6289L19.0659 101.467C19.0659 101.601 19.1714 101.706 19.3056 101.715C19.4399 101.715 19.5454 101.62 19.555 101.486L19.9193 93.6575L20.0919 89.7383L20.1687 87.7739L20.1974 86.7918L20.207 86.2959L20.2166 86.048C20.2166 85.9431 20.207 85.8191 20.1974 85.6951C20.1782 85.4568 19.9673 85.2851 19.7276 85.3042C19.507 85.3233 19.3344 85.514 19.3344 85.7333V85.9145Z" fill="#BDD0FB"/>
<path d="M226.936 193.393C226.936 193.393 224.644 179.194 231.654 174.598C231.97 174.398 232.382 174.626 232.382 174.998V177.697C232.382 178.345 233.159 178.679 233.629 178.231C235.134 176.82 237.839 174.665 240.706 174.216C241.473 174.093 242.067 174.855 241.741 175.551C239.986 179.289 235.384 189.75 235.566 196.606L226.936 193.393Z" fill="#7D97F4"/>
<path d="M219.495 193.384L214.806 268.001H242.93V195.472C242.93 193.384 241.588 191.534 239.603 190.866C235.882 189.598 229.554 188.025 223.34 189.121C221.221 189.493 219.629 191.248 219.495 193.384Z" fill="#037FFB"/>
<path d="M219.571 240.374L218.622 261.181C218.545 262.907 219.926 264.347 221.661 264.347H235.872C237.55 264.347 238.912 262.993 238.912 261.324V240.517C238.912 238.848 237.55 237.494 235.872 237.494H222.62C220.981 237.485 219.648 238.762 219.571 240.374Z" fill="white"/>
<path d="M270 268.001V190.876C270 188.95 268.744 187.233 266.893 186.671C258.608 184.153 251.407 185.564 247.629 186.728C245.951 187.243 244.81 188.778 244.81 190.523V268.001H270Z" fill="#004386"/>
<path d="M247.303 192.164L247.917 203.55C247.993 204.97 249.173 206.077 250.602 206.077H264.093C265.541 206.077 266.73 204.932 266.778 203.492L267.143 192.259C267.181 190.972 266.299 189.837 265.033 189.561C261.754 188.855 255.31 187.892 249.345 189.427C248.099 189.742 247.236 190.877 247.303 192.164Z" fill="white"/>
<path d="M248.357 210.988C248.453 212.389 249.623 213.476 251.042 213.476H263.959C265.464 213.476 266.672 212.246 266.644 210.749C266.615 209.29 265.416 208.127 263.959 208.127H251.042C249.479 208.127 248.252 209.443 248.357 210.988Z" fill="white"/>
<path d="M184.274 193.02L187.391 267.923H214.029L216.052 192.181C216.11 190.102 214.767 188.214 212.763 187.613C204.104 185.029 195.493 184.771 186.998 188.633C185.281 189.425 184.198 191.151 184.274 193.02Z" fill="#037FFB"/>
<path d="M186.7 195.832L187.017 199.903C187.113 201.133 188.187 202.068 189.424 201.992L211.191 200.733C212.332 200.666 213.253 199.77 213.339 198.635L213.55 195.822C213.646 194.506 212.6 193.381 211.268 193.381H188.973C187.65 193.39 186.605 194.516 186.7 195.832Z" fill="white"/>
<path d="M187.602 205.57V207.057C187.602 208.202 188.56 209.117 189.711 209.069L210.558 208.202C211.641 208.154 212.504 207.267 212.504 206.19V204.616C212.504 203.462 211.536 202.547 210.385 202.604L189.539 203.558C188.455 203.605 187.602 204.492 187.602 205.57Z" fill="white"/>
<ellipse cx="136.5" cy="298" rx="132.5" ry="10" fill="#E9F1FD"/>
</svg>
