<svg id="Logo" xmlns="http://www.w3.org/2000/svg" xmlns:xlink="http://www.w3.org/1999/xlink" width="128.591" height="67" viewBox="0 0 128.591 67">
  <defs>
    <linearGradient id="linear-gradient" x1="0.648" y1="1.032" x2="0.196" y2="0.129" gradientUnits="objectBoundingBox">
      <stop offset="0" stop-color="#ffc91d"/>
      <stop offset="1" stop-color="#e55200"/>
    </linearGradient>
  </defs>
  <path id="Path_451" data-name="Path 451" d="M80.68,55.567a4.087,4.087,0,0,1-1.721.363c-2.022,0-3.223-1.348-3.223-3.5,0-2.283,1.3-3.611,3.3-3.611a3.655,3.655,0,0,1,1.593.342l.189-.551a3.906,3.906,0,0,0-1.782-.332,3.82,3.82,0,0,0-3.963,4.157c0,2.8,1.762,4.045,3.7,4.045a5.222,5.222,0,0,0,2.079-.373Zm5.562.24H82.8V48.391H82.15v7.962h4.091Zm4.03-7.416H89.6l-2.784,7.962h.659l.935-2.732h3.018l.94,2.732h.679Zm-1.7,4.709.914-2.615A14.32,14.32,0,0,0,89.9,49.05h.026c.123.46.24.919.419,1.476l.9,2.579H88.575Zm9.346-4.469a3.081,3.081,0,0,0-1.573-.368A2.118,2.118,0,0,0,94,50.286c0,1.1.8,1.787,2.028,2.232,1.1.439,1.542.96,1.542,1.834,0,.935-.679,1.573-1.828,1.573a3.123,3.123,0,0,1-1.711-.516l-.22.541a3.533,3.533,0,0,0,1.874.516c1.66,0,2.543-.975,2.543-2.181,0-1.175-.679-1.8-1.977-2.339-1.1-.46-1.6-.894-1.6-1.757,0-.623.429-1.384,1.65-1.384a2.573,2.573,0,0,1,1.394.373Zm5.444,0a3.082,3.082,0,0,0-1.573-.368,2.118,2.118,0,0,0-2.344,2.023c0,1.1.8,1.787,2.027,2.232,1.1.439,1.543.96,1.543,1.834,0,.935-.679,1.573-1.829,1.573a3.123,3.123,0,0,1-1.711-.516l-.22.541a3.543,3.543,0,0,0,1.884.516,2.234,2.234,0,0,0,2.539-2.181c0-1.175-.679-1.8-1.977-2.339-1.1-.46-1.6-.894-1.6-1.757,0-.623.429-1.384,1.649-1.384a2.577,2.577,0,0,1,1.4.373Zm5.9,7.176h-3.463V52.441h3.1V51.9h-3.1V48.933h3.284v-.541h-3.937v7.962h4.121v-.547Zm5-7.176a3.082,3.082,0,0,0-1.573-.368,2.113,2.113,0,0,0-2.339,2.023c0,1.1.8,1.787,2.022,2.232,1.1.439,1.543.96,1.543,1.834,0,.935-.679,1.573-1.823,1.573a3.118,3.118,0,0,1-1.717-.516l-.219.541a3.542,3.542,0,0,0,1.884.516,2.234,2.234,0,0,0,2.539-2.181c0-1.175-.68-1.8-1.972-2.339-1.1-.46-1.608-.894-1.608-1.757,0-.623.434-1.384,1.649-1.384a2.555,2.555,0,0,1,1.394.373Z" fill="#003760"/>
  <path id="Path_452" data-name="Path 452" d="M72.452,23.994V46.415H65.439V23.994h.025a4.612,4.612,0,0,0,6.956,0Z" fill="#003760"/>
  <path id="Path_453" data-name="Path 453" d="M47.851,26.825,47.488,24H41.441c.082,2.15.158,4.622.158,7.411V55.333h7V44.583h.123A5.615,5.615,0,0,0,53.5,46.85c4.382,0,8.958-3.626,8.958-11.828,0-6.691-3.386-11.471-8.32-11.471a7.071,7.071,0,0,0-6.215,3.274Zm.751,6.251c0-2.39,1.517-3.866,3.151-3.866,2.349,0,3.621,2.308,3.621,6.057,0,3.5-1.231,6.093-3.7,6.093-1.8,0-3.069-1.675-3.069-3.948V33.076Z" fill="#003760"/>
  <path id="Path_454" data-name="Path 454" d="M37.59,23.994H30.577V37.733c0,2.268-1.394,3.386-2.83,3.386-1.951,0-2.783-1.747-2.783-4.78V23.994H17.952v13.34c0,6.456,2.549,9.52,7.089,9.52a7.391,7.391,0,0,0,6.251-3.223h.123l.322,2.783h6.047c-.082-1.992-.194-4.459-.194-7.2Z" fill="#003760"/>
  <path id="Path_455" data-name="Path 455" d="M13.861,15.627H6.849V35.663c0,4.259-1.629,5.255-3.938,5.255A10.252,10.252,0,0,1,0,40.52v5.94a16.237,16.237,0,0,0,3.626.393c5.894,0,10.235-2.309,10.235-11.272Z" fill="#003760"/>
  <path id="Path_456" data-name="Path 456" d="M122.488,52.764a33.5,33.5,0,0,1-56.579-2.819c1.042,1.323,2.3,3.029,3.427,4.321A32.688,32.688,0,0,0,99.607,65.042a32.1,32.1,0,0,0,15.1-6.931,29.921,29.921,0,0,0,11.926-23.228,29.566,29.566,0,0,0-5.69-18.182A29.89,29.89,0,0,0,91.619,4.816C83.141,6.3,76.793,11.2,72.421,17.871a4.62,4.62,0,0,0-6.941.005h-.005a33.489,33.489,0,1,1,57.013,34.888Z" fill="url(#linear-gradient)"/>
  <path id="Path_457" data-name="Path 457" d="M114.94,32.922c0-7.983-5.327-9.254-7.621-9.254a8.177,8.177,0,0,0-7.41,4.382h-.082L99.618,24.2H97.33c.082,1.716.158,3.274.158,5.4V46.349h2.543V32.636a6.794,6.794,0,0,1,6.548-6.839c4.382,0,5.807,3.519,5.807,7.451v13.1h2.543V32.922Z" fill="#003760"/>
  <path id="Path_458" data-name="Path 458" d="M85.066,23.668c-5.49,0-10.363,4.178-10.363,11.793,0,7.043,4.382,11.384,10.077,11.384,4.872,0,10.393-3.524,10.393-11.793C95.174,28.336,91.164,23.668,85.066,23.668ZM92.6,35.17c0,5.449-3.32,9.622-7.738,9.622-4.341,0-7.569-4.173-7.569-9.454,0-4.627,2.329-9.622,7.692-9.622C90.429,25.716,92.6,31.119,92.6,35.17Z" fill="#003760"/>
  <path id="Path_459" data-name="Path 459" d="M68.943,24.3a3.361,3.361,0,1,0-3.361-3.361A3.366,3.366,0,0,0,68.943,24.3Z" fill="#e65701" fill-rule="evenodd"/>
</svg>
