<svg width="13" height="12" viewBox="0 0 13 12" fill="none" xmlns="http://www.w3.org/2000/svg">
<path d="M8.41279 3.89092L10.3444 2.05125M11.4481 1L10.3444 2.05125L11.4481 1ZM6.14457 6.05123C6.42952 6.31902 6.65605 6.63785 6.8111 6.98936C6.96615 7.34087 7.04667 7.71812 7.04801 8.09939C7.04935 8.48066 6.97149 8.85842 6.81892 9.21091C6.66634 9.5634 6.44206 9.88367 6.159 10.1533C5.87593 10.4229 5.53966 10.6365 5.16956 10.7818C4.79946 10.9271 4.40284 11.0013 4.00252 11C3.60221 10.9987 3.20611 10.922 2.83704 10.7743C2.46797 10.6267 2.13322 10.4109 1.85205 10.1395C1.29914 9.59429 0.993199 8.86404 1.00011 8.10605C1.00703 7.34806 1.32625 6.62298 1.88903 6.08697C2.4518 5.55097 3.2131 5.24694 4.00896 5.24035C4.80481 5.23376 5.57154 5.52515 6.14402 6.05176L6.14457 6.05123ZM6.14457 6.05123L8.41279 3.89092L6.14457 6.05123ZM8.41279 3.89092L10.0684 5.46779L12 3.62811L10.3444 2.05125L8.41279 3.89092Z" stroke="#373737" stroke-linecap="round" stroke-linejoin="round"/>
</svg>
