<svg width="22" height="23" viewBox="0 0 22 23" fill="none" xmlns="http://www.w3.org/2000/svg">
<path fill-rule="evenodd" clip-rule="evenodd" d="M-8.74228e-08 20.6211C-3.91405e-08 20.0688 0.447715 19.6211 1 19.6211L20.8276 19.6211C21.3799 19.6211 21.8276 20.0688 21.8276 20.6211C21.8276 21.1734 21.3799 21.6211 20.8276 21.6211L1 21.6211C0.447715 21.6211 -1.35705e-07 21.1734 -8.74228e-08 20.6211Z" fill="#037FFB"/>
<rect x="0.206787" width="21.4138" height="16.6552" rx="3" fill="#037FFB"/>
<path d="M14.7754 9.53312C15.4424 9.19972 15.4424 8.24815 14.7754 7.91475L8.65428 4.8551C8.05257 4.55433 7.3446 4.99175 7.3446 5.66428L7.3446 11.7836C7.3446 12.4561 8.05256 12.8935 8.65427 12.5928L14.7754 9.53312Z" fill="white"/>
<circle cx="12.1034" cy="20.6215" r="2.37931" fill="#037FFB"/>
</svg>
