<svg width="14" height="15" viewBox="0 0 14 15" fill="none" xmlns="http://www.w3.org/2000/svg">
<path d="M11.0587 7.19531H2.54894C1.87753 7.19531 1.33325 7.73959 1.33325 8.411V12.6659C1.33325 13.3373 1.87753 13.8816 2.54894 13.8816H11.0587C11.7301 13.8816 12.2744 13.3373 12.2744 12.6659V8.411C12.2744 7.73959 11.7301 7.19531 11.0587 7.19531Z" stroke="#6A6A6A" stroke-width="2" stroke-linecap="round" stroke-linejoin="round"/>
<path d="M3.76468 7.1952V4.76383C3.76468 3.95778 4.08488 3.18474 4.65484 2.61478C5.22481 2.04481 5.99784 1.72461 6.80389 1.72461C7.60994 1.72461 8.38298 2.04481 8.95294 2.61478C9.52291 3.18474 9.84311 3.95778 9.84311 4.76383V7.1952" stroke="#6A6A6A" stroke-width="2" stroke-linecap="round" stroke-linejoin="round"/>
</svg>
