<svg width="17" height="17" viewBox="0 0 17 17" fill="none" xmlns="http://www.w3.org/2000/svg">
<path d="M10.625 9.20833C10.2333 9.20833 9.91667 9.52567 9.91667 9.91667V12.75C9.91667 13.1403 9.59933 13.4583 9.20833 13.4583H7.08333V2.83333C7.08333 2.22842 6.698 1.68796 6.11858 1.48679L5.90892 1.41667H9.20833C9.59933 1.41667 9.91667 1.73471 9.91667 2.125V4.25C9.91667 4.641 10.2333 4.95833 10.625 4.95833C11.0167 4.95833 11.3333 4.641 11.3333 4.25V2.125C11.3333 0.953417 10.3799 0 9.20833 0H1.59375C1.56683 0 1.54417 0.0120417 1.51796 0.0155833C1.48396 0.01275 1.45138 0 1.41667 0C0.635375 0 0 0.635375 0 1.41667V14.1667C0 14.7716 0.385333 15.312 0.96475 15.5132L5.2275 16.9341C5.372 16.9787 5.51579 17 5.66667 17C6.44796 17 7.08333 16.3646 7.08333 15.5833V14.875H9.20833C10.3799 14.875 11.3333 13.9216 11.3333 12.75V9.91667C11.3333 9.52567 11.0167 9.20833 10.625 9.20833Z" fill="#EA4335"/>
<path d="M16.7926 6.58202L13.9593 3.74869C13.7567 3.54611 13.4521 3.48519 13.1872 3.59498C12.923 3.70477 12.7502 3.96332 12.7502 4.24948V6.37448H9.91683C9.52583 6.37448 9.2085 6.69182 9.2085 7.08282C9.2085 7.47382 9.52583 7.79115 9.91683 7.79115H12.7502V9.91615C12.7502 10.2023 12.923 10.4609 13.1872 10.5706C13.4521 10.6804 13.7567 10.6195 13.9593 10.4169L16.7926 7.58361C17.0696 7.30665 17.0696 6.85898 16.7926 6.58202Z" fill="#EA4335"/>
</svg>
