<svg xmlns="http://www.w3.org/2000/svg" xmlns:xlink="http://www.w3.org/1999/xlink" width="210.828" height="123.999" viewBox="0 0 210.828 123.999">
  <defs>
    <linearGradient id="linear-gradient" y1="0.445" x2="1" y2="0.445" gradientUnits="objectBoundingBox">
      <stop offset="0" stop-color="#dae3fe"/>
      <stop offset="1" stop-color="#e9effd"/>
    </linearGradient>
    <linearGradient id="linear-gradient-2" x1="0.978" y1="2.159" x2="0.725" y2="1.175" gradientUnits="objectBoundingBox">
      <stop offset="0" stop-color="#ff928e"/>
      <stop offset="1" stop-color="#feb3b1"/>
    </linearGradient>
    <linearGradient id="linear-gradient-3" x1="-1.598" y1="8.039" x2="-1.33" y2="7.055" xlink:href="#linear-gradient-2"/>
    <linearGradient id="linear-gradient-4" x1="0.512" y1="0.63" x2="0.467" y2="-2.067" gradientUnits="objectBoundingBox">
      <stop offset="0" stop-color="#ffc91d"/>
      <stop offset="1" stop-color="#ea4335"/>
    </linearGradient>
    <linearGradient id="linear-gradient-5" x1="0.858" y1="-1.396" x2="0.618" y2="-5.188" gradientUnits="objectBoundingBox">
      <stop offset="0" stop-color="#09005d"/>
      <stop offset="1" stop-color="#1a0f91"/>
    </linearGradient>
    <linearGradient id="linear-gradient-6" x1="2.58" y1="-3.69" x2="-0.86" y2="-11.113" xlink:href="#linear-gradient-2"/>
    <linearGradient id="linear-gradient-7" x1="0.829" y1="-2.446" x2="0.648" y2="-5.007" xlink:href="#linear-gradient-5"/>
    <linearGradient id="linear-gradient-8" x1="3.789" y1="-1.467" x2="0.301" y2="-8.971" xlink:href="#linear-gradient-2"/>
    <linearGradient id="linear-gradient-9" x1="0.504" y1="5.035" x2="0.438" y2="2.835" xlink:href="#linear-gradient-2"/>
    <linearGradient id="linear-gradient-10" x1="0.491" y1="4.93" x2="0.506" y2="4.084" xlink:href="#linear-gradient-2"/>
    <linearGradient id="linear-gradient-11" x1="0.446" y1="17.883" x2="0.54" y2="14.591" xlink:href="#linear-gradient-2"/>
  </defs>
  <g id="login" transform="translate(-0.773)">
    <path id="Path_2143" data-name="Path 2143" d="M160.587,12.02a.844.844,0,0,1,1.626.186c1.076,8.409,4.589,30.371,13.111,43.006,13.876,20.573,20.551,51.644,7.705,65.336C183.029,120.548,127.061,101.491,160.587,12.02Z" fill="url(#linear-gradient)"/>
    <path id="Path_2144" data-name="Path 2144" d="M160.725,23.809s0,.088-.005.257,0,.412.015.743c.016.657.058,1.621.118,2.847s.151,2.716.278,4.422.29,3.629.471,5.727c.2,2.1.417,4.366.7,6.762s.607,4.918.962,7.525c.374,2.6.774,5.294,1.247,8.016l.353,2.049q.19,1.024.383,2.056c.247,1.375.536,2.748.812,4.123s.6,2.742.884,4.109q.468,2.043.95,4.06l.507,2c.171.662.328,1.325.514,1.976s.358,1.3.536,1.944q.132.483.265.962l.281.949q.282.945.56,1.873.14.465.278.923c.1.3.2.607.294.907q.291.9.576,1.786c.1.294.186.588.284.877s.2.574.3.859q.3.854.588,1.682c.1.277.192.55.287.823l.3.8c.408,1.057.782,2.087,1.178,3.061s.79,1.9,1.159,2.787.765,1.7,1.113,2.483c.176.389.348.766.512,1.13s.349.7.513,1.033l.9,1.821c.132.277.276.53.406.77s.253.464.367.674l.578,1.064.481.886,0,0a.1.1,0,0,1-.167.094l-.5-.877-.6-1.054-.383-.668c-.135-.238-.283-.489-.42-.765-.283-.547-.6-1.152-.938-1.81q-.255-.5-.532-1.029l-.533-1.123c-.363-.777-.766-1.6-1.158-2.475s-.777-1.813-1.192-2.783-.794-2-1.215-3.06c-.1-.265-.208-.532-.313-.8s-.2-.546-.3-.823c-.2-.552-.4-1.114-.607-1.682-.813-2.277-1.593-4.707-2.343-7.235q-.143-.474-.286-.951t-.269-.964q-.269-.967-.543-1.949c-.188-.652-.35-1.315-.523-1.979s-.343-1.332-.515-2q-.49-2.018-.967-4.068-.222-1.027-.447-2.057c-.148-.687-.3-1.373-.432-2.064-.272-1.379-.558-2.757-.8-4.136q-.189-1.034-.378-2.062t-.348-2.055c-.466-2.729-.858-5.425-1.225-8.035-.343-2.614-.652-5.143-.9-7.547s-.46-4.678-.64-6.778c-.336-4.2-.508-7.715-.6-10.172-.041-1.229-.067-2.195-.072-2.855-.006-.327,0-.589,0-.761l.009-.258a.1.1,0,0,1,.19.005Z" fill="#fff" opacity="0.43" style="isolation: isolate"/>
    <path id="Path_2145" data-name="Path 2145" d="M151.655,101.39H68.693a5.545,5.545,0,0,1-5.739-5.325V92.9a5.545,5.545,0,0,1,5.739-5.325h82.962a9.693,9.693,0,0,0-.154,13.656Z" fill="#86b1f2"/>
    <path id="Path_2146" data-name="Path 2146" d="M174.09,100.961H54.053a9.819,9.819,0,1,0,0,19.638H174.09l-.066-.068A14.074,14.074,0,0,1,174.09,100.961Z" fill="#b75742"/>
    <path id="Path_2147" data-name="Path 2147" d="M171.913,103.869H106.189a6.914,6.914,0,1,0,0,13.828h65.722A14.1,14.1,0,0,1,171.913,103.869Z" fill="#fae0b2"/>
    <path id="Path_2148" data-name="Path 2148" d="M98.441,18.207c-.061.119-4.006,3.02-4.006,3.02s.871,6.232,4.409,8.692c3.889,2.706,9.382-2.229,9.382-2.229s4.371,1.04,6.7-8.059c.533-2.088-2.545-2.263-6.26-1.878C103.868,18.249,98.441,18.207,98.441,18.207Z" fill="#282828"/>
    <path id="Path_2149" data-name="Path 2149" d="M91.07,39.464a16.62,16.62,0,0,1,5.058-2.353c.68-.185,4.347.881,6.615.829,3.111-.072,6.281-1.488,8.847-.849a18.576,18.576,0,0,1,5.84,2.321c3.606,2.564,5.721,7.346,7.01,12.081a16.511,16.511,0,0,1-5.516,3.622l-.568,23.021L104.745,85.1,89.209,77.3l.556-22.5s-4.933-2.3-5.3-3.133S86.717,42.458,91.07,39.464Z" fill="#037ffb"/>
    <path id="Path_2150" data-name="Path 2150" d="M84.7,51.57S78.088,69.9,93.163,77.432c3.13-.416,1.927-5.614,1.927-5.614s-6.551-1.451-4.584-16.739A42.393,42.393,0,0,0,84.7,51.57Z" fill="url(#linear-gradient-2)"/>
    <path id="Path_2151" data-name="Path 2151" d="M124.121,51.57s4.549,19.134-8.465,25.862c-3.13-.416-1.926-5.614-1.926-5.614s5.279-2.6,4.584-16.739A42.4,42.4,0,0,1,124.121,51.57Z" fill="url(#linear-gradient-3)"/>
    <path id="Path_2152" data-name="Path 2152" d="M117.216,78.72H90.689a1.665,1.665,0,0,1-1.66-1.659V60.224a1.666,1.666,0,0,1,1.66-1.66h26.529a1.665,1.665,0,0,1,1.659,1.66V77.061A1.665,1.665,0,0,1,117.216,78.72Z" fill="url(#linear-gradient-4)"/>
    <path id="Path_2153" data-name="Path 2153" d="M131.968,84.695c-3.416-.785-11.312-.363-11.312-.363l-.32.871-.532,4.323a90.051,90.051,0,0,0,11.224,1.353,3.49,3.49,0,0,0,1.04-.156c.114-.1.223-.207.329-.32A4.074,4.074,0,0,0,131.968,84.695Z" fill="url(#linear-gradient-5)"/>
    <path id="Path_2154" data-name="Path 2154" d="M118.389,84.09l1.337.058a2.571,2.571,0,0,1,1.879.97,3.173,3.173,0,0,1,.689,2.167,2.509,2.509,0,0,1-.723,1.65,2.024,2.024,0,0,1-1.564.594l-2.046-.146Z" fill="url(#linear-gradient-6)"/>
    <path id="Path_2155" data-name="Path 2155" d="M73.436,84.281c3.435-.68,11.316-.016,11.316-.016l.3.878.424,4.337a89.692,89.692,0,0,1-11.254,1.007,3.5,3.5,0,0,1-1.036-.188c-.109-.105-.219-.213-.321-.33A4.066,4.066,0,0,1,73.436,84.281Z" fill="url(#linear-gradient-7)"/>
    <path id="Path_2156" data-name="Path 2156" d="M87.025,84.09l-1.339.016a2.568,2.568,0,0,0-1.9.912,3.155,3.155,0,0,0-.743,2.146,2.511,2.511,0,0,0,.682,1.671,2.028,2.028,0,0,0,1.548.642l2.048-.084Z" fill="url(#linear-gradient-8)"/>
    <path id="Path_2157" data-name="Path 2157" d="M132.925,71.146c-1.55-3.567-5.337-4.144-8.562-2.477-.056.074-20.481,10.541-38.491,15.13a19.568,19.568,0,0,1,.839,5.14c.01.384,0,.765-.018,1.139,13.812-.709,28.8-5.315,41.682-9.363A7.119,7.119,0,0,0,132.925,71.146Z" fill="#282828"/>
    <path id="Path_2158" data-name="Path 2158" d="M118.487,89.206a11.87,11.87,0,0,1,1.162-5.564c.024-.078.051-.153.077-.231-1.028-.319-2.357-.751-4.1-1.343A196.82,196.82,0,0,1,83.766,68.184c-3.618-1.976-7.73-.651-8.89,3.628-1.034,3.821,1.238,7.084,4.682,8.23,10.308,3.431,4.941,2.476,8.308,3.56a140.955,140.955,0,0,0,30.643,6.039C118.5,89.5,118.493,89.35,118.487,89.206Z" fill="#282828"/>
    <path id="Path_2159" data-name="Path 2159" d="M96.127,37.111a7.889,7.889,0,0,0,8.053,5.837c6.8-.124,7.407-5.858,7.407-5.858l-4.442-.95-.371-4.95-6.684.495-.124,4.7Z" fill="url(#linear-gradient-9)"/>
    <path id="Path_2160" data-name="Path 2160" d="M101.029,17.166S93.371,32,102.456,35.6c6.409,2.539,10.427-9.851,9.228-13.208-1.853-5.19-3.074-4.575-3.074-4.575Z" fill="url(#linear-gradient-10)"/>
    <path id="Path_2161" data-name="Path 2161" d="M113.526,15.814c3.783,1.039.55,9.246-5.146,7.3s-7.935-1.913-8.824-.349-1.077,7.121-3,4.373c-2.112-3.01-3.289-9.052-.7-11,2.313-1.741,2.853-4.439,5.63-4.347,3.684.124,6.533-1.508,8.2-.331C111.588,12.819,110.743,15.048,113.526,15.814Z" fill="#282828"/>
    <path id="Path_2162" data-name="Path 2162" d="M99.205,24.047s-1.633-1.757-1.894.361.578,4.847,1.562,3.351A5.109,5.109,0,0,0,99.205,24.047Z" fill="url(#linear-gradient-11)"/>
    <path id="Path_2163" data-name="Path 2163" d="M191.285,124H18.746c-.4,0-.715-.558-.715-1.247v-.959c0-.688.32-1.246.715-1.246H191.284c.4,0,.715.558.715,1.246v.959C192,123.441,191.68,124,191.285,124Z" fill="#037ffb"/>
    <path id="Path_2164" data-name="Path 2164" d="M160.489,81.814a5.66,5.66,0,0,0,4.428-4.564c1.188-6.5,4.947-17.93,16.689-18.14,13.83-.247,16.3,10.123,15.97,17.677a3.223,3.223,0,0,0,3.338,3.374c4.091-.17,10.057.778,10.057,7.757,0,0,3.7,13.142-6.821,16.31s-15.609-1-20.117,3.226c-4.165,3.9-17.749,7.953-24.308-.926a14.331,14.331,0,0,0-3.745-3.5c-2.463-1.6-5.705-5.467-2.995-14.346a9.882,9.882,0,0,1,7.326-6.827Z" fill="#70c0fd"/>
    <path id="Path_2165" data-name="Path 2165" d="M186.14,93.242a18.1,18.1,0,0,0-2.674,2.519c-.207.239-.407.486-.6.74a10.477,10.477,0,0,1,.427-2.692c.249-.69.972-1.859,1.86-3.513a25.466,25.466,0,0,1,3.419-3.533,13.6,13.6,0,0,1,4.559-2.672,13.363,13.363,0,0,0-4.94,1.985c-.481.3-.968.631-1.451.986a39.78,39.78,0,0,0,3.2-20.185,69.385,69.385,0,0,1-1.519,11.455,16.916,16.916,0,0,0-.842-2.552,21.282,21.282,0,0,0-2.61-4.5,21.744,21.744,0,0,1,2.085,4.75c1.252,4.3.44,5.753-.238,7.218-2.011,4.355-4.446,7.489-5.481,10.041q-.582-1.242-1.186-2.47-1.289-2.619-2.663-5.178-.223-.414-.449-.826a13.888,13.888,0,0,1-.461-2.072c-.1-.606-.179-1.217-.239-1.833a29.554,29.554,0,0,1-.125-3.724,29.246,29.246,0,0,0-.215,3.746c0,.629.029,1.259.072,1.888.007.1.016.207.026.311l-.015-.026c-.479-.836-.966-1.667-1.473-2.484s-1.026-1.621-1.571-2.4a25.071,25.071,0,0,0-1.735-2.244,26,26,0,0,1,1.592,2.366c.494.819.963,1.657,1.417,2.5s.889,1.71,1.316,2.577.84,1.741,1.246,2.622c.051.112.1.226.155.339-.271-.084-.529-.159-.985-.275a29.113,29.113,0,0,0-5.369-.781,29.253,29.253,0,0,1,5.237,1.346,16.368,16.368,0,0,1,1.544.65q.9,2.013,1.753,4.058.558,1.346,1.1,2.7c.176.452.353.9.523,1.358l.005.011q0,.171.009.342c.063.805.215,2.744.381,5.216a16.051,16.051,0,0,0-4.34-1.5,35.528,35.528,0,0,0-5.732-.382,4.978,4.978,0,0,1-.907-.822,7.086,7.086,0,0,1-1.658-3.687,7.514,7.514,0,0,0,1.376,3.982c.124.17.254.336.39.493-.762-.037-1.523-.093-2.281-.188a14.365,14.365,0,0,1-2.451-.5,6.708,6.708,0,0,1-2.272-1.152,6.989,6.989,0,0,0,2.221,1.345,14.261,14.261,0,0,0,2.255.666c-.154.024-.308.05-.462.077-.562.1-1.124.214-1.679.352s-1.109.293-1.652.484a11.387,11.387,0,0,0-1.588.692,10.759,10.759,0,0,1,1.622-.55c.551-.142,1.106-.247,1.663-.337s1.119-.153,1.679-.2,2.168-.108,2.722-.119a50.838,50.838,0,0,1,6.561.944,15.145,15.145,0,0,1,4.483,2.061c.056.038.111.077.165.115.413,6.709.788,15.9-.09,18.219-1.309,3.463,6.639,2.218,6.639,2.218s-2.674-1.491-3.732-9.282a131.075,131.075,0,0,1-1.342-14.809c.037-.082.072-.166.111-.248.124-.268.26-.531.4-.793a16.459,16.459,0,0,1,.941-1.513,17.911,17.911,0,0,1,2.3-2.679,19.141,19.141,0,0,1,5.794-3.76A18.876,18.876,0,0,0,186.14,93.242Z" fill="#037ffb"/>
    <path id="Path_2166" data-name="Path 2166" d="M33.049,93.976a27.091,27.091,0,0,0,15.314-4.35c3.651-2.382,7.074-5.89,7.706-10.839C57.515,67.476,51,67.848,49.4,63.235s3.142-6.679,1.1-15.082c-1.1-4.513-4.577-6.468-10-13.723S28.5,23.457,23.7,26.163s-4.6,8.524-8.168,10.461-9.046,8.7-6.955,21.558-12.048,8.063-6.515,22.94C6.123,92.033,23.868,93.807,33.049,93.976Z" fill="#70c0fd"/>
    <path id="Path_2167" data-name="Path 2167" d="M26.594,84.253c.5,7.144,1.243,35.6.17,38.07-1.6,3.689,6.786-.906,6.786-.906s-2.228-16.987-3.52-25.285c-.575-3.693-1.628-14.8-1.637-15.771.043-.087.089-.175.134-.263.151-.284.317-.565.491-.843a17.6,17.6,0,0,1,1.147-1.612,20.1,20.1,0,0,1,2.813-2.852,24.078,24.078,0,0,1,7.071-4A24.33,24.33,0,0,0,32.461,74.1,21.253,21.253,0,0,0,29.2,76.78c-.251.255-.5.519-.736.788a9.849,9.849,0,0,1,.522-2.866c.3-.734,1.186-1.979,2.27-3.742A29.387,29.387,0,0,1,35.426,67.2a17.278,17.278,0,0,1,5.566-2.846,17.673,17.673,0,0,0-6.028,2.114c-.6.327-1.183.671-1.77,1.05a37.628,37.628,0,0,0,3.9-21.494,64.932,64.932,0,0,1-1.852,12.2A16.5,16.5,0,0,0,34.218,55.5a22.179,22.179,0,0,0-3.185-4.8,21.918,21.918,0,0,1,2.544,5.059c1.479,4.433.6,6.007-.289,7.686-2.455,4.637-5.425,7.975-6.689,10.692q-.713-1.324-1.446-2.631C24.1,69.652,23.026,67.811,21.9,66q-.273-.441-.549-.881A9.667,9.667,0,0,1,21,63.872c-.074-.318-.143-.638-.2-.96-.12-.645-.221-1.3-.291-1.951s-.125-1.315-.146-1.976c-.037-.7-.016-1.469-.006-1.989-.062.5-.166,1.284-.2,1.986-.049.666-.062,1.334-.06,2s.034,1.341.089,2.01c.008.11.02.221.031.331L20.19,63.3c-.585-.891-1.179-1.776-1.8-2.645s-1.253-1.726-1.918-2.559A27.461,27.461,0,0,0,14.357,55.7,27.281,27.281,0,0,1,16.3,58.223c.6.872,1.175,1.764,1.729,2.668s1.086,1.821,1.606,2.744,1.025,1.856,1.519,2.792l.19.36a31.851,31.851,0,0,0-3.378-.693,42.428,42.428,0,0,0-4.379-.431,42.989,42.989,0,0,1,4.3.838,27.517,27.517,0,0,1,3.979,1.287q1.1,2.145,2.139,4.321.681,1.433,1.337,2.879a5.955,5.955,0,0,1,.516,1.167C26.171,77.666,26.594,84.253,26.594,84.253Z" fill="#037ffb"/>
    <path id="Path_2168" data-name="Path 2168" d="M160.692,19.08H134.123a3.8,3.8,0,0,0-3.795,3.8V36.16a3.8,3.8,0,0,0,3.795,3.8h26.569a3.8,3.8,0,0,0,3.8-3.8V22.876A3.8,3.8,0,0,0,160.692,19.08Z" fill="#037ffb"/>
    <path id="Path_2169" data-name="Path 2169" d="M137.919,19.08V11.489a9.489,9.489,0,1,1,18.978,0V19.08" fill="none" stroke="#037ffb" stroke-linecap="round" stroke-linejoin="round" stroke-width="4"/>
    <circle id="Ellipse_97" data-name="Ellipse 97" cx="2.3" cy="2.3" r="2.3" transform="translate(145.28 29.604)" fill="#fff"/>
    <rect id="Rectangle_1319" data-name="Rectangle 1319" width="2.3" height="6.901" transform="translate(146.43 33.055)" fill="#fff"/>
  </g>
</svg>
