<svg xmlns="http://www.w3.org/2000/svg" xmlns:xlink="http://www.w3.org/1999/xlink" width="179.944" height="93.698" viewBox="0 0 179.944 93.698">
  <defs>
    <linearGradient id="linear-gradient" x1="10.304" y1="8.55" x2="0.793" y2="0.739" gradientUnits="objectBoundingBox">
      <stop offset="0" stop-color="#ffc91d"/>
      <stop offset="1" stop-color="#e55200"/>
    </linearGradient>
    <linearGradient id="linear-gradient-2" x1="1.168" y1="1.04" x2="0.157" y2="0.256" xlink:href="#linear-gradient"/>
  </defs>
  <g id="Group_300" data-name="Group 300" transform="translate(13758 -5353)">
    <path id="Path_2127" data-name="Path 2127" d="M9.6,21.9h9.8V49.8c0,12.5-6.1,15.8-14.3,15.8A20.966,20.966,0,0,1,0,65V56.7a15.467,15.467,0,0,0,4.1.6c3.2,0,5.5-1.4,5.5-7.4v-28Z" transform="translate(-13758 5352.899)" fill="#fff"/>
    <path id="Path_2128" data-name="Path 2128" d="M52.6,54.9c0,3.8.2,7.3.3,10.1H44.4L44,61.1h-.2a10.271,10.271,0,0,1-8.7,4.5c-6.4,0-9.9-4.3-9.9-13.3V33.6H35V50.9c0,4.2,1.2,6.7,3.9,6.7,2,0,4-1.6,4-4.7V33.6h9.8V54.9Z" transform="translate(-13758 5352.899)" fill="#fff"/>
    <path id="Path_2129" data-name="Path 2129" d="M75.8,33a9.876,9.876,0,0,0-8.7,4.6H67l-.5-4H58c.1,3,.2,6.5.2,10.4V77.5H68V62.4h.2a7.9,7.9,0,0,0,6.7,3.2c6.1,0,12.5-5.1,12.5-16.6C87.5,39.7,82.7,33,75.8,33ZM72.4,57.9c-2.5,0-4.3-2.3-4.3-5.5V46.3c0-3.3,2.1-5.4,4.4-5.4,3.3,0,5.1,3.2,5.1,8.5C77.5,54.3,75.8,57.9,72.4,57.9Z" transform="translate(-13758 5352.899)" fill="#fff"/>
    <circle id="Ellipse_96" data-name="Ellipse 96" cx="4.7" cy="4.7" r="4.7" transform="translate(-13666.2 5377.499)" fill="url(#linear-gradient)"/>
    <path id="Path_2130" data-name="Path 2130" d="M101.4,65H91.6V33.6h0a6.291,6.291,0,0,0,4.9,2.2,6.8,6.8,0,0,0,4.9-2.2h0Z" transform="translate(-13758 5352.899)" fill="#fff"/>
    <path id="Path_2131" data-name="Path 2131" d="M106,73.4c0,3,1.7,4.9,4.5,4.9a5.684,5.684,0,0,0,2.4-.5l.2.7a6.539,6.539,0,0,1-2.9.5c-2.7,0-5.2-1.7-5.2-5.7,0-3.5,2.1-5.8,5.6-5.8a4.56,4.56,0,0,1,2.5.5l-.3.8a4.473,4.473,0,0,0-2.2-.5C107.9,68.3,106,70.2,106,73.4Z" transform="translate(-13758 5352.899)" fill="#fff"/>
    <path id="Path_2132" data-name="Path 2132" d="M115.9,67.8V78.1h4.9v.8H115V67.8Z" transform="translate(-13758 5352.899)" fill="#fff"/>
    <path id="Path_2133" data-name="Path 2133" d="M119.1,33.1c-7.7,0-14.5,5.9-14.5,16.5,0,9.9,6.1,15.9,14.1,15.9,6.8,0,14.6-4.9,14.6-16.5C133.3,39.7,127.6,33.1,119.1,33.1Zm-.3,29.6c-6.1,0-10.6-5.8-10.6-13.2C108.2,43,111.5,36,119,36c7.6,0,10.7,7.6,10.7,13.2C129.7,56.9,125,62.7,118.8,62.7Z" transform="translate(-13758 5352.899)" fill="#fff"/>
    <path id="Path_2134" data-name="Path 2134" d="M126.4,67.8h-.9L121.6,79h.9l1.3-3.8H128l1.3,3.8h1ZM124,74.4l1.3-3.7c.2-.7.4-1.3.6-2h0c.2.6.3,1.3.6,2.1l1.3,3.6Z" transform="translate(-13758 5352.899)" fill="#fff"/>
    <path id="Path_2135" data-name="Path 2135" d="M134.9,67.6a5.071,5.071,0,0,1,2.2.5l-.3.8a3.765,3.765,0,0,0-2-.5,2.016,2.016,0,0,0-2.3,1.9c0,1.2.7,1.8,2.2,2.5,1.8.7,2.8,1.6,2.8,3.3s-1.2,3.1-3.6,3.1a4.728,4.728,0,0,1-2.6-.7l.3-.8a4.527,4.527,0,0,0,2.4.7c1.6,0,2.6-.9,2.6-2.2,0-1.2-.6-2-2.2-2.6-1.7-.6-2.8-1.6-2.8-3.1A3.012,3.012,0,0,1,134.9,67.6Z" transform="translate(-13758 5352.899)" fill="#fff"/>
    <path id="Path_2136" data-name="Path 2136" d="M144.2,76.1c0-1.2-.6-2-2.2-2.6-1.7-.6-2.8-1.6-2.8-3.1,0-1.6,1.4-2.8,3.3-2.8a5.071,5.071,0,0,1,2.2.5l-.3.8a3.765,3.765,0,0,0-2-.5,2.016,2.016,0,0,0-2.3,1.9c0,1.2.7,1.8,2.2,2.5,1.8.7,2.8,1.6,2.8,3.3s-1.2,3.1-3.6,3.1a4.728,4.728,0,0,1-2.6-.7l.3-.8a4.527,4.527,0,0,0,2.4.7C143.3,78.3,144.2,77.4,144.2,76.1Z" transform="translate(-13758 5352.899)" fill="#fff"/>
    <path id="Path_2137" data-name="Path 2137" d="M148.1,68.5v4.2h4.4v.7h-4.4v4.7H153v.8h-5.8V67.8h5.5v.7Z" transform="translate(-13758 5352.899)" fill="#fff"/>
    <path id="Path_2138" data-name="Path 2138" d="M159.5,76.1c0-1.2-.6-2-2.2-2.6-1.7-.6-2.8-1.6-2.8-3.1,0-1.6,1.3-2.8,3.3-2.8a5.071,5.071,0,0,1,2.2.5l-.3.8a3.765,3.765,0,0,0-2-.5,2.016,2.016,0,0,0-2.3,1.9c0,1.2.7,1.8,2.3,2.5,1.8.7,2.8,1.6,2.8,3.3s-1.2,3.1-3.6,3.1a4.728,4.728,0,0,1-2.6-.7l.3-.8a4.527,4.527,0,0,0,2.4.7A2.376,2.376,0,0,0,159.5,76.1Z" transform="translate(-13758 5352.899)" fill="#fff"/>
    <path id="Path_2139" data-name="Path 2139" d="M160.9,64.9h-3.6V46.6c0-5.5-2-10.4-8.1-10.4-5.2,0-9.2,4.6-9.2,9.6V65h-3.6V41.4c0-3-.1-5.2-.2-7.6h3.2l.3,5.4h.1a11.528,11.528,0,0,1,10.4-6.1c3.2,0,10.7,1.8,10.7,13V64.9Z" transform="translate(-13758 5352.899)" fill="#fff"/>
    <path id="Path_2140" data-name="Path 2140" d="M171.5,73.9a46.934,46.934,0,0,1-65.3,11.4A47.416,47.416,0,0,1,92.3,70c1.5,1.9,3.2,4.2,4.8,6a45.865,45.865,0,0,0,42.4,15.1,45.127,45.127,0,0,0,21.1-9.7,41.887,41.887,0,0,0,16.7-32.5,41.146,41.146,0,0,0-8-25.5A41.755,41.755,0,0,0,128.2,6.8c-11.9,2.1-20.8,8.9-26.9,18.3a6.633,6.633,0,0,0-4.9-2.2,6.8,6.8,0,0,0-4.9,2.2h0A43.258,43.258,0,0,1,94.6,20a46.847,46.847,0,0,1,84.5,18.9A45.451,45.451,0,0,1,171.5,73.9Z" transform="translate(-13758 5352.899)" fill="url(#linear-gradient-2)"/>
  </g>
</svg>
