<svg width="45" height="44" viewBox="0 0 45 44" fill="none" xmlns="http://www.w3.org/2000/svg">
<path d="M28.4664 9.16662H17.9248C17.1658 9.16662 16.5498 8.55062 16.5498 7.79162V1.37499C16.5498 0.615997 17.1658 0 17.9248 0H28.4664C29.0036 0 29.4912 0.311665 29.7149 0.801162C29.9404 1.28883 29.8597 1.86266 29.5096 2.27149L27.5277 4.58331L29.5114 6.89696C29.8616 7.30579 29.9404 7.87962 29.7167 8.36729C29.4912 8.85495 29.0036 9.16662 28.4664 9.16662Z" fill="#F44336"/>
<path d="M17.9248 14.6666C17.1658 14.6666 16.5498 14.0506 16.5498 13.2916V1.37499C16.5498 0.615997 17.1658 0 17.9248 0C18.6838 0 19.2998 0.615997 19.2998 1.37499V13.2916C19.2998 14.0506 18.6838 14.6666 17.9248 14.6666Z" fill="#607D8B"/>
<path d="M25.4589 23.8697L21.554 27.1697C21.2973 27.3897 20.9856 27.4997 20.674 27.4997C20.3256 27.4997 19.9773 27.3714 19.7023 27.0964L17.924 25.318L16.1457 27.0964C15.6323 27.6097 14.8257 27.628 14.294 27.1697L10.499 23.9797L11.8557 21.5231L16.714 12.6314C16.9523 12.1914 17.4106 11.9164 17.924 11.9164C18.3823 11.8614 18.8773 12.1731 19.1156 12.6131L24.0839 21.4314L25.4589 23.8697Z" fill="#ECEFF1"/>
<path d="M17.9248 0C17.1658 0 16.5498 0.615997 16.5498 1.37499V12.9341L16.7148 12.6316C16.9531 12.1916 17.4115 11.9166 17.9248 11.9166V0Z" fill="#546D79"/>
<path d="M17.924 11.916C17.4106 11.916 16.9523 12.191 16.714 12.631L16.549 12.9335L11.8557 21.5226L10.499 23.9793L14.294 27.1693C14.547 27.3874 14.8642 27.4974 15.1795 27.4974C15.5278 27.4974 15.8762 27.3654 16.1457 27.0959L17.924 25.3176V11.916Z" fill="#CDD0D2"/>
<path d="M43.1331 43.9987H24.6312C24.1527 43.9987 23.709 43.7494 23.4579 43.3424C23.2085 42.9354 23.1884 42.4257 23.4065 42.0004L32.2835 24.5838C32.5145 24.131 32.9765 23.8432 33.4843 23.834C34.0636 23.8743 34.467 24.0998 34.7108 24.5435L44.3357 41.96C44.5704 42.3854 44.5649 42.9042 44.3174 43.324C44.0699 43.742 43.6208 43.9987 43.1331 43.9987Z" fill="#1976D2"/>
<path d="M33.4843 23.832C32.9765 23.8412 32.5145 24.129 32.2835 24.5819L23.4065 41.9984C23.1884 42.4256 23.2085 42.9334 23.4579 43.3404C23.709 43.7492 24.1527 43.9986 24.6312 43.9986H33.5081V23.8339C33.5008 23.8339 33.4935 23.832 33.4843 23.832Z" fill="#1667B7"/>
<path d="M35.6159 41.9477L25.4593 23.8711L21.5543 27.1711C21.2977 27.3911 20.986 27.5011 20.6743 27.5011C20.326 27.5011 19.9777 27.3727 19.7027 27.0977L17.9243 25.3194L16.146 27.0977C15.6327 27.6111 14.826 27.6294 14.2944 27.1711L10.4994 23.9811L0.672776 41.966C0.434444 42.3877 0.452777 42.901 0.691109 43.3226C0.947775 43.7443 1.40611 44.001 1.88277 44.001H34.4243C34.9193 44.001 35.3592 43.7443 35.6159 43.3226C35.8542 42.901 35.8542 42.3693 35.6159 41.9477Z" fill="#2196F3"/>
<path d="M10.4994 23.9805L0.672776 41.9654C0.434444 42.387 0.452777 42.9004 0.691109 43.322C0.947775 43.7437 1.40611 44.0003 1.88277 44.0003H17.9243V25.3188L16.146 27.0971C15.8765 27.3648 15.5282 27.4986 15.1799 27.4986C14.8627 27.4986 14.5474 27.3886 14.2944 27.1704L10.4994 23.9805Z" fill="#1D83D4"/>
</svg>
