<svg width="23" height="23" viewBox="0 0 23 23" fill="none" xmlns="http://www.w3.org/2000/svg">
<path d="M17.2509 13.416H5.75087C4.33956 13.416 3.19531 14.5603 3.19531 15.9716V22.9993H19.8064V15.9716C19.8064 14.5603 18.6622 13.416 17.2509 13.416Z" fill="#4289C1"/>
<path d="M6.38867 17.25H7.02756V23H6.38867V17.25Z" fill="#2A6797"/>
<path d="M3.00373 16.9277L2.82292 16.89H2.49645C2.49645 16.8529 2.51114 16.8184 2.51881 16.782C2.29648 16.6446 2.16998 16.3827 2.2262 16.1124C2.29776 15.7662 2.63701 15.5438 2.98392 15.6147L4.31984 15.8914H5.39062C5.94198 15.8914 6.38856 16.3386 6.38856 16.8906V17.8892H3.99464C3.99464 17.8892 3.04845 17.4618 3.00373 16.9277Z" fill="#FCAB40"/>
<path d="M0 16.3902C0 16.1142 0.223611 15.8906 0.498972 15.8906L3.49536 16.3902H5.88928C6.16528 16.3902 6.38825 16.6145 6.38825 16.8892V17.8884H3.19444L0.498972 16.8898C0.498972 16.8898 0 16.6662 0 16.3902Z" fill="#FFDC5D"/>
<path d="M2.55469 22.9998H6.38802V17.8887H3.19358L2.55469 22.9998Z" fill="#4289C1"/>
<path d="M15.9727 17.25H16.6115V23H15.9727V17.25Z" fill="#2A6797"/>
<path d="M19.9955 16.9277L20.1763 16.89H20.5028C20.5028 16.8529 20.4881 16.8184 20.4804 16.782C20.7028 16.6446 20.8293 16.3827 20.7731 16.1124C20.7015 15.7662 20.3629 15.5438 20.016 15.6147L18.6801 15.8914H17.6093C17.0579 15.8914 16.6113 16.3386 16.6113 16.8906V17.8892H19.0052C19.0046 17.8892 19.9508 17.4618 19.9955 16.9277Z" fill="#FCAB40"/>
<path d="M23.0002 16.3902C23.0002 16.1142 22.7766 15.8906 22.5012 15.8906L19.5042 16.3902H17.1103C16.8343 16.3902 16.6113 16.6145 16.6113 16.8892V17.8884H19.8058L22.5012 16.8898C22.5012 16.8898 23.0002 16.6662 23.0002 16.3902Z" fill="#FFDC5D"/>
<path d="M20.4447 22.9998H16.6113V17.8887H19.8058L20.4447 22.9998Z" fill="#4289C1"/>
<path d="M5.75 4.47266V10.8615C5.75 14.0375 8.32408 16.6115 11.5 16.6115C14.6759 16.6115 17.25 14.0375 17.25 10.8615V4.47266H5.75Z" fill="#FFDC5D"/>
<path d="M6.9292 8.76341C6.9292 9.77285 6.41809 10.5913 5.78686 10.5913C5.15564 10.5913 4.64453 9.77285 4.64453 8.76341C4.64453 7.75396 5.15628 6.93555 5.78686 6.93555C6.41745 6.93555 6.9292 7.75396 6.9292 8.76341ZM18.3538 8.76341C18.3538 9.77285 17.8427 10.5913 17.2115 10.5913C16.5803 10.5913 16.0691 9.77285 16.0691 8.76341C16.0691 7.75396 16.5803 6.93555 17.2115 6.93555C17.8427 6.93555 18.3538 7.75396 18.3538 8.76341Z" fill="#FFDC5D"/>
<path d="M11.4992 0.525391C7.01482 0.525391 5.02148 3.51795 5.02148 6.01217C5.02148 8.50575 5.87951 9.19767 6.01815 8.50575C6.51648 6.01217 8.01148 5.24678 8.01148 5.24678C11.0015 7.741 10.5032 5.74575 10.5032 5.74575C13.4925 8.73831 11.9982 5.74575 11.9982 5.74575C12.9948 6.7437 15.9842 6.7437 15.9842 6.7437C15.9842 6.7437 16.4825 7.50908 16.9802 8.50639C17.4785 9.50434 17.9769 8.50639 17.9769 6.01281C17.9769 3.51795 15.4852 0.525391 11.4992 0.525391Z" fill="#FFAC33"/>
<path d="M12.1382 12.4592H10.8605C10.6841 12.4592 10.541 12.3161 10.541 12.1398C10.541 11.9634 10.6841 11.8203 10.8605 11.8203H12.1382C12.3146 11.8203 12.4577 11.9634 12.4577 12.1398C12.4577 12.3161 12.3146 12.4592 12.1382 12.4592ZM13.0966 14.6953H12.7771C12.6008 14.6953 12.4577 14.5522 12.4577 14.3759C12.4577 14.1995 12.6008 14.0564 12.7771 14.0564H13.0966C13.2729 14.0564 13.416 14.1995 13.416 14.3759C13.416 14.5522 13.2729 14.6953 13.0966 14.6953Z" fill="#BF6952"/>
<path d="M8.94358 10.2214C8.59091 10.2214 8.30469 9.93513 8.30469 9.58247V8.94358C8.30469 8.59091 8.59091 8.30469 8.94358 8.30469C9.29624 8.30469 9.58247 8.59091 9.58247 8.94358V9.58247C9.58247 9.93513 9.29624 10.2214 8.94358 10.2214ZM14.0547 10.2214C13.7014 10.2214 13.4158 9.93513 13.4158 9.58247V8.94358C13.4158 8.59091 13.7014 8.30469 14.0547 8.30469C14.408 8.30469 14.6936 8.59091 14.6936 8.94358V9.58247C14.6936 9.93513 14.408 10.2214 14.0547 10.2214Z" fill="#662113"/>
</svg>
