<svg width="11" height="18" viewBox="0 0 11 18" fill="none" xmlns="http://www.w3.org/2000/svg">
<path d="M10.9165 18.0004H0V15.09C0 13.5927 1.21377 12.3789 2.71107 12.3789H8.20547C9.70274 12.3789 10.9165 13.5927 10.9165 15.09V18.0004H10.9165Z" fill="#FFCAC9"/>
<path d="M5.88452 10.0392V2.42383L9.69221 3.46229L10.0384 6.57767C10.0384 8.07767 9.76144 11.1469 8.65375 11.4238C7.54606 11.7008 6.34606 10.6161 5.88452 10.0392Z" fill="#9E5528"/>
<path d="M3.63892 9.92773V12.8367H7.27734C7.27734 12.4352 7.27734 10.337 7.27734 9.92773H3.63892Z" fill="#FFCEBF"/>
<path d="M3.63892 11.0166C4.18788 11.286 4.80529 11.4374 5.45811 11.4374C6.11093 11.4374 6.72837 11.286 7.2773 11.0166C7.2773 10.5276 7.2773 10.0918 7.2773 9.92773H3.63892V11.0166Z" fill="#FFB09E"/>
<path d="M9.59289 4.73741C9.57852 4.73741 9.56431 4.73801 9.55007 4.7385C9.2614 2.73713 7.53959 1.19922 5.45831 1.19922C3.37702 1.19922 1.65521 2.73713 1.36658 4.7385C1.35234 4.73805 1.3381 4.73741 1.32375 4.73741C0.620735 4.73741 0.346191 5.5268 0.346191 6.22982C0.346191 6.93284 0.620735 7.28329 1.32375 7.28329C1.33813 7.28329 1.35234 7.28269 1.36658 7.2822C1.65521 9.28358 3.37702 10.8215 5.45831 10.8215C7.53959 10.8215 9.2614 9.28358 9.55004 7.2822C9.56428 7.28266 9.57852 7.28329 9.59286 7.28329L9.59289 4.73741Z" fill="#FFCEBF"/>
<path d="M8.20551 12.3789H6.771C8.26827 12.3789 9.48207 13.5927 9.48207 15.09V18.0004H10.9166V15.09C10.9166 13.5927 9.70278 12.3789 8.20551 12.3789Z" fill="#D88988"/>
<path d="M3.63902 11.5488L5.45822 12.8355L4.12021 14.1052C4.03868 14.1825 3.91159 14.1848 3.82736 14.1104L2.11338 12.5966C1.99631 12.4932 2.02363 12.3037 2.16513 12.2376L3.63902 11.5488Z" fill="#F9E8E8"/>
<path d="M7.27745 11.5488L5.45825 12.8355L6.79626 14.1052C6.87779 14.1825 7.00488 14.1848 7.08912 14.1104L8.80309 12.5966C8.92016 12.4932 8.89284 12.3037 8.75134 12.2376L7.27745 11.5488Z" fill="#F9E8E8"/>
<path d="M8.75131 12.2395L7.27745 11.5508L6.86982 11.8391L7.72664 12.2395C7.86815 12.3056 7.8955 12.4951 7.77839 12.5985L6.44629 13.775L6.79623 14.1071C6.87776 14.1844 7.00485 14.1867 7.08909 14.1123L8.80306 12.5985C8.92013 12.4951 8.89281 12.3056 8.75131 12.2395Z" fill="#BB6361"/>
<path d="M10.8216 8.84337L10.191 4.17188H8.75647L9.38704 8.84337C9.51975 9.82651 9.04753 10.736 8.27508 11.2249C8.17439 11.2886 8.14718 11.4231 8.21834 11.5187C8.25655 11.5701 8.31688 11.6004 8.3809 11.6003C8.45884 11.6002 8.51534 11.5993 8.59409 11.5935C9.97629 11.4917 11.0103 10.2415 10.8216 8.84337Z" fill="#C86D36"/>
<path d="M5.45825 0.544133V3.62959C5.45825 4.32832 6.02469 4.89475 6.72342 4.89475H10.203V3.97816C10.203 1.78216 8.42284 0.00195313 6.22684 0.00195313H6.0005C5.70101 0.00191797 5.45825 0.244672 5.45825 0.544133Z" fill="#AC5E2E"/>
<path d="M6.22683 0.00112348C5.99603 0.00112348 5.86722 -0.0166304 5.70508 0.0890141C7.50272 0.470706 8.85181 2.06596 8.85181 3.97733V4.89393H10.203V3.97733C10.203 1.78133 8.42283 0.00112348 6.22683 0.00112348Z" fill="#9E5528"/>
<path d="M0.713379 3.97816V4.89475H4.19301C4.89174 4.89475 5.45817 4.32832 5.45817 3.62959V0.544168C5.45817 0.244707 5.21542 0.00195312 4.91596 0.00195312H4.68962C2.49359 0.00195312 0.713379 1.78216 0.713379 3.97816Z" fill="#AC5E2E"/>
<circle cx="1.03854" cy="7.26998" r="0.346154" fill="#BB6261"/>
</svg>
