<svg width="160" height="153" viewBox="0 0 160 153" fill="none" xmlns="http://www.w3.org/2000/svg">
<path d="M15.2304 152.926C15.2304 152.926 -8.72451 103.92 4.09267 65.6484C42.858 -50.0528 162.328 9.81066 151.161 73.0159C145.021 107.774 167.834 118.189 155.961 153L15.2304 152.926Z" fill="#FFF3EE"/>
<path d="M74.7282 82.1465L76.4695 82.7172C76.4695 82.7172 79.2363 81.7933 81.6557 85.0662C81.6557 85.0662 82.4132 86.2845 81.4789 87.2128C80.6206 88.0672 80.4526 86.0535 78.7996 86.4557C77.1466 86.8579 76.0267 86.2301 75.2895 85.2116L74.0723 84.4777L74.7282 82.1465Z" fill="#FFB27D"/>
<path d="M110.473 26.7454C110.484 26.4377 110.72 23.1183 115.731 22.9453C115.731 22.9453 113.268 23.2414 112.842 24.3348C112.842 24.3348 114.521 22.9837 115.886 23.418C117.251 23.8523 118.054 26.2718 118.063 27.062C118.072 27.8522 117.312 30.4171 116.444 30.6356C116.098 30.706 115.741 30.706 115.394 30.6356C115.642 31.026 115.866 31.4307 116.067 31.8476C118.067 35.9892 116.004 40.0364 114.312 39.5887C113.226 39.3024 112.919 41.1708 112.919 41.1708L102.372 32.5566C102.372 32.5566 106.246 24.4695 110.473 26.7454Z" fill="#2C3A64"/>
<path d="M84.5931 74.1964C84.5931 74.1964 82.5026 73.7853 82.0252 74.1964C81.5479 74.6075 79.285 76.9307 79.7659 77.6941C80.2467 78.4575 82.5777 77.0618 83.0621 76.9307C83.5465 76.7996 84.8981 76.2663 84.8981 76.2663L84.5931 74.1964Z" fill="#FFB27D"/>
<path d="M106.8 148.744L109.041 149.586C109.041 149.586 118.771 135.969 119.969 123.99C120.183 121.85 120.112 119.779 119.649 117.865C119.649 117.865 119.744 117.318 119.914 116.349C119.991 115.897 120.086 115.353 120.194 114.729C120.511 112.9 120.946 110.398 121.443 107.549C122.592 100.992 124.071 92.6104 125.224 86.4487L124.62 86.2534L118.089 84.1272L116.738 79.8001L111.876 78.5078C111.876 78.5078 110.79 80.6527 109.818 90.7821C109.642 92.11 109.476 93.5753 109.354 95.1646C108.906 101.081 109.061 107.028 109.817 112.912C110.04 114.673 110.321 116.49 110.671 118.358C110.927 119.727 110.966 121.593 110.857 123.735C110.363 133.524 106.8 148.744 106.8 148.744Z" fill="#2B478B"/>
<path d="M109.351 95.1646L119.912 116.347C119.988 115.895 120.084 115.351 120.192 114.727C120.508 112.899 120.943 110.396 121.441 107.547C122.59 100.99 124.069 92.6086 125.221 86.4469L124.618 86.2516L118.086 84.1255L116.739 79.8001L111.877 78.5078C111.877 78.5078 110.791 80.6527 109.82 90.7821C109.636 92.11 109.473 93.5753 109.351 95.1646Z" fill="#233862"/>
<path d="M113.998 81.2265L114.242 79.1119C118.338 80.2089 129.281 76.0449 129.281 76.0449C129.281 76.0449 133.249 79.5632 132.729 87.9955C132.474 92.1131 132.01 109.608 131.525 114.785C131.348 116.658 131.196 117.996 131.133 118.531C131.133 118.532 131.133 118.534 131.133 118.535C131.122 118.697 131.164 118.858 131.252 118.994C131.956 120.206 132.555 121.477 133.043 122.793C137.804 135.595 132.309 151.36 132.309 151.36L130.883 150.781C130.883 150.781 127.757 133.236 125.215 125.485C124.784 124.17 124.371 123.137 123.992 122.519C122.887 120.72 121.862 117.782 120.932 114.286C119.173 107.676 117.757 99.0783 116.815 92.4422C116.683 92.452 113.998 81.2265 113.998 81.2265Z" fill="#2B478B"/>
<path d="M84.5933 74.1975L84.8982 76.2674C84.8982 76.2674 85.0335 76.2674 85.2712 76.2505C86.0173 76.1987 87.8346 76.0962 89.8827 75.8732C92.9685 75.5655 96.6307 75.0188 98.0883 74.1118C100.31 72.7438 103.954 68.553 106.328 64.3614C106.391 64.2626 106.447 64.1598 106.497 64.0537C107.735 61.8304 108.6 59.6231 108.667 57.8617C108.721 56.917 108.624 55.9696 108.379 55.056C108.132 54.1365 107.706 53.2759 107.125 52.525C107.06 52.4169 106.981 52.3189 106.888 52.2343C106.074 51.2586 105.276 50.8484 105.276 50.8484C104.87 50.6771 104.429 50.8831 103.972 51.3835V51.4004C103.599 51.7937 103.191 52.3921 102.801 53.1448C102.785 53.1618 102.768 53.1796 102.768 53.1966C102.679 53.35 102.598 53.5212 102.496 53.7094C102.468 53.7453 102.445 53.7856 102.428 53.8289C102.242 54.2231 102.056 54.6336 101.869 55.0605C99.7837 59.6454 97.9981 66.3868 96.1498 68.4514C95.3543 69.3432 91.2732 71.2936 88.3712 72.5939C86.2886 73.5134 84.5933 74.1975 84.5933 74.1975Z" fill="#FFB27D"/>
<path d="M88.2891 69.7239C90.7208 68.6091 93.5132 69.5456 94.6181 74.2277C95.3554 77.3554 102.529 80.8273 99.3031 85.6022C96.2092 89.3479 88.7797 86.898 89.4029 82.1454C90.026 77.3928 91.6127 73.4197 89.8864 72.6616C87.7331 71.7154 88.2891 69.7239 88.2891 69.7239Z" fill="#ED7D2B"/>
<path d="M84.0894 83.4635C89.1897 82.7277 94.0779 82.9052 94.3528 88.5683C94.6277 94.2314 95.951 104.884 94.3608 106.982C92.7706 109.08 84.428 108.781 84.428 108.781C78.8477 99.1811 84.0894 83.4635 84.0894 83.4635Z" fill="#FFB93E"/>
<path d="M106.171 55.57C107.457 56.172 109.01 56.5814 110.888 56.6848C117.93 57.0746 119.529 50.846 119.816 46.7123C118.801 46.3413 117.912 46.377 117.4 46.4047C116.887 46.4323 116.38 46.484 115.949 46.5375C115.088 46.0836 113.54 43.8781 112.646 40.1895L112.343 40.3313L107.262 42.7392C107.262 42.7392 107.801 44.4078 108.2 46.0042C108.511 47.2528 108.73 48.4603 108.547 48.7974C108.147 48.9624 107.907 49.065 107.907 49.065C107.907 49.0671 107.907 49.0692 107.907 49.0712C107.124 51.1765 106.542 53.3527 106.171 55.57Z" fill="#FFB27D"/>
<path d="M107.264 42.7417C107.264 42.7417 107.805 44.4086 108.202 46.0067C111.172 45.1702 112.074 42.0203 112.345 40.332L107.264 42.7417Z" fill="#ED985F"/>
<path d="M106.64 44.503C106.64 44.503 113.745 42.8442 112.65 38.3957C111.555 33.9473 111.74 30.7367 107.157 31.608C102.573 32.4793 102.113 34.3959 102.118 35.97C102.124 37.544 104.763 44.8232 106.64 44.503Z" fill="#FFB27D"/>
<path d="M101.722 33.4447C102.486 31.8322 103.385 31.9187 103.947 32.2041C107.287 29.0881 110.561 31.6343 110.561 31.6343C111.821 34.7066 114.553 35.9614 114.553 35.9614C114.553 35.9614 113.462 37.0896 110.298 37.0646C109.331 37.0566 108.36 36.6089 107.476 35.9944C109.181 37.7272 111.18 38.7823 111.18 38.7823C107.22 38.0171 104.564 33.3912 104.293 32.8962C103.957 33.3965 103.315 34.4605 103.261 35.3585C103.188 36.5803 103.604 38.9517 102.907 39.0409C102.911 39.0454 100.577 35.866 101.722 33.4447Z" fill="#2C3A64"/>
<path d="M101.851 55.0474C102.107 54.2724 103.819 51.2616 103.819 51.2616C103.826 51.2554 104.906 50.2565 107.91 49.0659C107.91 49.068 107.91 49.0701 107.91 49.0721C107.862 49.2505 106.584 53.9344 107.049 54.9342C107.523 55.9517 116.525 52.668 117.017 51.9189C117.409 51.3178 117.421 48.1384 117.409 46.8996C117.409 46.5919 117.404 46.4038 117.404 46.4038C117.404 46.4038 120.763 45.9436 122.654 46.715C122.654 46.715 121.908 48.3506 121.633 50.153C121.607 50.3252 121.585 50.4964 121.569 50.6676C121.532 51.0269 121.522 51.3887 121.542 51.7494C121.569 52.2185 121.807 52.6332 122.191 53.039C122.538 53.4118 123.01 53.7792 123.544 54.1725C123.898 54.4267 124.269 54.6943 124.657 54.9841C124.69 57.1067 124.541 60.6027 124.931 64.3225C125.029 65.2643 125.337 66.1717 125.83 66.9775C126.025 67.2981 126.248 67.6007 126.495 67.8818C128.48 70.1274 131.999 74.6044 131.225 77.3905C131.169 80.0188 109.2 83.4711 109.67 80.5851C109.67 80.5851 106.369 64.5321 104.585 60.6571C104.521 60.5153 104.463 60.3761 104.408 60.2343C103.836 58.7048 103.933 57.1325 104.126 55.7243C103.126 54.9993 101.851 55.0474 101.851 55.0474Z" fill="#F99746"/>
<path d="M115.589 75.1888C119.92 75.1425 123.591 70.603 125.834 66.975C125.341 66.1707 125.033 65.2649 124.934 64.3245C124.544 60.6002 124.693 57.1087 124.66 54.9861C124.272 54.6963 123.897 54.4287 123.547 54.1745C123.017 53.7812 122.541 53.4138 122.194 53.041C118.641 59.0912 109.71 75.2513 115.589 75.1888Z" fill="#ED7D2B"/>
<path d="M99.207 77.5666L99.8002 79.7551C99.8002 79.7551 100.546 79.6187 101.733 79.3984C102.087 79.3297 102.293 79.2789 102.293 79.2789C103.242 79.0907 104.378 78.833 105.616 78.5601H105.632C107.754 78.0464 110.125 77.431 112.126 76.747C113.533 76.2511 114.754 75.7205 115.585 75.1907C115.668 75.139 115.747 75.0818 115.822 75.0195C117.806 73.5649 120.163 69.2886 121.993 64.7046C122.248 64.0714 122.485 63.4391 122.722 62.8228C123.57 60.5308 124.248 58.2745 124.655 56.3231C124.909 55.1638 125.079 54.0989 125.113 53.2267C125.135 52.9365 125.141 52.6453 125.129 52.3545C125.096 47.3941 122.654 46.7092 122.654 46.7092C122.604 46.6922 122.553 46.6753 122.485 46.6584C122.061 46.5897 121.62 46.8804 121.159 47.4449C120.582 48.1468 119.973 49.2928 119.345 50.6778C118.379 52.8842 117.361 55.7417 116.412 58.5812C115.886 60.1375 115.378 61.6937 114.869 63.1296C114.581 64.0027 114.292 64.8241 114.021 65.5759C113.496 67.0126 113.021 68.1756 112.597 68.9113C112.326 69.3902 111.546 70.0573 110.512 70.81C108.715 72.1273 106.087 73.7183 103.798 75.0186C102.849 75.5653 101.95 76.062 101.204 76.4723C100.003 77.1385 99.207 77.5666 99.207 77.5666Z" fill="#FFB27D"/>
<path d="M119.355 50.6818C122.618 49.7739 125.136 52.3451 125.136 52.3451C125.095 47.3928 122.652 46.715 122.652 46.715C121.669 46.3038 120.53 48.0215 119.355 50.6818Z" fill="#F99746"/>
<path d="M124.018 152.538H135.302C135.302 152.538 135.572 150.803 134.983 149.487C134.418 148.223 133.534 147.65 133.745 146.121C133.028 146.866 131.86 147.7 130.229 147.478C130.028 147.806 128.938 149.556 128.271 150.039C127.532 150.574 124.245 150.383 124.018 152.538Z" fill="#233862"/>
<path d="M99.7896 152.539H111.073C111.073 152.539 111.496 150.723 110.755 149.488C110.099 148.395 110.35 147.771 110.836 146.867C110.237 147.127 109.588 147.249 108.936 147.224C108.373 147.192 107.779 146.934 107.256 146.629C106.771 147.187 104.693 149.565 104.041 150.036C103.303 150.575 100.017 150.384 99.7896 152.539Z" fill="#233862"/>
<path d="M74.5005 112.549C74.5005 112.549 79.0475 145.087 78.5224 149.104L81.3926 148.753C81.3926 148.753 84.9832 134.55 84.5518 130.575C84.1205 126.6 88.1097 110.219 84.4281 108.779C80.7465 107.339 74.5005 112.549 74.5005 112.549Z" fill="#F0995E"/>
<path d="M78.6353 112.59C78.6353 112.59 85.1216 145.158 84.8432 149.201L87.6815 148.539C87.6815 148.539 90.4412 133.898 89.7676 129.958C89.0941 126.018 92.0765 109.42 88.3144 108.21C84.5524 107.001 78.6353 112.59 78.6353 112.59Z" fill="#FFB27D"/>
<path d="M78.5574 148.534C78.5574 148.534 77.875 149.797 76.5756 150.09C75.758 150.275 75.0588 150.714 74.6257 151.315C74.5427 151.43 74.4929 151.566 74.4819 151.708C74.4708 151.85 74.4988 151.992 74.5629 152.118C74.627 152.245 74.7246 152.351 74.8449 152.425C74.9652 152.499 75.1035 152.538 75.2444 152.538L81.8457 152.501C81.9783 152.5 82.1094 152.471 82.2303 152.416C82.3513 152.361 82.4594 152.281 82.5479 152.181C82.6363 152.081 82.703 151.964 82.7438 151.836C82.7845 151.709 82.7983 151.574 82.7844 151.441C82.7322 150.948 82.6774 150.371 82.6536 149.933C82.5988 148.972 81.5663 148.107 81.5663 148.107C81.5663 148.107 80.6603 148.633 80.3103 148.694C79.5518 148.828 78.5574 148.534 78.5574 148.534Z" fill="#2C3A64"/>
<path d="M84.7646 148.534C84.7646 148.534 84.0831 149.797 82.7837 150.09C81.9651 150.275 81.2668 150.714 80.8337 151.315C80.7507 151.43 80.7009 151.566 80.6899 151.708C80.6788 151.85 80.7068 151.992 80.7709 152.118C80.835 152.245 80.9326 152.351 81.0529 152.425C81.1732 152.499 81.3115 152.538 81.4524 152.538L88.0538 152.501C88.1865 152.5 88.3176 152.471 88.4385 152.416C88.5594 152.361 88.6676 152.281 88.7561 152.181C88.8445 152.081 88.9112 151.964 88.952 151.836C88.9927 151.709 89.0065 151.574 88.9926 151.441C88.9404 150.948 88.8856 150.371 88.8609 149.933C88.807 148.972 87.7736 148.107 87.7736 148.107C87.7736 148.107 86.8676 148.633 86.5184 148.694C85.76 148.828 84.7646 148.534 84.7646 148.534Z" fill="#35488B"/>
<path d="M77.2982 84.3633C77.2982 84.3633 72.9846 91.7013 72.1147 97.6847C72.1147 97.6847 74.2124 100.539 75.0663 98.5355C75.9202 96.5324 82.0442 85.7956 77.2982 84.3633Z" fill="#FFB27D"/>
<path d="M78.1196 71.3362C78.1665 71.2577 80.097 68.1783 83.7053 67.5638C86.6284 67.0661 89.3625 69.1503 89.8142 72.1068C90.2659 75.0775 89.8044 78.9266 85.0011 80.3116L78.1196 71.3362Z" fill="#ED7D2B"/>
<path d="M79.0044 84.575L84.4407 87.8329L85.8762 83.9766C85.8762 83.9766 85.1823 82.5657 85.0056 80.3148C84.9183 79.2333 84.9479 78.1454 85.094 77.0703L80.3666 79.1411C80.4268 79.4951 80.4655 79.8525 80.4824 80.2113C80.5168 80.8971 80.4939 81.8166 80.2472 82.6781C80.0298 83.4157 79.6532 84.1086 79.0044 84.575Z" fill="#FFB27D"/>
<path d="M91.4977 118.962C90.9912 113.1 90.2336 105.393 89.7563 102.229C89.5989 101.186 89.5911 100.125 89.7333 99.0797L90.8515 90.7553L91.2051 88.1431C91.2947 87.4705 91.162 86.7869 90.8276 86.1981C90.4931 85.6092 89.9755 85.1481 89.355 84.8862C88.1926 84.3975 87.3414 84.2842 85.8767 83.9756C84.9671 84.8041 83.1992 85.9938 81.3279 85.6255C79.9225 85.3473 79.6484 84.6445 79.7192 83.832C79.3656 83.8668 79.0359 83.8445 78.7309 83.8864C78.1621 83.9647 77.6158 84.162 77.127 84.4658C76.6382 84.7696 76.2177 85.1731 75.8926 85.6505L75.8705 85.6906C75.7683 85.842 75.6765 86.0002 75.5956 86.1642L73.5289 89.7315C73.5289 89.7315 73.7287 90.9729 74.7443 91.5446C73.7287 102.826 72.5531 128.3 73.5015 128.626C79.6431 130.741 90.5412 127.799 92.0174 126.377C92.0881 126.297 91.8548 123.086 91.4977 118.962Z" fill="#2C3A64"/>
<path d="M78.0755 84.5739C74.8933 87.1459 73.8237 93.6269 74.2409 98.0407C75.0365 96.0376 74.9879 93.0669 75.7604 89.9133C76.5118 86.8472 78.6102 84.457 78.6102 84.457C78.5307 84.4588 78.0755 84.5739 78.0755 84.5739Z" fill="#FFB93E"/>
<path d="M80.2422 82.6737C82.8498 82.77 85.0012 80.3114 85.0012 80.3114L80.4773 80.207C80.5118 80.8955 80.4888 81.8158 80.2422 82.6737Z" fill="#ED985F"/>
<path d="M79.0719 81.1321C79.0719 81.1321 84.1776 82.8489 86.2319 78.7973C88.4489 74.4273 86.5351 71.0133 84.7849 70.6816C81.2924 70.01 79.1709 71.2345 78.4638 72.6249C77.7566 74.0153 76.2539 80.2109 79.0719 81.1321Z" fill="#FFB27D"/>
<path d="M81.2786 78.9178C81.2786 78.9178 81.0267 79.444 79.676 79.0533C79.676 79.0533 78.5419 78.7251 78.7116 78.1222C78.7116 78.1249 79.9209 77.9367 81.2786 78.9178Z" fill="white"/>
<path d="M91.4984 118.962C91.3375 118.773 81.0025 106.608 80.626 100.136C80.2521 93.6128 85.8102 88.8468 85.8102 88.8468C88.0254 88.6996 89.6616 89.4309 90.8487 90.7553L89.734 99.0833C89.5918 100.129 89.5996 101.189 89.757 102.232C90.2343 105.393 90.9919 113.1 91.4984 118.962Z" fill="#232E4F"/>
<path d="M87.4393 84.1562C82.5078 85.3031 81.1818 93.5249 83.4474 99.8195C85.1269 104.49 90.313 106.715 90.313 106.715C90.8752 106.077 90.4412 104.641 90.4412 104.641C82.8392 99.7517 84.1165 92.8409 85.8756 89.3538C87.6347 85.8667 87.9883 84.5736 90.5844 85.51C90.26 84.0456 87.4393 84.1562 87.4393 84.1562Z" fill="#FFB93E"/>
<path d="M82.6492 71.1588C82.6492 71.1588 82.1648 75.9917 86.7092 77.704C88.516 78.3853 89.4565 71.0036 85.6812 69.5303C81.9058 68.057 78.1826 69.8068 77.7371 72.3842C77.2916 74.9616 77.6311 75.4976 77.6311 75.4976C77.6311 75.4976 79.3981 70.5952 82.6492 71.1588Z" fill="#ED7D2B"/>
<path d="M85.4083 86.9673C85.4083 86.9673 83.3257 95.2837 83.2435 98.5915C83.2435 98.5915 78.67 106.65 78.4012 107.223C78.1325 107.795 80.0551 108.579 80.0551 108.579C80.0551 108.579 85.7919 102.406 86.8986 99.8115C88.0053 97.2172 91.9274 88.7813 90.3575 86.2627C88.7876 83.7442 85.4083 86.9673 85.4083 86.9673Z" fill="#FFB27D"/>
<path d="M72.1154 97.6862C72.1154 97.6862 71.7053 103.35 75.7007 107.813C75.7007 107.813 76.7915 106.489 76.6545 106.077C76.5175 105.666 74.9529 99.353 73.8108 98.4549C72.6688 97.5568 72.1154 97.6862 72.1154 97.6862Z" fill="#FFB27D"/>
<path d="M78.4008 107.225C78.4008 107.225 75.8435 107.206 75.7003 107.812C75.5571 108.419 76.358 110.318 78.2284 109.657C80.0988 108.996 80.0546 108.581 80.0546 108.581L78.4008 107.225Z" fill="#FFB27D"/>
<path d="M76.6547 106.076C76.6547 106.076 78.709 107.034 78.0107 108.055C77.3123 109.076 75.9165 108.465 75.7009 107.812C75.4852 107.158 76.6547 106.076 76.6547 106.076Z" fill="#FFB27D"/>
<path d="M83.9036 91.3573C83.9036 91.3573 86.5855 93.874 90.7206 93.4843C90.7206 93.4843 92.7581 86.198 89.4902 85.3035C86.2222 84.409 83.5227 88.7273 83.9036 91.3573Z" fill="#2C3A64"/>
<path d="M51.9995 43.5156C51.9995 43.5156 58.1871 53.2749 56.2301 71.108C55.6193 76.6748 74.9635 85.5102 74.9635 85.5102C74.9635 85.5102 76.4167 84.3633 75.7935 82.3076C75.7935 82.3076 65.0563 71.4951 63.9646 70.1671C62.9922 68.989 60.3758 56.4418 59.2452 52.2654C57.3023 45.0826 51.9995 43.5156 51.9995 43.5156Z" fill="#233862"/>
<path d="M23.6136 142.582C23.6136 142.582 21.4921 144.532 21.9093 145.918C22.3266 147.304 24.2332 148.227 24.4922 149.92C24.7512 151.613 25.7837 152.538 26.7136 152.538H31.1466C31.1466 152.538 31.8307 151.346 30.1742 150.987C28.5177 150.627 27.8981 148.638 28.0015 146.79C28.1049 144.942 27.8468 142.479 27.8468 142.479L24.3331 141.658L23.6136 142.582Z" fill="#233862"/>
<path d="M49.5988 147.625C49.5988 147.625 49.2178 152.064 50.1477 152.53L62.0482 152.505C62.0482 152.505 62.0482 151.119 60.1371 150.811C58.226 150.502 54.8679 149.374 54.3031 146.859C53.7383 144.344 49.5988 147.625 49.5988 147.625Z" fill="#233862"/>
<path d="M59.6458 84.9328C59.6458 84.9328 59.0182 92.7132 58.2801 102.065C57.2777 114.768 56.0702 130.372 55.9527 133.328C55.7458 138.462 54.9185 146.672 54.9185 146.672C54.9185 146.672 52.957 148.623 49.0297 147.801C49.0297 147.801 45.5301 136.079 44.5304 123.678C44.5154 123.474 44.4995 123.27 44.4844 123.065C43.5545 110.44 42.1084 83.8555 42.1084 83.8555L59.6458 84.9328Z" fill="#FFB93E"/>
<path d="M59.6458 84.9328C59.6458 84.9328 59.0182 92.7132 58.2801 102.065L44.5304 123.678C44.5154 123.474 44.4995 123.27 44.4844 123.065C43.5545 110.44 42.1084 83.8555 42.1084 83.8555L59.6458 84.9328Z" fill="#E3A330"/>
<path d="M56.7792 85.8555C56.7792 85.8555 45.4648 114.031 38.0273 127.271C30.5898 140.512 28.2633 144.21 28.2633 144.21C28.2633 144.21 24.0018 142.516 23.6138 141.361C23.6138 141.361 26.4583 115.8 31.4402 109.568C34.2555 106.047 37.5624 95.4775 37.7162 91.7862C37.87 88.0949 38.723 80.7773 38.723 80.7773L56.7792 85.8555Z" fill="#FFB93E"/>
<path d="M41.8945 42.4358C41.8945 42.4358 49.5486 46.1619 53.9621 44.7796C53.1219 43.7978 52.109 42.9814 50.9744 42.3716C51.1273 41.4798 51.2457 40.703 51.3138 40.0448C51.421 39.2553 51.4845 38.4603 51.5038 37.6636L48.5479 35.3172L45.7467 33.0742C45.9677 39.384 41.8945 42.4358 41.8945 42.4358Z" fill="#FFB27D"/>
<path d="M60.1284 85.5742C60.0034 85.6909 59.8399 85.7567 59.6696 85.7588C58.0069 85.7249 53.1691 86.6506 49.08 86.2306C45.6167 85.8935 42.5618 84.8821 39.2859 83.4329C38.8439 83.2305 37.8424 82.69 37.8601 82.2191C37.8778 81.6787 37.9282 80.9206 37.9953 79.9414C38.1323 78.015 38.3259 75.2798 38.3869 72.0361C38.4329 69.6282 38.4073 66.9527 38.234 64.1078C38.2243 63.9169 38.2146 63.7243 38.2057 63.5325C38.1562 62.4909 38.1323 61.4412 38.1323 60.4111C38.1147 57.106 38.3516 53.9533 38.8262 51.136C39.6598 46.2452 41.2049 42.3907 43.5111 40.6873C43.8179 40.4501 45.7351 41.4008 47.4995 42.2659C49.1127 43.0587 50.7241 43.1434 52.2516 42.8402L53.779 44.1886C55.6353 45.8903 57.6683 48.234 58.5664 51.7764C59.3125 54.7783 59.7536 60.2069 59.9922 65.8397C60.1098 68.4019 60.1955 70.9651 60.2291 73.4087V73.4934C60.2477 73.7458 60.2477 74.0009 60.2477 74.2541C60.3317 80.5148 60.2486 85.4895 60.1284 85.5742Z" fill="#2B478B"/>
<path d="M45.6963 35.4885C45.6963 35.4885 47.6312 39.046 51.3137 40.0368C51.4207 39.2497 51.4842 38.4571 51.5038 37.6628L48.5479 35.3164L45.6963 35.4885Z" fill="#ED985F"/>
<path d="M52.8474 37.5629C52.8474 37.5629 45.5452 38.7687 44.8592 34.2391C44.1733 29.7094 42.7696 26.8145 47.4032 25.8558C52.0369 24.8971 53.2063 26.4899 53.8021 27.9418C54.3979 29.3937 54.7294 37.1331 52.8474 37.5629Z" fill="#FFB27D"/>
<path d="M42.2055 25.3093C42.1392 25.2326 41.9863 25.1701 41.646 25.1514C41.8404 25.0409 42.0585 24.9797 42.2815 24.973C42.3523 24.4959 42.6042 23.6504 43.4183 23.4453C43.2859 23.5238 43.1727 23.6313 43.0872 23.7599C43.0017 23.8885 42.9459 24.0349 42.9242 24.1882C43.8673 23.2072 45.888 22.4991 51.4843 22.945C58.8598 23.5327 56.4343 28.296 55.4744 28.865C54.5144 29.434 52.1154 27.876 50.3369 28.0178C48.5584 28.1596 48.2199 30.7521 47.6144 31.108C47.0089 31.4638 47.2484 30.8351 46.4316 30.4623C45.6149 30.0895 45.5371 31.4549 45.7731 32.3432C46.0091 33.2314 44.8892 34.4015 44.8892 34.4015L43.7551 33.169C42.621 31.9374 41.5523 26.7193 42.0685 25.6071C42.1136 25.5064 42.1587 25.4091 42.2055 25.3093Z" fill="#ED7D2B"/>
<path d="M77.2526 83.067C77.2526 83.067 78.187 82.6443 78.7447 83.2516C79.3025 83.8589 80.6072 84.2763 80.4949 84.5893C80.2633 85.2466 79.0603 84.5055 77.7892 84.905C77.3437 85.0477 75.9648 84.1907 77.2526 83.067Z" fill="#FFB27D"/>
<path d="M38.3868 72.037C38.4327 69.6291 38.4071 66.9536 38.2339 64.1086C38.2241 63.9178 38.2144 63.7251 38.2056 63.5334C38.9003 60.0633 39.9505 56.9847 41.4956 56.8848C41.4956 56.8848 46.1001 64.1853 38.3868 72.037Z" fill="#233862"/>
<path d="M32.2964 84.6266C32.2964 84.6266 32.68 88.3911 33.1017 89.1028C33.5233 89.8145 35.3115 92.0913 36.0788 92.5372C36.846 92.9832 35.6129 89.5407 35.7694 88.8691C35.9258 88.1975 36.3979 90.0918 36.7346 90.1364C37.0714 90.181 36.9848 88.4767 36.9998 87.8569C37.0149 87.237 35.3575 85.7057 34.7758 84.384C34.1942 83.0623 32.2964 84.6266 32.2964 84.6266Z" fill="#FFB27D"/>
<path d="M43.5317 40.6855C43.5317 40.6855 38.9113 42.8928 36.6962 46.2863C33.2594 51.5499 29.2764 70.735 29.203 72.508C29.1296 74.281 32.1103 86.8264 32.1103 86.8264C32.1103 86.8264 35.1334 86.6257 35.9112 85.0855C35.9112 85.0855 35.3075 72.1994 35.6902 71.3709C36.073 70.5424 48.2935 54.0845 46.9163 50.5733C45.5391 47.0622 43.5317 40.6855 43.5317 40.6855Z" fill="#2B478B"/>
<path d="M92.1877 79.6854C93.2731 80.1474 94.7988 81.7554 97.2403 80.7797C98.9869 80.0957 100.834 79.6203 101.733 79.3947C102.087 79.326 102.293 79.2752 102.293 79.2752L101.326 76.4355C101.288 76.4515 101.248 76.4629 101.207 76.4694C100.581 76.6059 97.3932 77.2908 95.9038 76.9484C94.2243 76.5551 91.4107 78.5903 91.4107 78.5903C91.4107 78.5903 91.104 79.2404 92.1877 79.6854Z" fill="#FFB27D"/>
<path d="M85.3137 17.3555H70.4193C69.4766 17.3583 68.5734 17.7374 67.9069 18.41C67.2404 19.0826 66.8649 19.994 66.8623 20.9451V26.6288C66.8626 27.4979 67.1769 28.3372 67.7462 28.9894L66.8623 33.0705L71.9635 30.2166H85.3111C86.2537 30.2138 87.157 29.8347 87.8235 29.1621C88.4899 28.4895 88.8655 27.578 88.8681 26.627V20.9451C88.8655 19.9945 88.4903 19.0835 87.8244 18.411C87.1585 17.7384 86.2559 17.359 85.3137 17.3555Z" fill="#FFD8C8"/>
<path d="M85.5946 21.6871H70.1548C70.0017 21.6869 69.8549 21.6255 69.7465 21.5163C69.6382 21.4072 69.5771 21.2592 69.5767 21.1047C69.5771 20.9502 69.6382 20.8021 69.7465 20.6928C69.8548 20.5836 70.0016 20.522 70.1548 20.5215H85.5946C85.7478 20.522 85.8945 20.5836 86.0028 20.6928C86.1112 20.8021 86.1722 20.9502 86.1727 21.1047C86.1722 21.2592 86.1111 21.4072 86.0028 21.5163C85.8945 21.6255 85.7477 21.6869 85.5946 21.6871Z" fill="#FFF7F1"/>
<path d="M85.5946 24.2388H70.1548C70.0016 24.2383 69.8548 24.1767 69.7465 24.0674C69.6382 23.9582 69.5771 23.8101 69.5767 23.6555C69.5771 23.501 69.6382 23.3529 69.7465 23.2436C69.8548 23.1343 70.0016 23.0727 70.1548 23.0723H85.5946C85.7478 23.0727 85.8945 23.1343 86.0028 23.2436C86.1112 23.3529 86.1722 23.501 86.1727 23.6555C86.1722 23.8101 86.1112 23.9582 86.0028 24.0674C85.8945 24.1767 85.7478 24.2383 85.5946 24.2388Z" fill="#FFF7F1"/>
<path d="M85.5946 26.693H70.1548C70.0016 26.6925 69.8548 26.6309 69.7465 26.5216C69.6382 26.4123 69.5771 26.2643 69.5767 26.1097C69.5771 25.9552 69.6382 25.8073 69.7465 25.6981C69.8549 25.589 70.0017 25.5276 70.1548 25.5273H85.5946C85.7477 25.5276 85.8945 25.589 86.0028 25.6981C86.1111 25.8073 86.1722 25.9552 86.1727 26.1097C86.1722 26.2643 86.1112 26.4123 86.0028 26.5216C85.8945 26.6309 85.7478 26.6925 85.5946 26.693Z" fill="#FFF7F1"/>
</svg>
