<svg width="26" height="26" viewBox="0 0 26 26" fill="none" xmlns="http://www.w3.org/2000/svg">
<path d="M22.8008 7.36328H2.28516C1.02512 7.36328 0 8.3884 0 9.64844V18.7891C0 20.0491 1.02512 21.0742 2.28516 21.0742H22.8008C24.0608 21.0742 25.0859 20.0491 25.0859 18.7891V9.64844C25.0859 8.3884 24.0608 7.36328 22.8008 7.36328ZM6.02982 15.4039C5.83507 15.4039 5.50235 15.4053 5.19091 15.4068V17.1637C5.19091 17.5844 4.84986 17.9254 4.42919 17.9254C4.00852 17.9254 3.66747 17.5844 3.66747 17.1637L3.65625 11.3774C3.65559 11.175 3.73557 10.9806 3.87847 10.8372C4.02137 10.6938 4.21555 10.6133 4.41797 10.6133H6.02982C7.36821 10.6133 8.45711 11.6878 8.45711 13.0086C8.45711 14.3294 7.36821 15.4039 6.02982 15.4039ZM12.5688 17.7418C12.1151 17.7497 10.9803 17.754 10.9322 17.7542C10.9313 17.7542 10.9303 17.7542 10.9293 17.7542C10.7284 17.7542 10.5354 17.6748 10.3927 17.5331C10.2493 17.3907 10.1684 17.1973 10.1676 16.9952C10.1676 16.9749 10.1562 11.3765 10.1562 11.3765C10.1559 11.1742 10.2359 10.9801 10.3788 10.8369C10.5217 10.6938 10.7157 10.6133 10.918 10.6133H12.5089C14.3214 10.6133 15.5392 12.0482 15.5392 14.1838C15.5392 16.2153 14.2899 17.7117 12.5688 17.7418ZM20.3745 13.3732C20.7951 13.3732 21.1362 13.7143 21.1362 14.135C21.1362 14.5556 20.7951 14.8967 20.3745 14.8967H18.9922V17.0625C18.9922 17.4832 18.6511 17.8242 18.2305 17.8242C17.8098 17.8242 17.4688 17.4832 17.4688 17.0625V11.3162C17.4688 10.8955 17.8098 10.5545 18.2305 10.5545H20.5595C20.9801 10.5545 21.3212 10.8955 21.3212 11.3162C21.3212 11.7369 20.9801 12.0779 20.5595 12.0779H18.9922V13.3732H20.3745Z" fill="#D63F3C"/>
<path d="M12.5095 12.1367H11.6816C11.6828 12.8243 11.687 15.5652 11.6891 16.2268C12.0061 16.2248 12.3455 16.222 12.5428 16.2185C13.5607 16.2007 14.0163 15.1837 14.0163 14.1838C14.0163 13.7035 13.9077 12.1367 12.5095 12.1367Z" fill="#D63F3C"/>
<path d="M6.02948 12.1367H5.18164C5.18255 12.4757 5.18342 12.8363 5.18342 13.0086C5.18342 13.2099 5.18484 13.5592 5.18646 13.8834C5.49907 13.8819 5.83301 13.8804 6.02954 13.8804C6.51947 13.8804 6.93339 13.4812 6.93339 13.0086C6.93339 12.536 6.51942 12.1367 6.02948 12.1367Z" fill="#D63F3C"/>
<path d="M22.0114 5.83984C21.8348 5.3559 21.5606 4.90862 21.1975 4.52563L18.0336 1.18823C17.3177 0.433113 16.3103 0 15.2697 0H5.12891C3.86887 0 2.84375 1.02512 2.84375 2.28516V5.83984H22.0114Z" fill="#D63F3C"/>
<path d="M2.84375 22.5977V23.7148C2.84375 24.9749 3.86887 26 5.12891 26H19.957C21.2171 26 22.2422 24.9749 22.2422 23.7148V22.5977H2.84375Z" fill="#D63F3C"/>
</svg>
