<svg width="18" height="16" viewBox="0 0 18 16" fill="none" xmlns="http://www.w3.org/2000/svg">
<path d="M3.63279 7.94169C5.77072 7.94169 7.0824 6.4713 7.0824 4.10854V4.0984C7.0824 1.74578 5.77072 0.275391 3.63279 0.275391C1.48453 0.275391 0.172852 1.74578 0.172852 4.0984V4.10854C0.172852 6.4713 1.48453 7.94169 3.63279 7.94169ZM5.17169 15.0401L14.5806 0.407219H12.2878L2.8685 15.0401H5.17169ZM3.63279 6.25835C2.79621 6.25835 2.33144 5.4978 2.33144 4.10854V4.0984C2.33144 2.71928 2.79621 1.95873 3.63279 1.95873C4.45904 1.95873 4.91348 2.71928 4.91348 4.0984V4.10854C4.91348 5.4978 4.45904 6.25835 3.63279 6.25835ZM13.8267 15.1719C15.9646 15.1719 17.2763 13.7016 17.2763 11.3388V11.3287C17.2763 8.97603 15.9646 7.50564 13.8267 7.50564C11.6784 7.50564 10.3668 8.97603 10.3668 11.3287V11.3388C10.3668 13.7016 11.6784 15.1719 13.8267 15.1719ZM13.8267 13.4886C12.9901 13.4886 12.5253 12.7281 12.5253 11.3388V11.3287C12.5253 9.94953 12.9901 9.18898 13.8267 9.18898C14.6529 9.18898 15.1074 9.94953 15.1074 11.3287V11.3388C15.1074 12.7281 14.6529 13.4886 13.8267 13.4886Z" fill="white"/>
</svg>
