<svg width="14" height="12" viewBox="0 0 14 12" fill="none" xmlns="http://www.w3.org/2000/svg">
<path d="M2.30146 0.601562H10.8834C11.9398 0.601562 12.7962 1.45795 12.7962 2.51435V9.10366C12.7962 10.1601 11.9398 11.0164 10.8834 11.0164H2.30146C1.24506 11.0164 0.388672 10.1601 0.388672 9.10366V2.51435C0.388672 1.45795 1.24506 0.601562 2.30146 0.601562Z" stroke="#037FFB" stroke-width="0.5"/>
<path d="M13.0462 8.08189V9.27215C13.0463 9.53385 12.9948 9.79299 12.8947 10.0348C12.7946 10.2766 12.6478 10.4963 12.4628 10.6814C12.2777 10.8664 12.058 11.0132 11.8162 11.1133C11.5744 11.2134 11.3153 11.2649 11.0536 11.2648H2.13126C1.60278 11.2648 1.09601 11.0549 0.722316 10.6812C0.348621 10.3075 0.138672 9.80063 0.138672 9.27215V5.80663L2.18899 4.50892C2.35105 4.4063 2.54006 4.35436 2.7318 4.35976C2.92355 4.36515 3.10925 4.42762 3.26528 4.5392L6.9817 7.19367L8.73642 6.11227C8.88652 6.01981 9.05911 5.97027 9.2354 5.969C9.41169 5.96773 9.58499 6.01477 9.73641 6.10506L13.0462 8.08189Z" fill="#037FFB"/>
<path d="M10.4905 3.89123C11.0468 3.89123 11.4977 3.44032 11.4977 2.88409C11.4977 2.32786 11.0468 1.87695 10.4905 1.87695C9.93431 1.87695 9.4834 2.32786 9.4834 2.88409C9.4834 3.44032 9.93431 3.89123 10.4905 3.89123Z" fill="#037FFB"/>
</svg>
