<svg width="14" height="19" viewBox="0 0 14 19" fill="none" xmlns="http://www.w3.org/2000/svg">
<path d="M12.25 7.125H11.6667V4.75C11.6667 2.13038 9.57367 0 7 0C4.42633 0 2.33333 2.13038 2.33333 4.75V7.125H1.75C0.785556 7.125 0 7.92379 0 8.90625V17.2188C0 18.2012 0.785556 19 1.75 19H12.25C13.2144 19 14 18.2012 14 17.2188V8.90625C14 7.92379 13.2144 7.125 12.25 7.125ZM3.88889 4.75C3.88889 3.00358 5.28422 1.58333 7 1.58333C8.71578 1.58333 10.1111 3.00358 10.1111 4.75V7.125H3.88889V4.75ZM7.77778 13.2383V15.0417C7.77778 15.4787 7.43011 15.8333 7 15.8333C6.56989 15.8333 6.22222 15.4787 6.22222 15.0417V13.2383C5.75944 12.9635 5.44444 12.4585 5.44444 11.875C5.44444 11.0018 6.14211 10.2917 7 10.2917C7.85789 10.2917 8.55556 11.0018 8.55556 11.875C8.55556 12.4585 8.24056 12.9635 7.77778 13.2383Z" fill="#373737"/>
</svg>
