<svg width="11" height="11" viewBox="0 0 11 11" fill="none" xmlns="http://www.w3.org/2000/svg">
<path d="M5.5 0C2.5 0 0 2.5 0 5.5C0 8.5 2.5 11 5.5 11C8.5 11 11 8.5 11 5.5C11 2.5 8.5 0 5.5 0ZM5.3 9.1C4.9 9.1 4.5 8.8 4.5 8.4C4.5 8 4.9 7.7 5.3 7.7C5.7 7.7 6.1 8 6.1 8.4C6.1 8.8 5.8 9.1 5.3 9.1ZM7.8 4.3C7.8 5 7.5 5.4 6.8 5.8C6.1 6.1 6 6.3 6 6.8V7H4.7V6.7C4.7 6.1 4.9 5.7 5.6 5.3C6.2 5 6.4 4.7 6.4 4.3C6.4 3.9 6 3.6 5.5 3.6C5 3.6 4.6 3.9 4.6 4.4H3.2C3.2 3.4 4 2.6 5.5 2.6C6.9 2.6 7.8 3.3 7.8 4.3Z" fill="white"/>
</svg>
