<svg width="15" height="15" viewBox="0 0 15 15" fill="none" xmlns="http://www.w3.org/2000/svg">
<circle cx="7.07143" cy="7.07143" r="7.07143" fill="#373737"/>
<path d="M6.04477 8.9329H7.6567V8.70055C7.6567 8.16218 7.88091 7.87882 8.68687 7.44245C9.54132 6.97208 9.98369 6.37703 9.98369 5.52697V5.5213C9.98369 4.22353 8.83231 3.32812 7.10525 3.32812C5.24487 3.32812 4.20864 4.30854 4.16016 5.64031V5.69698H5.80238L5.80844 5.65164C5.8448 5.06793 6.29929 4.6429 6.99617 4.6429C7.68094 4.6429 8.14755 5.02826 8.14755 5.5723V5.57797C8.14755 6.10501 7.91121 6.38837 7.12949 6.82474C6.29323 7.28377 5.97812 7.79948 6.03871 8.60421L6.04477 8.9329ZM6.87498 11.6475C7.42642 11.6475 7.86879 11.2564 7.86879 10.7577C7.86879 10.259 7.42642 9.86798 6.87498 9.86798C6.32959 9.86798 5.88722 10.259 5.88722 10.7577C5.88722 11.2564 6.32959 11.6475 6.87498 11.6475Z" fill="white"/>
</svg>
