<svg width="14" height="16" viewBox="0 0 14 16" fill="none" xmlns="http://www.w3.org/2000/svg">
<path d="M4.07366 0.635363L0.537889 4.42369C0.192237 4.79403 0 5.28174 0 5.78833V14C0 15.1046 0.89543 16 2 16H12C13.1046 16 14 15.1046 14 14V2C14 0.895431 13.1046 0 12 0H5.53577C4.98141 0 4.45191 0.230093 4.07366 0.635363Z" fill="#373737"/>
<path d="M5.99884 10.9445H7.70845V10.698C7.70845 10.127 7.94626 9.82649 8.80107 9.36368C9.70729 8.8648 10.1765 8.23369 10.1765 7.3321V7.32609C10.1765 5.94967 8.95532 5 7.12358 5C5.15046 5 4.05142 6.03983 4 7.45232V7.51242H5.74175L5.74818 7.46434C5.78674 6.84525 6.26878 6.39445 7.0079 6.39445C7.73416 6.39445 8.22905 6.80317 8.22905 7.38019V7.3862C8.22905 7.94518 7.97839 8.24571 7.14929 8.70853C6.26235 9.19538 5.92814 9.74235 5.99241 10.5958L5.99884 10.9445ZM6.87935 13.8235C7.46422 13.8235 7.9334 13.4088 7.9334 12.8799C7.9334 12.3509 7.46422 11.9362 6.87935 11.9362C6.30091 11.9362 5.83173 12.3509 5.83173 12.8799C5.83173 13.4088 6.30091 13.8235 6.87935 13.8235Z" fill="white"/>
</svg>
