<svg width="15" height="19" viewBox="0 0 15 19" fill="none" xmlns="http://www.w3.org/2000/svg">
<path d="M9.375 0H1.875C1.37772 0 0.900805 0.197544 0.549175 0.549175C0.197544 0.900805 0 1.37772 0 1.875V16.875C0 17.3723 0.197544 17.8492 0.549175 18.2008C0.900805 18.5525 1.37772 18.75 1.875 18.75H13.125C13.6223 18.75 14.0992 18.5525 14.4508 18.2008C14.8025 17.8492 15 17.3723 15 16.875V5.625L9.375 0Z" fill="#037FFB"/>
<path d="M6.20447 12.8587H7.50195V12.6754C7.50195 12.2507 7.68243 12.0272 8.33117 11.683C9.01893 11.3119 9.375 10.8426 9.375 10.172V10.1675C9.375 9.14382 8.44823 8.4375 7.05808 8.4375C5.56061 8.4375 4.72652 9.21087 4.6875 10.2614V10.3061H6.00937L6.01424 10.2704C6.04351 9.8099 6.40934 9.47463 6.97028 9.47463C7.52146 9.47463 7.89705 9.77861 7.89705 10.2078V10.2122C7.89705 10.628 7.70682 10.8515 7.07759 11.1957C6.40446 11.5578 6.15082 11.9646 6.1996 12.5994L6.20447 12.8587ZM6.87272 15C7.3166 15 7.67267 14.6915 7.67267 14.2982C7.67267 13.9048 7.3166 13.5963 6.87272 13.5963C6.43373 13.5963 6.07765 13.9048 6.07765 14.2982C6.07765 14.6915 6.43373 15 6.87272 15Z" fill="white"/>
<path d="M9 6V0H9.5L15 5.5V6H9Z" fill="#91C8FF"/>
</svg>
