<svg width="18" height="17" viewBox="0 0 18 17" fill="none" xmlns="http://www.w3.org/2000/svg">
<path d="M8.10928 0.745361C8.48042 0.0181098 9.51958 0.0181087 9.89072 0.74536L11.7665 4.42089C11.9118 4.70561 12.1844 4.90371 12.5001 4.95392L16.5754 5.60206C17.3817 5.7303 17.7028 6.71859 17.1259 7.2963L14.2099 10.216C13.984 10.4422 13.8798 10.7627 13.9296 11.0785L14.5726 15.1546C14.6998 15.9611 13.8591 16.5719 13.1314 16.2017L9.45342 14.3307C9.16851 14.1857 8.83149 14.1857 8.54658 14.3307L4.86865 16.2017C4.14092 16.5719 3.30023 15.9611 3.42744 15.1546L4.07035 11.0785C4.12016 10.7627 4.01601 10.4422 3.79012 10.216L0.874126 7.2963C0.297158 6.71859 0.618271 5.7303 1.42462 5.60206L5.49989 4.95392C5.81558 4.90371 6.08824 4.70561 6.23354 4.42089L8.10928 0.745361Z" fill="#373737"/>
</svg>
