<svg xmlns="http://www.w3.org/2000/svg" xmlns:xlink="http://www.w3.org/1999/xlink" width="215.25" height="131.96" viewBox="0 0 215.25 131.96">
  <defs>
    <linearGradient id="linear-gradient" x1="0.983" y1="1.957" x2="0.729" y2="0.972" gradientUnits="objectBoundingBox">
      <stop offset="0" stop-color="#ff928e"/>
      <stop offset="1" stop-color="#feb3b1"/>
    </linearGradient>
    <linearGradient id="linear-gradient-2" x1="-1.606" y1="7.841" x2="-1.337" y2="6.856" xlink:href="#linear-gradient"/>
    <linearGradient id="linear-gradient-3" x1="0.513" y1="0.368" x2="0.468" y2="-2.34" gradientUnits="objectBoundingBox">
      <stop offset="0" stop-color="#ffc91d"/>
      <stop offset="1" stop-color="#ea4335"/>
    </linearGradient>
    <linearGradient id="linear-gradient-4" x1="0.856" y1="-2.194" x2="0.616" y2="-5.988" gradientUnits="objectBoundingBox">
      <stop offset="0" stop-color="#09005d"/>
      <stop offset="1" stop-color="#1a0f91"/>
    </linearGradient>
    <linearGradient id="linear-gradient-5" x1="2.598" y1="-4.619" x2="-0.866" y2="-11.991" xlink:href="#linear-gradient"/>
    <linearGradient id="linear-gradient-6" x1="0.83" y1="-3.271" x2="0.649" y2="-5.849" xlink:href="#linear-gradient-4"/>
    <linearGradient id="linear-gradient-7" x1="3.771" y1="-2.441" x2="0.305" y2="-9.951" xlink:href="#linear-gradient"/>
    <linearGradient id="linear-gradient-8" x1="0.503" y1="4.561" x2="0.438" y2="2.377" xlink:href="#linear-gradient"/>
    <linearGradient id="linear-gradient-9" x1="0.489" y1="4.656" x2="0.504" y2="3.808" xlink:href="#linear-gradient"/>
    <linearGradient id="linear-gradient-10" x1="0.455" y1="16.665" x2="0.549" y2="13.397" xlink:href="#linear-gradient"/>
  </defs>
  <g id="register_now" data-name="register now" transform="translate(0.002 -0.04)">
    <path id="Path_2143" data-name="Path 2143" d="M184.2,11l-53,1.2a5.562,5.562,0,0,0-5.4,5.3l-2.2,76.9a4.078,4.078,0,0,0,4.1,4.2l60.8-.3a3.758,3.758,0,0,0,3.8-3.9l-1.8-77.3A6.17,6.17,0,0,0,184.2,11Z" fill="#037ffb"/>
    <path id="Path_2144" data-name="Path 2144" d="M184.1,11.3c-7.2,1.1-32,4.7-52.6,3.6a1.751,1.751,0,0,0-1.8,1.6l-2.4,77.3a1.985,1.985,0,0,0,1.9,2c8.7.3,44.4,1.5,57-.1a1.5,1.5,0,0,0,1.3-1.5L186.2,13A1.748,1.748,0,0,0,184.1,11.3Z" fill="#fff"/>
    <path id="Path_2145" data-name="Path 2145" d="M172.6,26.9a3.4,3.4,0,1,0-3.5,3.3A3.433,3.433,0,0,0,172.6,26.9Z" fill="#93a3c3"/>
    <path id="Path_2146" data-name="Path 2146" d="M174.6,36.7l-10.9.3a.815.815,0,0,1-.7-1.3,7.019,7.019,0,0,1,6.1-3.6,7.55,7.55,0,0,1,6.2,3.3A.828.828,0,0,1,174.6,36.7Z" fill="#93a3c3"/>
    <g id="Group_301" data-name="Group 301" opacity="0.6">
      <path id="Path_2147" data-name="Path 2147" d="M135.4,23.3a.56.56,0,0,1-.6-.5c0-.3.3-.5.6-.6l19.2-.8c.3,0,.5.2.4.5l-.1.4a.752.752,0,0,1-.7.5Z" fill="#00215b" opacity="0.6"/>
    </g>
    <g id="Group_302" data-name="Group 302" opacity="0.6">
      <path id="Path_2148" data-name="Path 2148" d="M154.7,24.4c.3,0,.5.2.4.5l-.1.4a.752.752,0,0,1-.7.5l-18.8.4a.56.56,0,0,1-.6-.5c0-.3.3-.5.6-.6Z" fill="#00215b" opacity="0.6"/>
    </g>
    <g id="Group_303" data-name="Group 303" opacity="0.6">
      <path id="Path_2149" data-name="Path 2149" d="M154.8,27.4c.3,0,.5.2.4.5l-.1.4a.752.752,0,0,1-.7.5l-18.8.4a.56.56,0,0,1-.6-.5c0-.3.3-.5.6-.6Z" fill="#00215b" opacity="0.6"/>
    </g>
    <path id="Path_2150" data-name="Path 2150" d="M142.3,30.3c-1.5-.1-4.2-.1-5.8-.1a1.384,1.384,0,0,0-1.3,1.1,20.9,20.9,0,0,0-.5,5.6,1.24,1.24,0,0,0,1.3,1.2l5.6-.2a1.4,1.4,0,0,0,1.3-1.3l.4-5.3A1.166,1.166,0,0,0,142.3,30.3Z" fill="#93a3c3"/>
    <g id="Group_304" data-name="Group 304" opacity="0.6">
      <path id="Path_2151" data-name="Path 2151" d="M145.7,32.9a.56.56,0,0,1-.6-.5q0-.45.6-.6l8.9-.5a.472.472,0,0,1,.5.5l-.1.3a.645.645,0,0,1-.6.6Z" fill="#00215b" opacity="0.6"/>
    </g>
    <g id="Group_305" data-name="Group 305" opacity="0.6">
      <path id="Path_2152" data-name="Path 2152" d="M154.8,34.8a.472.472,0,0,1,.5.5l-.1.3a.752.752,0,0,1-.7.5l-8.7-.1c-.3,0-.6-.2-.5-.5a.56.56,0,0,1,.6-.5Z" fill="#00215b" opacity="0.6"/>
    </g>
    <g id="Group_306" data-name="Group 306" opacity="0.6">
      <path id="Path_2153" data-name="Path 2153" d="M134,43.8a.472.472,0,0,1-.5-.5c0-.3.3-.5.6-.6L179,41.3c.3,0,.4.2.2.4l-.4.6a1.623,1.623,0,0,1-.9.5Z" fill="#00215b" opacity="0.6"/>
    </g>
    <g id="Group_307" data-name="Group 307" opacity="0.6">
      <path id="Path_2154" data-name="Path 2154" d="M179,44.3c.3,0,.4.2.2.4l-.4.6a1.623,1.623,0,0,1-.9.5l-43.8,1a.472.472,0,0,1-.5-.5c0-.3.3-.5.6-.6Z" fill="#00215b" opacity="0.6"/>
    </g>
    <path id="Path_2155" data-name="Path 2155" d="M179.3,49.3a29.438,29.438,0,0,0-4.2,0,.974.974,0,0,0-1,.8,14.814,14.814,0,0,0-.4,4.1.9.9,0,0,0,.9.9l4.1-.1a.9.9,0,0,0,.9-.9l.3-3.9C180,49.6,179.7,49.3,179.3,49.3Z" fill="#93a3c3"/>
    <g id="Group_308" data-name="Group 308" opacity="0.6">
      <path id="Path_2156" data-name="Path 2156" d="M171.8,51a.472.472,0,0,1,.5.5l-.1.8a.645.645,0,0,1-.6.6l-10.1.2a.56.56,0,0,1-.6-.5v-.3a.576.576,0,0,1,.6-.6Z" fill="#00215b" opacity="0.6"/>
    </g>
    <path id="Path_2157" data-name="Path 2157" d="M157,49.8a29.438,29.438,0,0,0-4.2,0,.974.974,0,0,0-1,.8,14.814,14.814,0,0,0-.4,4.1.9.9,0,0,0,.9.9l4.1-.1a.9.9,0,0,0,.9-.9l.3-3.9A.689.689,0,0,0,157,49.8Z" fill="#93a3c3"/>
    <g id="Group_309" data-name="Group 309" opacity="0.6">
      <path id="Path_2158" data-name="Path 2158" d="M149.5,51.5a.472.472,0,0,1,.5.5l-.1.8a.645.645,0,0,1-.6.6l-10.1.2a.56.56,0,0,1-.6-.5v-.3a.576.576,0,0,1,.6-.6Z" fill="#00215b" opacity="0.6"/>
    </g>
    <g id="Group_310" data-name="Group 310" opacity="0.6">
      <path id="Path_2159" data-name="Path 2159" d="M136.9,63.6a.472.472,0,0,1-.5-.5c0-.3.3-.5.6-.6l43.6-1.3c.3,0,.4.2.2.4l-.4.6a1.623,1.623,0,0,1-.9.5Z" fill="#00215b" opacity="0.6"/>
    </g>
    <g id="Group_311" data-name="Group 311" opacity="0.6">
      <path id="Path_2160" data-name="Path 2160" d="M180.6,64.1c.3,0,.4.2.2.4l-.4.6a1.623,1.623,0,0,1-.9.5l-42.6,1a.472.472,0,0,1-.5-.5c0-.3.3-.5.6-.6Z" fill="#00215b" opacity="0.6"/>
    </g>
    <g id="Group_312" data-name="Group 312" opacity="0.6">
      <path id="Path_2161" data-name="Path 2161" d="M180.6,67.1c.3,0,.4.2.2.4l-.4.6a1.623,1.623,0,0,1-.9.5l-42.6,1a.472.472,0,0,1-.5-.5c0-.3.3-.5.6-.6Z" fill="#00215b" opacity="0.6"/>
    </g>
    <path id="Path_2162" data-name="Path 2162" d="M154.3,8.8l6-.7.4-5.5A2.27,2.27,0,0,0,159,.2a5.345,5.345,0,0,0-4.7,1.1C150.5,3.9,154.3,8.8,154.3,8.8Zm1.1-4.6a1.5,1.5,0,0,1,3,0,1.473,1.473,0,0,1-1.5,1.5A1.612,1.612,0,0,1,155.4,4.2Z" fill="#037ffb"/>
    <path id="Path_2163" data-name="Path 2163" d="M159.6,5.8c-.1,0-.1-.1-.1-.2l.1-.9c0-.1.1-.1.2-.1s.1.1.1.2l-.1.9c0,.1-.1.1-.2.1Zm.1-1.7c-.1,0-.1-.1-.1-.2V3.2a1.856,1.856,0,0,0-1.4-2,3.75,3.75,0,0,0-2.1,0c-.1,0-.2,0-.2-.1s0-.2.1-.2a4.108,4.108,0,0,1,2.2,0,2.179,2.179,0,0,1,1.6,2.3v.7c.1.1,0,.2-.1.2Z" fill="#91b3fa"/>
    <path id="Path_2164" data-name="Path 2164" d="M168.6,11.5l-.1-2.8A1.71,1.71,0,0,0,166.7,7L147.6,8.1A1.718,1.718,0,0,0,146,9.7l-.1,2.7Z" fill="#037ffb"/>
    <path id="Path_2165" data-name="Path 2165" d="M161.4,8.2h.8a.1.1,0,1,0,0-.2h-.8a.1.1,0,0,0-.1.1C161.2,8.2,161.3,8.2,161.4,8.2Z" fill="#91b3fa"/>
    <path id="Path_2166" data-name="Path 2166" d="M167.5,10.6a.1.1,0,0,0,.1-.1V9.4A1.444,1.444,0,0,0,166,7.9L163,8a.1.1,0,1,0,0,.2l3-.1a1.261,1.261,0,0,1,1.3,1.3v1.1C167.4,10.6,167.4,10.7,167.5,10.6Z" fill="#91b3fa"/>
    <path id="Path_2167" data-name="Path 2167" d="M174.5,10.3l-33.4.8a2.464,2.464,0,0,0-2.4,2.1v.2a2.037,2.037,0,0,0,2.1,2.4l34.3-.8a1.316,1.316,0,0,0,1.3-1.5l-.1-1.5A1.774,1.774,0,0,0,174.5,10.3Z" fill="#037ffb"/>
    <path id="Path_2168" data-name="Path 2168" d="M154.1,108.9H69.4a5.692,5.692,0,0,1-5.9-5.4v-3.2a5.629,5.629,0,0,1,5.9-5.4h84.7a9.9,9.9,0,0,0-.2,13.9Z" fill="#86b1f2"/>
    <path id="Path_2169" data-name="Path 2169" d="M177,108.5H54.4a10,10,0,1,0,0,20H177l-.1-.1A14.343,14.343,0,0,1,177,108.5Z" fill="#b75742"/>
    <path id="Path_2170" data-name="Path 2170" d="M174.8,111.4H107.7a7.1,7.1,0,0,0,0,14.2h67.1A14.38,14.38,0,0,1,174.8,111.4Z" fill="#fae0b2"/>
    <path id="Path_2171" data-name="Path 2171" d="M99.8,23.9c-.1.1-4.1,3.1-4.1,3.1s.9,6.4,4.5,8.9c4,2.8,9.6-2.3,9.6-2.3s4.5,1.1,6.8-8.2c.5-2.1-2.6-2.3-6.4-1.9A101.506,101.506,0,0,1,99.8,23.9Z" fill="#282828"/>
    <path id="Path_2172" data-name="Path 2172" d="M92.2,45.7a16.432,16.432,0,0,1,5.2-2.4c.7-.2,4.4.9,6.8.8,3.2-.1,6.4-1.5,9-.9a18.135,18.135,0,0,1,6,2.4c3.7,2.6,5.8,7.5,7.2,12.3a16.248,16.248,0,0,1-5.6,3.7l-.6,23.5-13.9,7.1-15.9-8,.6-23s-5-2.3-5.4-3.2C85.1,57.3,87.8,48.7,92.2,45.7Z" fill="#037ffb"/>
    <path id="Path_2173" data-name="Path 2173" d="M85.7,58s-6.8,18.7,8.6,26.4c3.2-.4,2-5.7,2-5.7s-6.7-1.5-4.7-17.1A43.571,43.571,0,0,0,85.7,58Z" fill="url(#linear-gradient)"/>
    <path id="Path_2174" data-name="Path 2174" d="M126,58s4.6,19.5-8.6,26.4c-3.2-.4-2-5.7-2-5.7s5.4-2.7,4.7-17.1A43.572,43.572,0,0,1,126,58Z" fill="url(#linear-gradient-2)"/>
    <path id="Path_2175" data-name="Path 2175" d="M118.9,85.7H91.8A1.752,1.752,0,0,1,90.1,84V66.9a1.752,1.752,0,0,1,1.7-1.7h27.1a1.752,1.752,0,0,1,1.7,1.7V84.1A1.605,1.605,0,0,1,118.9,85.7Z" fill="url(#linear-gradient-3)"/>
    <path id="Path_2176" data-name="Path 2176" d="M134,91.9c-3.5-.8-11.6-.4-11.6-.4l-.3.9-.5,4.4a91.706,91.706,0,0,0,11.5,1.4,4.253,4.253,0,0,0,1.1-.2l.3-.3A4.117,4.117,0,0,0,134,91.9Z" fill="url(#linear-gradient-4)"/>
    <path id="Path_2177" data-name="Path 2177" d="M120.1,91.2l1.4.1a2.576,2.576,0,0,1,1.9,1,3.408,3.408,0,0,1,.7,2.2,2.609,2.609,0,0,1-.7,1.7,2.271,2.271,0,0,1-1.6.6l-2.1-.1Z" fill="url(#linear-gradient-5)"/>
    <path id="Path_2178" data-name="Path 2178" d="M74.2,91.4c3.5-.7,11.6,0,11.6,0l.3.9.4,4.4a97.433,97.433,0,0,1-11.5,1,4.253,4.253,0,0,1-1.1-.2l-.3-.3A4.223,4.223,0,0,1,74.2,91.4Z" fill="url(#linear-gradient-6)"/>
    <path id="Path_2179" data-name="Path 2179" d="M88.1,91.2H86.7a2.463,2.463,0,0,0-1.9.9,3.5,3.5,0,0,0-.8,2.2,2.609,2.609,0,0,0,.7,1.7,2.36,2.36,0,0,0,1.6.7l2.1-.1Z" fill="url(#linear-gradient-7)"/>
    <path id="Path_2180" data-name="Path 2180" d="M135,78c-1.6-3.6-5.5-4.2-8.7-2.5-.1.1-20.9,10.8-39.3,15.5a23.51,23.51,0,0,1,.9,5.3v1.2c14.1-.7,29.4-5.4,42.6-9.6A7.542,7.542,0,0,0,135,78Z" fill="#282828"/>
    <path id="Path_2181" data-name="Path 2181" d="M120.2,96.5a11.282,11.282,0,0,1,1.2-5.7.349.349,0,0,1,.1-.2c-1-.3-2.4-.8-4.2-1.4A200.888,200.888,0,0,1,84.8,75c-3.7-2-7.9-.7-9.1,3.7-1.1,3.9,1.3,7.2,4.8,8.4,10.5,3.5,5,2.5,8.5,3.6a140.042,140.042,0,0,0,31.3,6.2C120.3,96.8,120.2,96.6,120.2,96.5Z" fill="#282828"/>
    <path id="Path_2182" data-name="Path 2182" d="M97.4,43.2a8.081,8.081,0,0,0,8.2,6c6.9-.1,7.6-6,7.6-6l-4.5-1-.4-5.1-6.8.5-.1,4.8Z" fill="url(#linear-gradient-8)"/>
    <path id="Path_2183" data-name="Path 2183" d="M102.4,22.9s-7.8,15.2,1.5,18.8c6.5,2.6,10.7-10.1,9.4-13.5-1.9-5.3-3.1-4.7-3.1-4.7Z" fill="url(#linear-gradient-9)"/>
    <path id="Path_2184" data-name="Path 2184" d="M115.2,21.5c3.9,1.1.6,9.4-5.3,7.5-5.8-2-8.1-2-9-.4s-1.1,7.3-3.1,4.5c-2.2-3.1-3.4-9.2-.7-11.2,2.4-1.8,2.9-4.5,5.8-4.4,3.8.1,6.7-1.5,8.4-.3C113.2,18.4,112.3,20.7,115.2,21.5Z" fill="#282828"/>
    <path id="Path_2185" data-name="Path 2185" d="M100.5,29.9s-1.7-1.8-1.9.4c-.3,2.2.6,5,1.6,3.4C101.2,32.2,100.5,29.9,100.5,29.9Z" fill="url(#linear-gradient-10)"/>
    <path id="Path_2186" data-name="Path 2186" d="M194.6,132H18.4c-.4,0-.7-.6-.7-1.3v-1c0-.7.3-1.3.7-1.3H194.6c.4,0,.7.6.7,1.3v1C195.3,131.4,195,132,194.6,132Z" fill="#037ffb"/>
    <path id="Path_2187" data-name="Path 2187" d="M163.1,88.9a5.757,5.757,0,0,0,4.5-4.7c1.2-6.6,5.1-18.3,17-18.5,14.1-.3,16.6,10.3,16.3,18.1a3.255,3.255,0,0,0,3.4,3.4c4.2-.2,10.3.8,10.3,7.9,0,0,3.8,13.4-7,16.7-10.7,3.2-15.9-1-20.5,3.3-4.3,4-18.1,8.1-24.8-.9a16.257,16.257,0,0,0-3.8-3.6c-2.5-1.6-5.8-5.6-3.1-14.7a10.224,10.224,0,0,1,7.5-7Z" fill="#70c0fd"/>
    <path id="Path_2188" data-name="Path 2188" d="M189.3,100.6a13.263,13.263,0,0,0-2.7,2.6,5.548,5.548,0,0,0-.6.8,12.992,12.992,0,0,1,.4-2.7c.3-.7,1-1.9,1.9-3.6a29.546,29.546,0,0,1,3.5-3.6,12.3,12.3,0,0,1,4.7-2.7,14.585,14.585,0,0,0-5,2,13.029,13.029,0,0,0-1.5,1,40.658,40.658,0,0,0,3.3-20.6,64.306,64.306,0,0,1-1.6,11.7,11.422,11.422,0,0,0-.9-2.6,23.169,23.169,0,0,0-2.7-4.6,21.3,21.3,0,0,1,2.1,4.9c1.3,4.4.4,5.9-.2,7.4-2.1,4.4-4.5,7.6-5.6,10.3-.4-.8-.8-1.7-1.2-2.5-.9-1.8-1.8-3.5-2.7-5.3a5.582,5.582,0,0,0-.5-.8,16.3,16.3,0,0,1-.5-2.1,11.075,11.075,0,0,1-.2-1.9c-.1-1.6-.1-2.5-.1-3.8-.1,1.3-.2,2.2-.2,3.8a12.1,12.1,0,0,0,.1,1.9v.3h0c-.5-.9-1-1.7-1.5-2.5s-1-1.7-1.6-2.5a20.282,20.282,0,0,0-1.8-2.3c.6.8,1.1,1.6,1.6,2.4a21.481,21.481,0,0,1,1.4,2.6c.5.9.9,1.7,1.3,2.6s.9,1.8,1.3,2.7c.1.1.1.2.2.3a6.214,6.214,0,0,0-1-.3,31.678,31.678,0,0,0-5.5-.8,30.115,30.115,0,0,1,5.3,1.4,11.111,11.111,0,0,1,1.6.7c.6,1.4,1.2,2.8,1.8,4.1a23.291,23.291,0,0,1,1.1,2.8,7.839,7.839,0,0,1,.5,1.4h0v.3c.1.8.2,2.8.4,5.3a15.232,15.232,0,0,0-4.4-1.5,43,43,0,0,0-5.9-.4,3.005,3.005,0,0,1-.9-.8,6.687,6.687,0,0,1-1.7-3.8,8.381,8.381,0,0,0,1.4,4.1c.1.2.3.3.4.5a16.413,16.413,0,0,1-2.3-.2,22.114,22.114,0,0,1-2.5-.5,7.242,7.242,0,0,1-2.3-1.2,10.887,10.887,0,0,0,2.3,1.4,20.154,20.154,0,0,0,2.3.7c-.2,0-.3.1-.5.1a10.461,10.461,0,0,0-1.7.4,10.926,10.926,0,0,0-1.7.5,7.741,7.741,0,0,0-1.6.7c.5-.2,1.1-.4,1.7-.6a10.105,10.105,0,0,1,1.7-.3,9.853,9.853,0,0,1,1.7-.2c.6,0,2.2-.1,2.8-.1,2.9.4,4.7.4,6.7,1a16.168,16.168,0,0,1,4.6,2.1c.1,0,.1.1.2.1.4,6.9.8,16.2-.1,18.6-1.3,3.5,6.8,2.3,6.8,2.3s-2.7-1.5-3.8-9.5c-.6-4.6-1.3-10.6-1.4-15.1,0-.1.1-.2.1-.3.1-.3.3-.5.4-.8a13.03,13.03,0,0,1,1-1.5,15.459,15.459,0,0,1,2.4-2.7,20.726,20.726,0,0,1,5.9-3.8A12.03,12.03,0,0,0,189.3,100.6Z" fill="#037ffb"/>
    <path id="Path_2189" data-name="Path 2189" d="M33,101.3a27.735,27.735,0,0,0,15.6-4.4c3.7-2.4,7.2-6,7.9-11.1,1.5-11.6-5.2-11.2-6.8-15.9s3.2-6.8,1.1-15.4c-1.1-4.6-4.7-6.6-10.2-14S28.3,29.3,23.4,32.1s-4.7,8.7-8.3,10.7S5.9,51.7,8,64.8-4.3,73,1.3,88.2C5.5,99.3,23.6,101.2,33,101.3Z" fill="#70c0fd"/>
    <path id="Path_2190" data-name="Path 2190" d="M26.4,91.4c.5,7.3,1.3,36.4.2,38.9-1.6,3.8,6.9-.9,6.9-.9s-2.3-17.3-3.6-25.8c-.6-3.8-1.7-15.1-1.7-16.1,0-.1.1-.2.1-.3.2-.3.3-.6.5-.9A9.55,9.55,0,0,1,30,84.7a15.922,15.922,0,0,1,2.9-2.9,24.453,24.453,0,0,1,7.2-4.1,25.749,25.749,0,0,0-7.8,3.4A21.585,21.585,0,0,0,29,83.8l-.8.8a12.926,12.926,0,0,1,.5-2.9A37.7,37.7,0,0,1,31,77.9a26.532,26.532,0,0,1,4.3-3.8A17.081,17.081,0,0,1,41,71.2a17.728,17.728,0,0,0-6.2,2.2A17.394,17.394,0,0,0,33,74.5a39.034,39.034,0,0,0,4-22A68.006,68.006,0,0,1,35.1,65,13.586,13.586,0,0,0,34,62.2a23.39,23.39,0,0,0-3.3-4.9,25.277,25.277,0,0,1,2.6,5.2c1.5,4.5.6,6.1-.3,7.9-2.5,4.7-5.5,8.1-6.8,10.9l-1.5-2.7c-1.1-1.9-2.2-3.8-3.3-5.6l-.6-.9a6.832,6.832,0,0,1-.4-1.3c-.1-.3-.1-.7-.2-1-.1-.7-.2-1.3-.3-2a13.4,13.4,0,0,1-.1-2v-2a11.245,11.245,0,0,0-.2,2c0,.7-.1,1.4-.1,2a14.769,14.769,0,0,0,.1,2.1v.3h0l-1.8-2.7a25.6,25.6,0,0,0-2-2.6,25.034,25.034,0,0,0-2.2-2.4,25.6,25.6,0,0,1,2,2.6l1.8,2.7c.6.9,1.1,1.9,1.6,2.8s1,1.9,1.6,2.9c.1.1.1.2.2.4-1.1-.3-2.3-.5-3.5-.7a34.187,34.187,0,0,0-4.5-.4,38.235,38.235,0,0,1,4.4.9A41.883,41.883,0,0,1,21.3,75c.8,1.5,1.5,2.9,2.2,4.4.5,1,.9,2,1.4,2.9a6.117,6.117,0,0,1,.5,1.2C25.9,84.7,26.4,91.4,26.4,91.4Z" fill="#037ffb"/>
  </g>
</svg>
