<svg width="22" height="22" viewBox="0 0 22 22" fill="none" xmlns="http://www.w3.org/2000/svg">
<path d="M22 11C22 17.0751 17.0751 22 11 22C4.92494 22 0 17.0751 0 11C0 4.92494 4.92494 0 11 0C17.0751 0 22 4.92494 22 11Z" fill="#FFCC4D"/>
<path fill-rule="evenodd" clip-rule="evenodd" d="M0.757979 6.73289C0.904646 6.87894 1.63676 7.31772 1.78281 7.7565C1.92948 8.19467 2.22281 10.6801 3.10159 11.4116C4.00787 12.1644 7.42642 11.8846 8.08092 11.5582C9.54576 10.8279 9.72542 8.78928 9.98453 7.7565C10.1306 7.17167 11.0094 7.17167 11.0094 7.17167C11.0094 7.17167 11.8881 7.17167 12.0348 7.75589C12.2939 8.78928 12.4748 10.8279 13.9384 11.5576C14.5935 11.8846 18.0121 12.1651 18.9196 11.4122C19.7971 10.6807 20.0899 8.19528 20.2365 7.7565C20.382 7.31833 21.1153 6.87956 21.2614 6.7335C21.4086 6.58744 21.4086 6.00261 21.2614 5.85594C20.9686 5.56383 17.5128 5.3035 13.7918 5.70989C13.0493 5.79117 12.7669 6.002 11.0088 6.002C9.25181 6.002 8.96826 5.79056 8.22637 5.70989C4.50776 5.30289 1.05131 5.56322 0.757979 5.85533C0.611924 6.00139 0.611924 6.58683 0.757979 6.73289Z" fill="#292F33"/>
<path d="M16.7056 14.4399C16.5969 14.3415 16.4343 14.3354 16.3176 14.4222C16.2938 14.4399 13.9208 16.1944 11.0009 16.1944C8.08836 16.1944 5.70747 14.4399 5.68425 14.4222C5.56753 14.3354 5.40497 14.3427 5.29619 14.4399C5.18803 14.5377 5.16358 14.699 5.23875 14.8237C5.31758 14.9551 7.20469 18.0277 11.0009 18.0277C14.7971 18.0277 16.6849 14.9551 16.7631 14.8237C16.8383 14.6984 16.8144 14.5377 16.7056 14.4399Z" fill="#664500"/>
</svg>
