<svg width="17" height="18" viewBox="0 0 17 18" fill="none" xmlns="http://www.w3.org/2000/svg">
<path d="M12.4237 7.98398C12.4526 7.98398 12.4814 7.98439 12.5103 7.98492L12.5177 7.98505C12.6799 7.98799 12.8407 7.99853 13 8.01602V2.064C13 0.925962 12.08 0 10.9492 0H2.05094C0.920047 0 0 0.925962 0 2.064V13.9359C0 15.074 0.920047 16 2.05081 16H7.99173C7.47906 15.1708 7.21012 14.2238 7.21012 13.234C7.21012 10.3391 9.54883 7.98398 12.4237 7.98398ZM7.35507 3.37006H10.3942C10.6755 3.37006 10.9034 3.59948 10.9034 3.88255C10.9034 4.16563 10.6755 4.39505 10.3942 4.39505H7.35507C7.07393 4.39505 6.84585 4.16563 6.84585 3.88255C6.84585 3.59948 7.07393 3.37006 7.35507 3.37006ZM7.35507 5.42017H10.3942C10.6755 5.42017 10.9034 5.64959 10.9034 5.93267C10.9034 6.21574 10.6755 6.44516 10.3942 6.44516H7.35507C7.07393 6.44516 6.84585 6.21574 6.84585 5.93267C6.84585 5.64959 7.07393 5.42017 7.35507 5.42017ZM5.64493 12.6298H2.60578C2.32452 12.6298 2.09656 12.4004 2.09656 12.1173C2.09656 11.8344 2.32452 11.6048 2.60578 11.6048H5.64493C5.92606 11.6048 6.15415 11.8344 6.15415 12.1173C6.15415 12.4004 5.92606 12.6298 5.64493 12.6298ZM5.64493 10.5454H2.60578C2.32452 10.5454 2.09656 10.316 2.09656 10.0329C2.09656 9.74983 2.32452 9.5204 2.60578 9.5204H5.64493C5.92606 9.5204 6.15415 9.74983 6.15415 10.0329C6.15415 10.316 5.92606 10.5454 5.64493 10.5454ZM5.64493 8.49528H2.60578C2.32452 8.49528 2.09656 8.26586 2.09656 7.98278C2.09656 7.69971 2.32452 7.47029 2.60578 7.47029H5.64493C5.92606 7.47029 6.15415 7.69971 6.15415 7.98278C6.15415 8.26586 5.92606 8.49528 5.64493 8.49528ZM5.64493 6.44516H2.60578C2.32452 6.44516 2.09656 6.21574 2.09656 5.93267C2.09656 5.64959 2.32452 5.42017 2.60578 5.42017H5.64493C5.92606 5.42017 6.15415 5.64959 6.15415 5.93267C6.15415 6.21574 5.92606 6.44516 5.64493 6.44516ZM5.64493 4.39505H2.60578C2.32452 4.39505 2.09656 4.16563 2.09656 3.88255C2.09656 3.59948 2.32452 3.37006 2.60578 3.37006H5.64493C5.92606 3.37006 6.15415 3.59948 6.15415 3.88255C6.15415 4.16563 5.92606 4.39505 5.64493 4.39505ZM6.84585 7.98278C6.84585 7.69971 7.07393 7.47029 7.35507 7.47029H8.81881C9.10008 7.47029 9.32804 7.69971 9.32804 7.98278C9.32804 8.26586 9.10008 8.49528 8.81881 8.49528H7.35507C7.07393 8.49528 6.84585 8.26586 6.84585 7.98278Z" fill="#373737"/>
<path d="M15.7086 10.3451C14.8769 9.49931 13.7661 9.02186 12.581 9.00099L12.5732 9.00085C12.5488 9.00042 12.5244 9 12.5 9C10.0187 9 8 11.0187 8 13.5C8 14.4855 8.31297 15.4214 8.90491 16.2067C9.7641 17.3464 11.0744 18 12.5 18C14.9813 18 17 15.9813 17 13.5C17 12.3121 16.5414 11.1917 15.7086 10.3451ZM14.4227 12.7684L12.7043 14.9091C12.5975 15.0421 12.4403 15.1119 12.2813 15.1119C12.1708 15.1119 12.0596 15.0782 11.9637 15.0088L10.682 14.0808C10.4397 13.9054 10.3855 13.5668 10.5612 13.3246C10.7367 13.0825 11.0755 13.0283 11.3178 13.2039L12.1818 13.8294L13.5775 12.0908C13.7647 11.8575 14.1056 11.8202 14.3392 12.0073C14.5726 12.1944 14.61 12.5352 14.4227 12.7684Z" fill="#373737"/>
</svg>
