<svg width="17" height="19" viewBox="0 0 17 19" fill="none" xmlns="http://www.w3.org/2000/svg">
<path d="M6.14213 10.5856C6.14213 10.3678 5.96548 10.1914 5.74752 10.1914H4.37047C4.15276 10.1914 3.97607 10.3678 3.97607 10.5856V11.9625C3.97607 12.1806 4.15276 12.3571 4.37047 12.3571H5.74752C5.96548 12.3571 6.14213 12.1806 6.14213 11.9625V10.5856Z" fill="#373737"/>
<path d="M9.58283 10.5856C9.58283 10.3678 9.40615 10.1914 9.18861 10.1914H7.81139C7.59368 10.1914 7.41699 10.3678 7.41699 10.5856V11.9625C7.41699 12.1806 7.59368 12.3571 7.81139 12.3571H9.18861C9.40615 12.3571 9.58283 12.1806 9.58283 11.9625V10.5856Z" fill="#373737"/>
<path d="M13.0245 10.5856C13.0245 10.3678 12.8478 10.1914 12.6301 10.1914H11.253C11.035 10.1914 10.8584 10.3678 10.8584 10.5856V11.9625C10.8584 12.1806 11.035 12.3571 11.253 12.3571H12.6301C12.8478 12.3571 13.0245 12.1806 13.0245 11.9625V10.5856Z" fill="#373737"/>
<path d="M6.14213 14.0272C6.14213 13.8091 5.96548 13.6328 5.74752 13.6328H4.37047C4.15276 13.6328 3.97607 13.8091 3.97607 14.0272V15.4039C3.97607 15.6218 4.15276 15.7983 4.37047 15.7983H5.74752C5.96548 15.7983 6.14213 15.6218 6.14213 15.4039V14.0272Z" fill="#373737"/>
<path d="M9.58283 14.0272C9.58283 13.8091 9.40615 13.6328 9.18861 13.6328H7.81139C7.59368 13.6328 7.41699 13.8091 7.41699 14.0272V15.4039C7.41699 15.6218 7.59368 15.7983 7.81139 15.7983H9.18861C9.40615 15.7983 9.58283 15.6218 9.58283 15.4039V14.0272Z" fill="#373737"/>
<path d="M13.0245 14.0272C13.0245 13.8091 12.8478 13.6328 12.6302 13.6328H11.253C11.035 13.6328 10.8584 13.8091 10.8584 14.0272V15.4039C10.8584 15.6218 11.035 15.7983 11.253 15.7983H12.6302C12.8478 15.7983 13.0245 15.6218 13.0245 15.4039V14.0272Z" fill="#373737"/>
<path d="M15.4868 2.92943V5.03248C15.4868 5.98304 14.7157 6.74904 13.7653 6.74904H12.6793C11.7288 6.74904 10.9474 5.98304 10.9474 5.03248V2.92188H6.05255V5.03248C6.05255 5.98304 5.27124 6.74904 4.32089 6.74904H3.23468C2.2843 6.74904 1.5132 5.98304 1.5132 5.03248V2.92943C0.682557 2.95446 0 3.64179 0 4.48661V16.8115C0 17.6722 0.697622 18.3791 1.55832 18.3791H15.4417C16.3011 18.3791 17 17.6707 17 16.8115V4.48661C17 3.64179 16.3175 2.95446 15.4868 2.92943ZM14.9824 16.044C14.9824 16.416 14.6808 16.7177 14.3087 16.7177H2.6616C2.2895 16.7177 1.98791 16.416 1.98791 16.044V9.67775C1.98791 9.30565 2.28946 9.00388 2.6616 9.00388H14.3087C14.6808 9.00388 14.9824 9.30565 14.9824 9.67775L14.9824 16.044Z" fill="#373737"/>
<path d="M3.23105 5.6221H4.30526C4.63131 5.6221 4.89568 5.35813 4.89568 5.03207V1.58438C4.89568 1.2583 4.63131 0.994141 4.30526 0.994141H3.23105C2.90496 0.994141 2.64062 1.2583 2.64062 1.58438V5.03207C2.64062 5.35813 2.90496 5.6221 3.23105 5.6221Z" fill="#373737"/>
<path d="M12.6656 5.6221H13.7398C14.0656 5.6221 14.33 5.35813 14.33 5.03207V1.58438C14.33 1.2583 14.0657 0.994141 13.7398 0.994141H12.6656C12.3396 0.994141 12.0752 1.2583 12.0752 1.58438V5.03207C12.0752 5.35813 12.3396 5.6221 12.6656 5.6221Z" fill="#373737"/>
</svg>
