<svg width="43" height="47" viewBox="0 0 43 47" fill="none" xmlns="http://www.w3.org/2000/svg">
<path d="M37.7144 26.2031H32.0965C31.1786 26.2031 30.4349 26.9472 30.4349 27.8648V34.5867C30.4349 33.6691 29.6908 32.925 28.7732 32.925H23.155C22.2371 32.925 21.4934 33.6687 21.4934 34.5867V39.0184C21.4934 38.1007 20.7493 37.3567 19.8317 37.3567H14.2135C13.2955 37.3567 12.5519 38.1007 12.5519 39.0184V43.1438C12.5519 42.2262 11.8078 41.4821 10.8898 41.4821H5.272C4.3544 41.4821 3.61035 42.2258 3.61035 43.1438V46.2982H39.3764V27.8648C39.3764 26.9472 38.6323 26.2031 37.7144 26.2031Z" fill="#A7C7D3"/>
<path d="M32.8623 26.9045C32.4743 26.9045 32.1602 26.5904 32.1602 26.2027V0.701738C32.1602 0.314115 32.4743 0 32.8623 0C33.2499 0 33.564 0.314115 33.564 0.701738V26.2027C33.564 26.5904 33.2495 26.9045 32.8623 26.9045Z" fill="#A7C7D3"/>
<path d="M12.5519 46.2985H3.61035V43.1441C3.61035 42.2265 4.3544 41.4824 5.272 41.4824H10.8902C11.8078 41.4824 12.5519 42.2261 12.5519 43.1441V46.2985Z" fill="#A7C7D3"/>
<path d="M21.4933 46.2989H12.5518V39.0191C12.5518 38.1015 13.2958 37.3574 14.2134 37.3574H19.8316C20.7492 37.3574 21.4933 38.1015 21.4933 39.0191V46.2989Z" fill="#89B4C9"/>
<path d="M30.4356 46.299H21.4941V34.5874C21.4941 33.6698 22.2378 32.9258 23.1558 32.9258H28.774C29.6916 32.9258 30.4356 33.6695 30.4356 34.5874V46.299Z" fill="#6C96B3"/>
<path d="M39.3771 46.2982H30.4355V27.8648C30.4355 26.9472 31.1792 26.2031 32.0972 26.2031H37.715C38.633 26.2031 39.3771 26.9472 39.3771 27.8648V46.2982Z" fill="#618AAA"/>
<path d="M41.8551 46.9992H1.2701C0.882474 46.9992 0.568359 46.6851 0.568359 46.2974C0.568359 45.9098 0.882474 45.5957 1.2701 45.5957H41.8551C42.2427 45.5957 42.5568 45.9098 42.5568 46.2974C42.5568 46.6851 42.2427 46.9992 41.8551 46.9992Z" fill="#2F5066"/>
<path d="M32.8623 7.3745H41.8558C42.1344 7.3745 42.2646 7.02955 42.0555 6.84559L39.7194 4.78807C39.5824 4.66795 39.5824 4.45495 39.7194 4.33447L42.0555 2.27731C42.2646 2.093 42.1344 1.74805 41.8558 1.74805H32.8623V7.3745Z" fill="#FDB659"/>
<path d="M33.5785 10.0059L23.836 15.2974C22.9668 15.7696 22.729 16.5994 22.4257 17.6683L20.4883 24.5204L23.0471 25.3993L25.2362 22.5744L27.0789 17.0032L31.9818 14.0241C33.3519 13.1918 34.0035 11.5517 33.5785 10.0059Z" fill="#83D9FF"/>
<path d="M33.5785 10.0059L32.4544 10.6165C32.2651 11.584 31.6806 12.4578 30.7967 12.995L26.3292 15.7094C26.048 15.8801 25.8368 16.1458 25.7332 16.4581L25.0953 18.3869C24.4323 20.3914 22.9263 22.006 20.9727 22.8067L20.4883 24.5204L25.2362 22.5747L27.0789 17.0035L31.9818 14.0241C33.3519 13.1918 34.0035 11.5517 33.5785 10.0059Z" fill="#5FC9ED"/>
<path d="M25.2362 22.5762L28.0417 25.8923C28.5068 26.508 28.9113 26.9408 28.8274 27.6181L28.1712 32.9226H26.459L26.0115 28.3625C25.9842 28.0864 25.8096 27.8473 25.555 27.7375L20.4883 24.5222L25.2362 22.5762Z" fill="#38627C"/>
<path d="M20.4883 24.5222L20.2148 29.5498C20.1968 29.9668 20.2553 30.2487 20.0921 30.5588L16.8613 37.3571H18.6775L23.5352 30.9034C23.8192 30.5728 23.8522 30.1239 23.9479 29.7108L25.2359 22.5762L20.4883 24.5222Z" fill="#4F7693"/>
<path d="M24.8878 11.0928L25.6846 12.6483C26.0589 13.3791 25.7699 14.2755 25.0388 14.6499L24.4231 14.9651C23.6919 15.3394 22.7959 15.0504 22.4215 14.3193L21.6247 12.7638C21.2504 12.0326 21.5394 11.1366 22.2705 10.7622L22.8862 10.447C23.617 10.0726 24.5131 10.3617 24.8878 11.0928Z" fill="#FECBAA"/>
</svg>
