<svg width="411" height="463" viewBox="0 0 411 463" fill="none" xmlns="http://www.w3.org/2000/svg">
<path d="M0 0H411V463H104C46.5624 463 0 416.438 0 359V0Z" fill="#037FFB"/>
<path d="M308.5 206C365.109 206 411 159.885 411 103C411 46.1147 365.109 0 308.5 0C251.891 0 206 46.1147 206 103C206 159.885 251.891 206 308.5 206Z" fill="#FFDE9E"/>
<path d="M103 463C159.885 463 206 416.885 206 360C206 303.115 159.885 257 103 257C46.1147 257 0 303.115 0 360C0 416.885 46.1147 463 103 463Z" fill="#FF900D"/>
<path d="M411 102.75C354.248 102.75 308.25 56.7522 308.25 0C365.002 0 411 45.9978 411 102.75Z" fill="#003760"/>
<path d="M308.25 0C308.25 56.7522 262.252 102.75 205.5 102.75C205.5 45.9978 251.498 0 308.25 0Z" fill="#003760"/>
<rect x="206" y="206" width="205" height="109" rx="12" fill="#FF900D"/>
<path d="M308 267C310.761 267 313 264.761 313 262C313 259.239 310.761 257 308 257C305.239 257 303 259.239 303 262C303 264.761 305.239 267 308 267Z" fill="white"/>
<path d="M308 236C310.761 236 313 233.761 313 231C313 228.239 310.761 226 308 226C305.239 226 303 228.239 303 231C303 233.761 305.239 236 308 236Z" fill="white"/>
<path d="M308 298C310.761 298 313 295.761 313 293C313 290.239 310.761 288 308 288C305.239 288 303 290.239 303 293C303 295.761 305.239 298 308 298Z" fill="white"/>
<path d="M0 0H206V167C206 216.706 165.706 257 116 257H90C40.2944 257 0 216.706 0 167V0Z" fill="#83C9FF"/>
<path d="M17 0H188V18.5C188 65.7203 149.72 104 102.5 104V104C55.2797 104 17 65.7203 17 18.5V0Z" fill="#F7FBFC"/>
<path d="M321 373C321 422.71 361.29 463 411 463V283C361.29 283 321 323.29 321 373Z" fill="#FFDE9E"/>
<path d="M232.684 373H411V283H206V349.57C206 362.51 217.947 373 232.684 373Z" fill="#83C9FF"/>
<path d="M271 373H280V463H271V373Z" fill="#FF900D"/>
<path d="M145.684 348.994C154.105 353.663 154.105 365.337 145.684 370.006L90.9474 400.357C82.5263 405.026 72 399.189 72 389.851L72 329.149C72 319.811 82.5263 313.974 90.9474 318.643L145.684 348.994Z" fill="#F7FBFC"/>
</svg>
